STARTFONT 2.1
COMMENT This font was automatically resized by bdfresize-1.4
COMMENT   mag_x = 3/5, mag_y = 3/5, blackness = 3
COMMENT HBF_START_FONT 1.0
COMMENT HBF_CODE_SCHEME CNS11643-1992-5
COMMENT
COMMENT   Plane 5 of CNS11643-1992
COMMENT
COMMENT	  Bitmaps provided by Central Bureau of Standards
COMMENT	  Ministry of Economy, Taiwan, ROC, March 9, 1994
COMMENT
FONT -CBS-Song-medium-r-normal-fantizi-24-240-75-75-c-240-CNS11643.1992-5
COMMENT
COMMENT An equivalent full X11R6 XLFD conforming font name is
COMMENT -CBS-Song-medium-r-normal-fantizi-40-400-75-75-c-400-CNS11643.1992.5-0
COMMENT which is formed from the first 15 properties listed in
COMMENT the STARTPROPERTIES section below.
COMMENT Any of these properties is optional, as in the simple HBF file.
COMMENT
SIZE 24 150 150
COMMENT HBF_BITMAP_BOUNDING_BOX 40 40 0 -6
FONTBOUNDINGBOX 24 24 0 -2
STARTPROPERTIES 23
FONTNAME_REGISTRY ""
FOUNDRY "CBS"
FAMILY_NAME "Song"
WEIGHT_NAME "medium"
SLANT "r"
SETWIDTH_NAME "normal"
ADD_STYLE_NAME "fantizi"
PIXEL_SIZE 24
POINT_SIZE 240
RESOLUTION_X 75
RESOLUTION_Y 75
SPACING "c"
AVERAGE_WIDTH 240
CHARS 1
CHARS 1
COPYRIGHT "1994, Central Bureau of Standards, Ministry of Economy, ROC"
WEIGHT 19329
RESOLUTION 110
X_HEIGHT 34
QUAD_WIDTH 40
FONT_ASCENT 22
FONT_DESCENT 2
DEFAULT_CHAR 32382
ENDPROPERTIES
CHARS 8604
COMMENT HBF_START_BYTE_2_RANGES 1
COMMENT HBF_BYTE_2_RANGE 0x21-0x7E
COMMENT HBF_END_BYTE_2_RANGES
COMMENT HBF_START_CODE_RANGES 1
COMMENT HBF_CODE_RANGE 0x2121-0x7C51 cns4040.w5.bin 0
COMMENT HBF_END_CODE_RANGES
COMMENT
COMMENT Rarely used characters defined by Ministry of Education, said to be
COMMENT disjoint from the previous planes.  8603 characters, 2121--7C51.
COMMENT
COMMENT HBF_END_FONT
STARTCHAR C2121
ENCODING 8481
SWIDTH 400 0
DWIDTH 24 0
BBX 24 24 0 -2
BITMAP
000000
380000
380000
300000
300000
300000
300000
300000
300000
300008
38001C
3FFFFC
00000C
00000C
00000C
00000C
00000C
00000C
00000C
00000C
00000C
00000C
00000C
000008
ENDCHAR
STARTCHAR C2122
ENCODING 8482
SWIDTH 400 0
DWIDTH 24 0
BBX 24 24 0 -2
BITMAP
000000
000000
003800
007000
006000
00E000
00C000
00C000
018000
038000
030000
070000
060000
060000
0C0000
1C0000
180000
380000
300000
300004
7FFFFE
400000
000000
000000
ENDCHAR
STARTCHAR C2123
ENCODING 8483
SWIDTH 400 0
DWIDTH 24 0
BBX 24 24 0 -2
BITMAP
060000
060000
0C0000
080000
180038
1FFFF8
0000F0
0001C0
000700
000C00
001800
007000
00C000
038000
070000
0C0000
180000
300000
700003
600002
700006
7FFFFF
1FFFFE
000000
ENDCHAR
STARTCHAR C2124
ENCODING 8484
SWIDTH 400 0
DWIDTH 24 0
BBX 24 24 0 -2
BITMAP
003800
003800
003000
003000
003000
003000
003000
003000
003000
003000
003000
003000
003000
003000
003000
003000
003000
003000
003000
003080
003700
003E00
003800
001800
ENDCHAR
STARTCHAR C2125
ENCODING 8485
SWIDTH 400 0
DWIDTH 24 0
BBX 24 24 0 -2
BITMAP
000000
000007
FFFFFF
001800
001800
001800
001800
001800
001800
001800
0FF800
180000
180000
180000
180000
180000
180000
180000
180000
180000
1FFFFC
0FFFFE
000000
000000
ENDCHAR
STARTCHAR C2126
ENCODING 8486
SWIDTH 400 0
DWIDTH 24 0
BBX 24 24 0 -2
BITMAP
001800
001800
001800
001800
001800
001802
FFFFFF
003800
001800
001800
001800
003000
003000
003000
007000
006000
006000
00C000
01C000
038000
070000
0E0000
180000
E00000
ENDCHAR
STARTCHAR C2127
ENCODING 8487
SWIDTH 400 0
DWIDTH 24 0
BBX 24 24 0 -2
BITMAP
000070
040070
070060
060060
060060
060060
060060
060060
060060
060060
060060
060060
0FFFE0
040060
000060
000060
000060
000060
000060
000060
000060
0007E0
0001E0
0000C0
ENDCHAR
STARTCHAR C2128
ENCODING 8488
SWIDTH 400 0
DWIDTH 24 0
BBX 24 24 0 -2
BITMAP
003000
003C00
003F00
003380
003000
003000
003000
003000
003000
003000
003000
003000
003000
003000
003000
003000
007000
00C000
030000
0E0000
380000
FFFFFC
700000
200000
ENDCHAR
STARTCHAR C2129
ENCODING 8489
SWIDTH 400 0
DWIDTH 24 0
BBX 24 24 0 -2
BITMAP
000000
000000
100010
1C001C
180018
180018
180018
180018
180018
180018
180018
180018
180018
180018
180018
180018
180018
180018
180018
180018
3FFFF8
100018
000000
000000
ENDCHAR
STARTCHAR C212a
ENCODING 8490
SWIDTH 400 0
DWIDTH 24 0
BBX 24 24 0 -2
BITMAP
000000
000060
3FFFF0
060060
060060
060060
060060
0C0060
0C1FC0
0C0380
1C0100
180008
1FFFFC
10001C
00000C
00000C
00000C
000018
000018
000038
000030
001FF0
0003E0
0001C0
ENDCHAR
STARTCHAR C212b
ENCODING 8491
SWIDTH 400 0
DWIDTH 24 0
BBX 24 24 0 -2
BITMAP
0601C0
0601C0
0601C0
0601C0
0601C0
0601C0
0601C0
0E01C7
FFFFFF
0601C0
0601C0
0601C0
0601C0
0601C0
0601C0
0601C0
060080
060000
060000
060000
060000
07FFFC
03FFFC
000000
ENDCHAR
STARTCHAR C212c
ENCODING 8492
SWIDTH 400 0
DWIDTH 24 0
BBX 24 24 0 -2
BITMAP
003800
003800
203010
38303C
303038
303038
303038
303038
303038
303038
303038
303038
30B038
33B038
3E33F8
3830F0
303060
103000
003001
003003
003002
003FFE
001FFE
000FFC
ENDCHAR
STARTCHAR C212d
ENCODING 8493
SWIDTH 400 0
DWIDTH 24 0
BBX 24 24 0 -2
BITMAP
040040
0600E0
07FFE0
060060
060060
060060
06E060
063860
061C60
060C60
060060
060060
060060
0600E0
061FE0
07F860
078060
020060
000060
000060
000060
000060
000060
000040
ENDCHAR
STARTCHAR C212e
ENCODING 8494
SWIDTH 400 0
DWIDTH 24 0
BBX 24 24 0 -2
BITMAP
000000
000000
002000
003800
003000
003002
FFFFFF
007000
006000
00C000
00C000
018000
0180C0
030060
070030
060018
0C001C
181FFE
3FF80E
380006
100000
000000
000000
000000
ENDCHAR
STARTCHAR C212f
ENCODING 8495
SWIDTH 400 0
DWIDTH 24 0
BBX 24 24 0 -2
BITMAP
000000
000038
7FFFF8
301800
301800
301800
301800
301800
301800
3FFFFC
3FFFFE
1FFFFC
001800
001800
001800
001800
001800
001800
001800
001800
001800
001800
001800
001800
ENDCHAR
STARTCHAR C2130
ENCODING 8496
SWIDTH 400 0
DWIDTH 24 0
BBX 24 24 0 -2
BITMAP
001800
001800
301810
38181C
301818
301818
301818
301818
301818
301818
301818
301818
301818
383818
3FFFF8
001810
001800
001800
001801
001801
001803
001FFF
001FFF
000FFE
ENDCHAR
STARTCHAR C2131
ENCODING 8497
SWIDTH 400 0
DWIDTH 24 0
BBX 24 24 0 -2
BITMAP
000000
000000
000000
000000
000000
03C000
038000
038000
038000
138060
138038
13801C
33800E
33800E
338007
738007
638002
E38020
C38020
838060
01FFE0
00FFE0
000000
000000
ENDCHAR
STARTCHAR C2132
ENCODING 8498
SWIDTH 400 0
DWIDTH 24 0
BBX 24 24 0 -2
BITMAP
000E00
000E00
000C00
000C00
020C00
038C00
030C00
060C00
060C00
0E0C00
0C0C18
180C1C
100C38
200C30
400C70
000CE0
0009C0
000380
000700
000E00
003800
00E000
038000
7C0000
ENDCHAR
STARTCHAR C2133
ENCODING 8499
SWIDTH 400 0
DWIDTH 24 0
BBX 24 24 0 -2
BITMAP
000020
0001F8
003FF8
1FF000
1C0000
1C0000
1C0000
1C0000
1C0000
1C0008
1C001C
1FFFFC
1C0000
1C0000
1C0000
1C0000
1C0000
1C0000
1C0000
1C0000
1C0000
1C0006
FFFFFF
000000
ENDCHAR
STARTCHAR C2134
ENCODING 8500
SWIDTH 400 0
DWIDTH 24 0
BBX 24 24 0 -2
BITMAP
000700
000700
004600
7FE600
0E0600
060600
060600
060600
060600
060600
060600
060600
060600
060600
060600
066600
0FC600
FE0600
F00601
400601
000603
0007FF
0003FF
0001FE
ENDCHAR
STARTCHAR C2135
ENCODING 8501
SWIDTH 400 0
DWIDTH 24 0
BBX 24 24 0 -2
BITMAP
007000
001800
001C00
003600
006300
00C180
0180C0
031070
061C3F
1C181F
301806
E01800
001800
001804
7FFFFE
001800
001800
001800
001800
001800
001800
001800
001800
001000
ENDCHAR
STARTCHAR C2136
ENCODING 8502
SWIDTH 400 0
DWIDTH 24 0
BBX 24 24 0 -2
BITMAP
300600
180300
0C0100
0C0180
060180
0601C0
0600C0
0700C0
0701C0
0781C0
0781E0
0D81E0
0D81E0
0CC1A0
1CC330
18C330
18E318
386618
30761C
307C0C
603C0E
60180F
C01007
802003
ENDCHAR
STARTCHAR C2137
ENCODING 8503
SWIDTH 400 0
DWIDTH 24 0
BBX 24 24 0 -2
BITMAP
0E0180
0E0080
0C00C0
0C1C40
0C1C60
0C1860
2C1860
6C1860
6C1820
CC1830
CC1830
8C1830
0C1838
0C1838
0C3018
0C3018
0C3018
0C300C
0C600C
0C600C
0CC00E
0CC007
0C8007
0D0000
ENDCHAR
STARTCHAR C2138
ENCODING 8504
SWIDTH 400 0
DWIDTH 24 0
BBX 24 24 0 -2
BITMAP
000000
200007
7FFFFF
E04006
C0600C
803000
001800
001800
001C00
001C00
001E00
003600
003300
006300
006180
00C180
00C0C0
0180E0
030070
060038
0C001E
18000F
300007
E00000
ENDCHAR
STARTCHAR C2139
ENCODING 8505
SWIDTH 400 0
DWIDTH 24 0
BBX 24 24 0 -2
BITMAP
000000
000060
1FFFF0
0001C0
000300
000600
701C0E
70180E
60180C
60180C
60180C
60180C
60180C
60180C
60180C
60180C
60180C
60180C
60F80C
60780C
60300C
60000C
7FFFFC
00000C
ENDCHAR
STARTCHAR C213a
ENCODING 8506
SWIDTH 400 0
DWIDTH 24 0
BBX 24 24 0 -2
BITMAP
000007
000007
000006
0031C6
7FF9C6
0001C6
0001C6
0001C6
0001C6
0001C6
0001C6
0001C6
0001C6
0001C6
0001C6
0001C6
0001C6
000186
001806
FFFC06
000006
00007E
00003C
000008
ENDCHAR
STARTCHAR C213b
ENCODING 8507
SWIDTH 400 0
DWIDTH 24 0
BBX 24 24 0 -2
BITMAP
038000
038004
F3BFFE
E38306
E38306
E38306
E38306
E38306
E38306
E38306
E38306
E38306
E38306
E38306
E38606
FF8606
038606
038C0E
038C0C
03980C
03981C
03B3F8
03E0F0
03C060
ENDCHAR
STARTCHAR C213c
ENCODING 8508
SWIDTH 400 0
DWIDTH 24 0
BBX 24 24 0 -2
BITMAP
0381C0
0381C0
F38180
E38180
E38180
E38184
E39FFE
E38186
E38186
E38186
E38186
E38386
E38306
E38306
E38306
FF8306
038606
038606
038C06
038C0E
03980C
0399FC
03B078
036030
ENDCHAR
STARTCHAR C213d
ENCODING 8509
SWIDTH 400 0
DWIDTH 24 0
BBX 24 24 0 -2
BITMAP
1C0000
1C0000
1C0004
1FFFFE
182006
187806
307006
307006
607006
C070C6
3FFFE6
007006
007006
006006
006006
006006
00C006
00C006
00C00E
01800C
01000C
0203FC
0401F8
000070
ENDCHAR
STARTCHAR C213e
ENCODING 8510
SWIDTH 400 0
DWIDTH 24 0
BBX 24 24 0 -2
BITMAP
380000
38C60C
30E7FE
30C60C
30C60C
30C60C
30C60C
30C60C
30C60C
30C60C
30C60C
30C60C
30C60C
61C60C
6EC60C
78C60C
60C6FC
60C638
018610
038600
070600
0E0600
1C0600
700600
ENDCHAR
STARTCHAR C213f
ENCODING 8511
SWIDTH 400 0
DWIDTH 24 0
BBX 24 24 0 -2
BITMAP
200000
300007
3FFFFF
300000
318000
31C000
318000
318000
318010
318078
3183E0
319F00
31E000
318000
318000
318000
218000
618002
618002
618006
41C00C
C1FFFE
80FFFC
000000
ENDCHAR
STARTCHAR C2140
ENCODING 8512
SWIDTH 400 0
DWIDTH 24 0
BBX 24 24 0 -2
BITMAP
000000
000038
3FFFF8
006038
00C038
00C038
018038
030030
060FF0
1801E0
3000C0
400060
1FFFF0
0600F0
0300C0
018180
00C300
006600
003C00
003E00
00F780
03C1FF
0E007F
F0000F
ENDCHAR
STARTCHAR C2141
ENCODING 8513
SWIDTH 400 0
DWIDTH 24 0
BBX 24 24 0 -2
BITMAP
000020
000070
1FFFF8
040030
063060
021860
021860
0308C0
0100C0
318180
188180
0CC300
0C6700
007600
003C00
001C00
001E00
003700
006380
00C1E0
0300FC
0E007F
18000F
E00002
ENDCHAR
STARTCHAR C2142
ENCODING 8514
SWIDTH 400 0
DWIDTH 24 0
BBX 24 24 0 -2
BITMAP
0000C0
1FFFE0
1C0060
1C0060
1C0060
1C0060
1C0060
1C0060
1C1FC0
1C0380
1C0100
1C0060
1FFFF0
1C4060
1C60C0
1C30C0
1C1980
1C0F80
1C0700
1C0F00
1C1DE0
1C30FC
1CC03E
1F800C
ENDCHAR
STARTCHAR C2143
ENCODING 8515
SWIDTH 400 0
DWIDTH 24 0
BBX 24 24 0 -2
BITMAP
000000
00000C
003FFE
06001C
FF0038
E70070
E600E0
E601C0
E60380
E60700
E60E00
E60C00
E61800
E61800
E63000
E67000
E66000
FE6000
E66001
406001
006003
003FFF
001FFF
000FFE
ENDCHAR
STARTCHAR C2144
ENCODING 8516
SWIDTH 400 0
DWIDTH 24 0
BBX 24 24 0 -2
BITMAP
000020
000070
3FFFF8
000030
00C030
00E030
00C030
00C030
00C030
00C030
00C230
3FFF30
00C030
00C030
00C030
00C030
00C030
00C038
00C039
00C019
00C19F
7FFF8F
000007
000003
ENDCHAR
STARTCHAR C2145
ENCODING 8517
SWIDTH 400 0
DWIDTH 24 0
BBX 24 24 0 -2
BITMAP
100000
1C000C
187FFE
18001C
180038
990070
DB80E0
9B80C0
9B8180
9B8300
9B8600
9B8E00
9B8C00
9B9800
9B9800
9BB000
9BB000
9BF000
FFF001
017001
007003
003FFF
001FFF
0007FE
ENDCHAR
STARTCHAR C2146
ENCODING 8518
SWIDTH 400 0
DWIDTH 24 0
BBX 24 24 0 -2
BITMAP
001800
301818
38181C
301818
301818
3FFFF8
300010
000000
000070
3FFFF8
0001E0
000780
001C00
007000
01C000
070000
0E0000
380000
300004
600004
60000C
7FFFFC
3FFFFC
0FFFF8
ENDCHAR
STARTCHAR C2147
ENCODING 8519
SWIDTH 400 0
DWIDTH 24 0
BBX 24 24 0 -2
BITMAP
000060
1FFFF0
060070
0C0060
0C00C0
1FFFF0
080038
000030
000030
000060
000040
000000
1FFFF0
0E0070
0C0060
0C00E0
1C00C0
1FFFF8
000038
000030
000030
000060
000040
000080
ENDCHAR
STARTCHAR C2148
ENCODING 8520
SWIDTH 400 0
DWIDTH 24 0
BBX 24 24 0 -2
BITMAP
001800
001800
001800
001800
001806
FFFFFF
001800
001800
041840
071870
061860
061860
061860
061860
0C1860
0C1860
0C1860
181860
10187E
20187F
40183F
801800
001800
001000
ENDCHAR
STARTCHAR C2149
ENCODING 8521
SWIDTH 400 0
DWIDTH 24 0
BBX 24 24 0 -2
BITMAP
000000
000007
7FFFFF
00C000
00C000
00C020
01FFF0
018030
030070
030060
060060
060060
0FC0C0
04F1C0
003F80
000700
000600
000C00
001800
003000
00E000
01C000
060000
3C0000
ENDCHAR
STARTCHAR C214a
ENCODING 8522
SWIDTH 400 0
DWIDTH 24 0
BBX 24 24 0 -2
BITMAP
007000
007000
006000
006000
0060C0
007FE0
1FF800
006000
006000
006030
007FF8
3FE000
006000
006000
006006
FFFFFF
006000
006000
006001
006001
006003
007FFF
007FFF
001FFE
ENDCHAR
STARTCHAR C214b
ENCODING 8523
SWIDTH 400 0
DWIDTH 24 0
BBX 24 24 0 -2
BITMAP
000006
7FFFFE
081040
1E1C40
1C1840
1C1840
1C1860
1C1860
1C1860
1C1860
1C1860
1C1820
1C1820
1C1830
1C1830
181830
181818
181818
101818
30180C
30180E
601807
601807
C01000
ENDCHAR
STARTCHAR C214c
ENCODING 8524
SWIDTH 400 0
DWIDTH 24 0
BBX 24 24 0 -2
BITMAP
000000
00000C
3FFFFC
001800
001800
001800
001800
001800
001800
001800
003838
1FFFF8
001800
001800
001800
001800
001800
001800
001800
001800
001FFC
7FF000
380000
100000
ENDCHAR
STARTCHAR C214d
ENCODING 8525
SWIDTH 400 0
DWIDTH 24 0
BBX 24 24 0 -2
BITMAP
000000
000007
FFFFFF
007800
006000
00C180
018380
030300
060600
1C0E38
070C38
01F870
003060
0060C0
00C180
038300
060600
1C0F00
7038C0
007030
01C01C
07000E
380006
600000
ENDCHAR
STARTCHAR C214e
ENCODING 8526
SWIDTH 400 0
DWIDTH 24 0
BBX 24 24 0 -2
BITMAP
001C00
001C00
001830
001FF8
08FF00
1FD800
1C1800
1C1800
181800
181800
181804
3FFFFE
101806
003806
007806
00D806
019806
03180E
0619FC
0C1878
381830
E01800
001800
001800
ENDCHAR
STARTCHAR C214f
ENCODING 8527
SWIDTH 400 0
DWIDTH 24 0
BBX 24 24 0 -2
BITMAP
00C300
7FE300
01C300
030300
060300
180300
300300
601300
E01300
FFF300
7FF300
3FE300
00E300
60C300
18C300
0CC300
04C300
00C300
03C301
0CC301
F0C303
E0C3FF
40C3FF
0081FE
ENDCHAR
STARTCHAR C2150
ENCODING 8528
SWIDTH 400 0
DWIDTH 24 0
BBX 24 24 0 -2
BITMAP
000400
01C300
018180
0300C0
060060
0C003C
18001F
300067
EFFFF0
000070
000060
000060
000060
040060
07FFE0
060060
060000
060000
0C0000
0C0000
1C0000
180000
300000
E00000
ENDCHAR
STARTCHAR C2151
ENCODING 8529
SWIDTH 400 0
DWIDTH 24 0
BBX 24 24 0 -2
BITMAP
100030
1FFFF8
180038
180038
1801B8
1BFFB8
180038
180038
1801F8
180030
000006
FFFFFF
001800
001800
001800
001800
001800
001800
001800
001800
001800
01F800
007800
003000
ENDCHAR
STARTCHAR C2152
ENCODING 8530
SWIDTH 400 0
DWIDTH 24 0
BBX 24 24 0 -2
BITMAP
000000
60000C
7FFFFE
60000E
60000C
60000C
60000C
60000C
60020C
60FF0C
60C70C
60C30C
60C30C
60C30C
60C30C
60C30C
60C30C
60C30C
60C30C
60C30C
60C30C
7FC3FC
60000C
000000
ENDCHAR
STARTCHAR C2153
ENCODING 8531
SWIDTH 400 0
DWIDTH 24 0
BBX 24 24 0 -2
BITMAP
000000
300038
3FFFFC
300118
300398
300718
301C18
307018
31C018
370118
300398
300718
300C18
301818
30E018
338018
3001D8
300398
300618
20180D
60300D
61C00F
CE0007
800003
ENDCHAR
STARTCHAR C2154
ENCODING 8532
SWIDTH 400 0
DWIDTH 24 0
BBX 24 24 0 -2
BITMAP
000100
000FC0
01FFC0
071800
001800
40180C
70180E
60180C
60186C
6FFFEC
60180C
60180C
60180C
60180C
60180C
60180C
60180C
60180C
60180C
60180C
60100C
60000C
7FFFFC
00000C
ENDCHAR
STARTCHAR C2155
ENCODING 8533
SWIDTH 400 0
DWIDTH 24 0
BBX 24 24 0 -2
BITMAP
380007
380007
300006
3000E6
3818E6
3FFCC6
3018C6
6018C6
4018C6
8018C6
0018C6
0058C6
01D8C6
0718C6
3C18C6
F018C6
E018C6
0018C6
001806
001806
003006
07F07E
01E03C
00C008
ENDCHAR
STARTCHAR C2156
ENCODING 8534
SWIDTH 400 0
DWIDTH 24 0
BBX 24 24 0 -2
BITMAP
000380
00C380
FFE300
18E300
18C307
18C7FF
18C400
18C800
18C004
18C3FE
18C006
18C00C
18C018
18C030
38C060
30C0C0
30C180
30C300
30C601
20C601
60CE03
5FC7FF
C783FF
8301FE
ENDCHAR
STARTCHAR C2157
ENCODING 8535
SWIDTH 400 0
DWIDTH 24 0
BBX 24 24 0 -2
BITMAP
1C0000
1C000C
1C0FFE
1FE18C
1C018C
1C018C
1C018C
1CC18C
FFE18C
01C30C
03830C
07030C
0E030C
1C060C
38060C
700C1C
6019F8
E03030
C02021
C00001
C00003
7FFFFF
3FFFFF
1FFFFE
ENDCHAR
STARTCHAR C2158
ENCODING 8536
SWIDTH 400 0
DWIDTH 24 0
BBX 24 24 0 -2
BITMAP
01C1C0
01C1C0
0181C0
0181C0
0181C0
01A1C2
7FFFFF
0381C7
0381C7
0381C7
0781C7
078187
058187
0D8187
0D8387
198307
118307
318307
618607
C18606
818C0E
1F89FC
079078
032030
ENDCHAR
STARTCHAR C2159
ENCODING 8537
SWIDTH 400 0
DWIDTH 24 0
BBX 24 24 0 -2
BITMAP
01C1C0
21C1C0
3181C0
3181C0
3181C4
618FFE
6181C6
6181C6
E381C6
FF81C6
C3C1C6
03E186
03C186
03C186
06C306
06C306
06C20C
0CC6FC
0CCC38
18D811
38C001
30FFFF
607FFF
C03FFE
ENDCHAR
STARTCHAR C215a
ENCODING 8538
SWIDTH 400 0
DWIDTH 24 0
BBX 24 24 0 -2
BITMAP
001800
001800
001800
001800
001800
00180E
FFFFFE
001800
001800
019A00
019B00
019980
0318C0
031860
061830
0C181F
18180F
701866
CFFFE0
001800
001800
001800
001800
001000
ENDCHAR
STARTCHAR C215b
ENCODING 8539
SWIDTH 400 0
DWIDTH 24 0
BBX 24 24 0 -2
BITMAP
018000
018000
038300
03FF80
060700
0C0600
180C00
301C00
003700
00E3C0
0180F8
061C3F
38180F
E01800
001800
001818
3FFFFC
001800
001800
001800
001800
001800
001800
001000
ENDCHAR
STARTCHAR C215c
ENCODING 8540
SWIDTH 400 0
DWIDTH 24 0
BBX 24 24 0 -2
BITMAP
200000
300007
3FFFFF
300000
300700
300600
300600
300600
30060C
33FFFE
300600
300600
300600
300600
300602
37FFFF
200600
600600
600600
600600
400600
C00600
800600
000000
ENDCHAR
STARTCHAR C215d
ENCODING 8541
SWIDTH 400 0
DWIDTH 24 0
BBX 24 24 0 -2
BITMAP
001C00
081C18
1C181C
1C1818
1C1818
1FFFF8
081810
001800
201806
3FFFFF
300000
300000
300000
300000
300000
300000
300000
300000
700000
600000
600000
400000
C00000
800000
ENDCHAR
STARTCHAR C215e
ENCODING 8542
SWIDTH 400 0
DWIDTH 24 0
BBX 24 24 0 -2
BITMAP
003800
003800
003010
003FF8
003000
003000
003006
7FFFFE
000006
000606
0FFF06
020706
030606
018C06
00DC06
007806
007806
00FC06
01C7C6
0303E6
0C00CE
3001FC
000078
000030
ENDCHAR
STARTCHAR C215f
ENCODING 8543
SWIDTH 400 0
DWIDTH 24 0
BBX 24 24 0 -2
BITMAP
00C000
00C000
018000
010000
63000C
7FFFFE
60000C
60010C
67FF8C
61038C
60830C
60C30C
60660C
607C0C
60380C
603C0C
606F0C
61C3EC
6300EC
6C006C
60000C
6000FC
60003C
600018
ENDCHAR
STARTCHAR C2160
ENCODING 8544
SWIDTH 400 0
DWIDTH 24 0
BBX 24 24 0 -2
BITMAP
000E00
000E00
000C00
630C00
7F8C00
638C00
638C00
638C00
638C06
638FFE
638C00
638C00
638C00
638C00
638C00
638C00
638C00
7F8C00
610C01
600C01
000C03
000FFF
000FFF
0003FE
ENDCHAR
STARTCHAR C2161
ENCODING 8545
SWIDTH 400 0
DWIDTH 24 0
BBX 24 24 0 -2
BITMAP
000030
0FFFF8
0C0038
0C0038
0C0038
0C0038
0C0038
0FFFF8
0DC030
01C000
018000
018018
01FFFC
018018
018018
038018
030018
070018
060018
0C0018
0C0038
180FF0
3001E0
E000C0
ENDCHAR
STARTCHAR C2162
ENCODING 8546
SWIDTH 400 0
DWIDTH 24 0
BBX 24 24 0 -2
BITMAP
000000
380F00
380E00
300E00
310E00
338E00
FFCE06
FB8E0F
338E3C
338FE0
338F00
339E00
730E00
630E00
670E00
E60E00
3E0E00
0E0E01
1F0E01
138E01
21CE03
40C7FF
8003FF
000000
ENDCHAR
STARTCHAR C2163
ENCODING 8547
SWIDTH 400 0
DWIDTH 24 0
BBX 24 24 0 -2
BITMAP
008380
01C380
7FC300
018300
030300
0E0300
0C0300
0C0300
0C0300
0C0380
0DC380
1F0380
FC07C0
EC0640
0C0640
0C0E60
0C0C60
0C1C30
0C1838
0C3018
0C301C
FC600F
3CC007
1B8003
ENDCHAR
STARTCHAR C2164
ENCODING 8548
SWIDTH 400 0
DWIDTH 24 0
BBX 24 24 0 -2
BITMAP
003000
001800
201802
3FFFFF
600007
E01006
C01C0C
001800
001800
001800
001800
003800
003C00
003400
006600
006200
00C300
018180
0300C0
060060
0C0038
18001F
30000F
E00007
ENDCHAR
STARTCHAR C2165
ENCODING 8549
SWIDTH 400 0
DWIDTH 24 0
BBX 24 24 0 -2
BITMAP
1C01C0
1C01C0
1C01C0
1C01C0
1C01C4
1C4FFE
FFE1C6
1F81C6
1F81C6
1F81C6
1F81C6
1F8186
1F8186
1B8306
1B8306
1B8706
33860C
338C1C
3399F9
33B031
63C023
63FFFF
C1FFFF
80FFFE
ENDCHAR
STARTCHAR C2166
ENCODING 8550
SWIDTH 400 0
DWIDTH 24 0
BBX 24 24 0 -2
BITMAP
000000
000038
3FFFFC
00C018
00C018
00C018
018018
038018
070038
0E03F0
1C01E0
300040
401800
001800
001800
38181C
38181C
301818
301818
301818
301818
301818
3FFFF8
000018
ENDCHAR
STARTCHAR C2167
ENCODING 8551
SWIDTH 400 0
DWIDTH 24 0
BBX 24 24 0 -2
BITMAP
000007
000407
00CE06
FFCE06
0C0E06
0C0E06
0C0E06
0C0E06
0C0E06
0C0E06
0C0E06
0C0E06
0C0E06
0C0E06
0C0E06
0C0FFE
0CCC06
FF0006
F00006
400006
000006
000006
000006
000006
ENDCHAR
STARTCHAR C2168
ENCODING 8552
SWIDTH 400 0
DWIDTH 24 0
BBX 24 24 0 -2
BITMAP
000008
00001C
3FFFFC
001800
001800
001800
001800
001800
001806
FFFFFF
0600C0
0600C0
0600C0
0600C0
0600C0
0600C0
0600C0
0C00C0
0C00C0
1800C0
3800C0
3000C0
6000C0
C000C0
ENDCHAR
STARTCHAR C2169
ENCODING 8553
SWIDTH 400 0
DWIDTH 24 0
BBX 24 24 0 -2
BITMAP
000004
0E000E
0C1FFF
1C001C
180038
380060
3000C0
2180C0
61C0C0
6380C0
3300C0
1F00C0
0E00C0
0C00C0
0C00C0
1800C0
3180C0
30C0C0
67C0C0
FCC0C0
E040C0
400FC0
0003C0
000180
ENDCHAR
STARTCHAR C216a
ENCODING 8554
SWIDTH 400 0
DWIDTH 24 0
BBX 24 24 0 -2
BITMAP
020000
070838
FF8FFC
030C18
030C18
030C18
030C18
7F0C18
620C18
600C18
600C18
E30C18
FF8C18
038C18
038C18
038C18
039818
039818
039818
031819
073019
FE301F
3C600F
18C006
ENDCHAR
STARTCHAR C216b
ENCODING 8555
SWIDTH 400 0
DWIDTH 24 0
BBX 24 24 0 -2
BITMAP
060007
061807
0C1C06
0C1806
181806
301806
639806
439806
071806
061806
0C1806
1C1806
1C1806
3C1806
6C1806
CC1FFE
0C0006
0C0006
0C0006
0C0006
0C0006
0C0006
0C0006
0C0006
ENDCHAR
STARTCHAR C216c
ENCODING 8556
SWIDTH 400 0
DWIDTH 24 0
BBX 24 24 0 -2
BITMAP
1C1800
1C1800
1C1800
1C1800
1C1800
1C1800
3E1804
7F180E
7F987E
DD1BE0
DC1E00
9C1800
1C1800
1C1800
1C1800
1C1800
1C1800
1C1800
1C1801
1C1801
1C1803
1C1FFF
1C1FFF
180FFE
ENDCHAR
STARTCHAR C216d
ENCODING 8557
SWIDTH 400 0
DWIDTH 24 0
BBX 24 24 0 -2
BITMAP
000000
00000C
3FFFFC
000060
0003F0
08FFF0
1FC000
1C0000
1C0018
1FFFFC
1C0018
1C0018
1C0018
1C0018
1FFFF8
1C0018
1C0000
180000
180000
100000
300000
300000
600000
C00000
ENDCHAR
STARTCHAR C216e
ENCODING 8558
SWIDTH 400 0
DWIDTH 24 0
BBX 24 24 0 -2
BITMAP
000030
7FFFF8
000038
000C38
007E38
07FE38
3EC038
00C038
00C038
00C238
3FFF38
00C038
00C038
00C038
00C1B8
7FFFB8
00C038
00C019
00C019
00C01D
00C00F
0FC00F
03C007
018000
ENDCHAR
STARTCHAR C216f
ENCODING 8559
SWIDTH 400 0
DWIDTH 24 0
BBX 24 24 0 -2
BITMAP
1C0000
1C1038
1C1FFC
1C1818
1C1818
1D1818
FF1818
1C1818
1C1818
1C1818
1C1818
1F1818
1C1818
FC1818
FC1818
5C1818
1C3018
1C3018
1C3018
1C6019
1C6019
FC401F
38800F
310006
ENDCHAR
STARTCHAR C2170
ENCODING 8560
SWIDTH 400 0
DWIDTH 24 0
BBX 24 24 0 -2
BITMAP
038300
038300
038300
038300
038300
238300
3B8300
338300
33B300
33FB00
338300
338300
338300
338300
338300
338300
338300
338300
338301
338301
33F303
FF83FF
F003FF
6001FE
ENDCHAR
STARTCHAR C2171
ENCODING 8561
SWIDTH 400 0
DWIDTH 24 0
BBX 24 24 0 -2
BITMAP
001800
001800
001800
00180C
001FFE
001800
001800
001818
1FFFFC
18001C
180018
180018
180018
180018
180018
1FFFF8
180018
180018
180018
180018
180018
1800F8
180078
180030
ENDCHAR
STARTCHAR C2172
ENCODING 8562
SWIDTH 400 0
DWIDTH 24 0
BBX 24 24 0 -2
BITMAP
040020
060070
07FFF8
066330
066330
066330
066330
0C6330
0C6332
FFFFFF
0CE630
0CC630
0CC630
1CC630
1CCE30
1CCE30
1CCE34
1FFFFE
080060
000060
000060
000FE0
0003C0
000180
ENDCHAR
STARTCHAR C2173
ENCODING 8563
SWIDTH 400 0
DWIDTH 24 0
BBX 24 24 0 -2
BITMAP
100300
1C0300
0E0300
060300
000300
000300
018300
610300
3303C0
320360
060330
060318
0C030C
0C030E
180306
180300
300300
F00300
300300
300300
180300
1C0300
180300
000200
ENDCHAR
STARTCHAR C2174
ENCODING 8564
SWIDTH 400 0
DWIDTH 24 0
BBX 24 24 0 -2
BITMAP
000000
18003C
0C0038
0C2038
002038
012038
813030
E21030
721070
361060
061860
040860
0C0CC0
080CC0
180780
180780
300300
F00780
300CC0
301860
38303C
38601F
38C00E
138000
ENDCHAR
STARTCHAR C2175
ENCODING 8565
SWIDTH 400 0
DWIDTH 24 0
BBX 24 24 0 -2
BITMAP
000018
3FFFFC
000000
001800
0C1800
0E1800
0C1800
0C1830
1FFFF8
181800
301800
201800
401800
001806
FFFFFF
001800
001800
001800
001800
001800
001800
001800
001800
001000
ENDCHAR
STARTCHAR C2176
ENCODING 8566
SWIDTH 400 0
DWIDTH 24 0
BBX 24 24 0 -2
BITMAP
001800
001800
001800
001800
003807
FFFFFF
001800
001810
181838
0C1830
061860
0318C0
033980
003C00
007400
006600
00C300
018180
0300C0
060060
0C003C
18001F
300006
E00000
ENDCHAR
STARTCHAR C2177
ENCODING 8567
SWIDTH 400 0
DWIDTH 24 0
BBX 24 24 0 -2
BITMAP
000380
470380
660300
3C0300
180300
3C0302
6C7FFF
C60387
860307
060307
060307
0F0307
1B0307
130307
230607
430607
830607
030C07
030C07
071806
06300E
7E61FC
3CC078
1B8030
ENDCHAR
STARTCHAR C2178
ENCODING 8568
SWIDTH 400 0
DWIDTH 24 0
BBX 24 24 0 -2
BITMAP
000000
471020
661FF0
3C1830
181830
3C1830
6C1830
C61830
861830
061830
061830
0F1830
1B1830
131830
231830
431830
833030
033030
033030
076031
066031
7E403F
3CC03F
19800E
ENDCHAR
STARTCHAR C2179
ENCODING 8569
SWIDTH 400 0
DWIDTH 24 0
BBX 24 24 0 -2
BITMAP
001000
001C00
001800
003000
003000
006000
20C00C
3FFFFE
30C30E
30C30C
30C30C
30C30C
30C30C
30C30C
30C30C
30C30C
30C30C
30C30C
30C30C
30C30C
30C30C
30C37C
30831C
200018
ENDCHAR
STARTCHAR C217a
ENCODING 8570
SWIDTH 400 0
DWIDTH 24 0
BBX 24 24 0 -2
BITMAP
001800
001800
001800
001830
3FFFF8
001838
001838
001838
FFFFFF
001838
001838
001838
1FFFF8
003830
001800
001800
001806
FFFFFF
001800
001800
001800
001800
001800
001000
ENDCHAR
STARTCHAR C217b
ENCODING 8571
SWIDTH 400 0
DWIDTH 24 0
BBX 24 24 0 -2
BITMAP
0700E0
0700E0
0600C2
FFE7FF
0700C0
0600C0
0610C0
001C00
001800
001800
001800
001800
001800
001800
001800
001800
001800
001800
001800
001800
001800
001800
001800
001000
ENDCHAR
STARTCHAR C217c
ENCODING 8572
SWIDTH 400 0
DWIDTH 24 0
BBX 24 24 0 -2
BITMAP
038104
03818E
0301FF
03018C
03018C
030198
030190
0301B0
0319B0
FFFD98
03018C
030184
030186
030186
030187
030187
030187
0301FE
03019E
03018C
030180
030180
030180
030180
ENDCHAR
STARTCHAR C217d
ENCODING 8573
SWIDTH 400 0
DWIDTH 24 0
BBX 24 24 0 -2
BITMAP
0201C0
E701C0
FF8180
E30180
E60180
E60180
E40180
EC0180
EC0186
E4FFFF
E60180
E30180
E30180
E38180
E38180
E38180
E38180
FF0180
E60180
E00180
E00180
E00180
E00180
C00180
ENDCHAR
STARTCHAR C217e
ENCODING 8574
SWIDTH 400 0
DWIDTH 24 0
BBX 24 24 0 -2
BITMAP
020004
E7000E
FFFFFE
E30E00
E60C00
E60C00
E40C00
EC1800
EC180C
E41FFE
E6000C
E3000C
E3000C
E3800C
E3800C
E3800C
E3800C
FF000C
E6000C
E0000C
E00018
E003F8
E001F0
C00060
ENDCHAR
STARTCHAR C2221
ENCODING 8737
SWIDTH 400 0
DWIDTH 24 0
BBX 24 24 0 -2
BITMAP
000000
E60038
FF3FFC
E61018
E61018
E41018
EC1038
E81038
E81830
EC1830
E60860
E60C60
E70C60
E306C0
E306C0
E30380
E70380
FF03C0
E606E0
E00C70
E0183C
E0301F
E0600E
C18004
ENDCHAR
STARTCHAR C2222
ENCODING 8738
SWIDTH 400 0
DWIDTH 24 0
BBX 24 24 0 -2
BITMAP
020000
E70038
FFBFF8
E30E38
E60E38
E60E30
E40E30
EC0E30
EC0E62
E40E7F
E60E67
E30E07
E30E07
E38C07
E38C07
E38C07
E39807
FF1807
E61806
E03006
E0300E
E061FC
E0C078
C18030
ENDCHAR
STARTCHAR C2223
ENCODING 8739
SWIDTH 400 0
DWIDTH 24 0
BBX 24 24 0 -2
BITMAP
020000
E70006
FFBFFF
E30307
E60307
E60307
E40307
EC0307
EC0307
E40307
E60307
E30307
E30307
E38307
E38607
E38607
E38607
FF0C07
E60C06
E0180E
E0300C
E061FC
E0C078
C38030
ENDCHAR
STARTCHAR C2224
ENCODING 8740
SWIDTH 400 0
DWIDTH 24 0
BBX 24 24 0 -2
BITMAP
00C000
00C000
018060
1FFFF0
1C0070
1C0060
1C0060
1C0060
1C0060
1C0060
1FFFE0
1C0000
1C0000
1C0020
1FFFF0
1C0030
1C0030
1C0030
1C0030
1C0030
1C0030
1FFFF0
1C0030
180020
ENDCHAR
STARTCHAR C2225
ENCODING 8741
SWIDTH 400 0
DWIDTH 24 0
BBX 24 24 0 -2
BITMAP
007000
007000
00E000
20C008
31801C
3FFFFC
30C30C
30C30C
30C30C
30C30C
30C30C
30C30C
30C30C
3FFFFC
30C30C
30C30C
30C30C
30C30C
30C30C
30C30C
30C30C
30C37C
308238
200030
ENDCHAR
STARTCHAR C2226
ENCODING 8742
SWIDTH 400 0
DWIDTH 24 0
BBX 24 24 0 -2
BITMAP
073800
073800
063000
063006
0C3FFE
0C7000
1C7000
1C7006
3C7FFF
7C2007
7C0007
DC0007
1C0007
1C0027
1CFFF7
1C0007
1C0007
1C0007
1C0007
1C0007
1C0006
1C01FE
1C003C
180018
ENDCHAR
STARTCHAR C2227
ENCODING 8743
SWIDTH 400 0
DWIDTH 24 0
BBX 24 24 0 -2
BITMAP
0380E0
0381C0
070380
060700
060C08
0C381C
1C7030
1C1C60
3C07C0
3C0380
6C0608
4C1C04
8C383E
0CFFE7
0C7DC3
0C21C1
0C01C0
0C01C0
0C01C0
0C01C0
0C01C0
0C01C0
0C01C0
0C0180
ENDCHAR
STARTCHAR C2228
ENCODING 8744
SWIDTH 400 0
DWIDTH 24 0
BBX 24 24 0 -2
BITMAP
001800
003800
007C00
00C600
018300
0301E0
0600F8
0C003F
38003F
EFFFF2
018300
018300
018300
018304
7FFFFE
018300
018300
038300
030300
060300
0C0300
180300
300300
E00300
ENDCHAR
STARTCHAR C2229
ENCODING 8745
SWIDTH 400 0
DWIDTH 24 0
BBX 24 24 0 -2
BITMAP
200000
200007
7FFFFF
E00006
C0000C
800060
0FFFF0
000000
000000
000000
000000
00000C
7FFFFE
00C300
00C300
00C300
018300
018300
030301
060303
0C0302
1803FE
3003FE
E001FC
ENDCHAR
STARTCHAR C222a
ENCODING 8746
SWIDTH 400 0
DWIDTH 24 0
BBX 24 24 0 -2
BITMAP
001800
001800
01180C
7F99FE
63998E
63998C
63998C
63998C
63998C
63998C
63FF8C
60190C
60180C
60180C
60180C
60180C
7FFFFC
60180C
001800
001800
001800
001800
001800
001000
ENDCHAR
STARTCHAR C222b
ENCODING 8747
SWIDTH 400 0
DWIDTH 24 0
BBX 24 24 0 -2
BITMAP
300007
300007
300006
3008E6
3FFCE6
6000C6
6000C6
6018C6
7FFCC6
401CC6
0018C6
0018C6
0058C6
00D8C6
0718C6
1C18C6
F018C6
E018C6
401806
001806
001806
07F87E
00F03C
006008
ENDCHAR
STARTCHAR C222c
ENCODING 8748
SWIDTH 400 0
DWIDTH 24 0
BBX 24 24 0 -2
BITMAP
038007
038007
038006
0380E6
0380E6
33A0C6
3B90C6
3398C6
338CC6
638EC6
6384C6
4380C6
C398C6
8398C6
0398C6
0330C6
0070C6
00E0C6
01C006
038006
070006
0C007E
30003C
E00008
ENDCHAR
STARTCHAR C222d
ENCODING 8749
SWIDTH 400 0
DWIDTH 24 0
BBX 24 24 0 -2
BITMAP
00F007
07F807
7F0006
0301C6
0301C6
0301C6
0301C6
0319C6
7FF9C6
0301C6
0301C6
0301C6
0301C6
0319C6
FFF9C6
0301C6
0601C6
060186
060006
0C0006
0C0006
18007E
30003C
E00008
ENDCHAR
STARTCHAR C222e
ENCODING 8750
SWIDTH 400 0
DWIDTH 24 0
BBX 24 24 0 -2
BITMAP
004007
30E007
3FF006
3061C6
3061C6
3061C6
3061C6
307DC6
603FC6
C001C6
0061C6
7FF1C6
0071C6
3061C6
1861C6
0CC1C6
07C1C6
038186
03C006
06E006
0C7006
18387E
30183C
E00808
ENDCHAR
STARTCHAR C222f
ENCODING 8751
SWIDTH 400 0
DWIDTH 24 0
BBX 24 24 0 -2
BITMAP
018007
00C007
00C006
1C60E6
1C60E6
1C30C6
1830C6
1818C6
3018C6
321CC6
231CC6
630CC6
C604C6
8600C6
0600C6
0C00C6
0C00C6
1860C6
183006
301806
20F806
7F987E
30083C
000008
ENDCHAR
STARTCHAR C2230
ENCODING 8752
SWIDTH 400 0
DWIDTH 24 0
BBX 24 24 0 -2
BITMAP
060000
060006
064FFF
0FE1C7
7E01C7
0601C7
0601C7
0601C7
0661C7
7FE1C7
0E01C7
060187
060187
062187
07F387
FE0307
060307
060607
060606
060C0E
061C0C
0639FC
067078
05C030
ENDCHAR
STARTCHAR C2231
ENCODING 8753
SWIDTH 400 0
DWIDTH 24 0
BBX 24 24 0 -2
BITMAP
0601C0
0601C0
0601C0
0601C0
4661C0
7FF1C2
C677FF
C641C7
8601C7
0601C7
0601C7
0FC1C7
0F81C7
0F8187
0F8187
1F8187
1B8307
1B8307
1BB307
33E607
33C606
618CFE
40183C
C03018
ENDCHAR
STARTCHAR C2232
ENCODING 8754
SWIDTH 400 0
DWIDTH 24 0
BBX 24 24 0 -2
BITMAP
0000E0
6030E0
7FF0C0
6000C0
6000C0
6020C2
7FF3FF
6878C7
6870C7
6C60C7
6460C7
66E0C7
66C0C7
63C0C7
6381C7
6381C7
63C187
66C187
CE6307
8C7307
983606
30147E
60083C
801018
ENDCHAR
STARTCHAR C2233
ENCODING 8755
SWIDTH 400 0
DWIDTH 24 0
BBX 24 24 0 -2
BITMAP
0001C0
0071C0
7FF1C0
3181C0
3181C0
3181C2
6187FF
6181C7
61B1C7
7FF9C7
0381C7
0781C7
0781C7
078187
0D8187
1D8187
198307
318307
318307
618607
C18606
1F8CFE
07983C
033018
ENDCHAR
STARTCHAR C2234
ENCODING 8756
SWIDTH 400 0
DWIDTH 24 0
BBX 24 24 0 -2
BITMAP
1C0000
1C0000
1C0004
1FFFFE
180006
180006
300206
37FF06
600006
C00006
000006
000086
1FFFC6
018C06
018C06
038C46
030C46
070CC6
0E0FCE
1C07CC
30000C
0003FC
0001F8
000070
ENDCHAR
STARTCHAR C2235
ENCODING 8757
SWIDTH 400 0
DWIDTH 24 0
BBX 24 24 0 -2
BITMAP
1C0000
1C0000
1C0004
1FFFFE
180006
180006
301806
301806
601806
C71806
071906
061F86
061806
061806
061806
061806
061806
0618E6
3FFFEE
00000C
00000C
0003FC
0001F8
000070
ENDCHAR
STARTCHAR C2236
ENCODING 8758
SWIDTH 400 0
DWIDTH 24 0
BBX 24 24 0 -2
BITMAP
1C0000
1C0000
1C0004
1FFFFE
180006
180006
300006
370006
660086
C6FFC6
0C0006
0C0006
1C0006
3C0006
6C0006
0C0006
0C0046
0DFFE6
0C000E
0C000C
0C000C
0003FC
0001F8
000070
ENDCHAR
STARTCHAR C2237
ENCODING 8759
SWIDTH 400 0
DWIDTH 24 0
BBX 24 24 0 -2
BITMAP
000004
60000E
7FFFFE
600E00
600E00
601E00
603B00
6071C0
60E0E0
61C07C
6380FE
667FCC
680000
600040
61FFE0
600060
6000C0
6000C0
600180
600300
600600
600406
7FFFFF
000000
ENDCHAR
STARTCHAR C2238
ENCODING 8760
SWIDTH 400 0
DWIDTH 24 0
BBX 24 24 0 -2
BITMAP
000004
00000E
FFFFFE
601000
600800
660C08
67FFFC
670E1C
660E0C
660F0C
66198C
6631EC
6660FC
66C07C
67802C
66000C
66000C
6603FC
660078
660010
700000
3FFFFF
1FFFFF
000000
ENDCHAR
STARTCHAR C2239
ENCODING 8761
SWIDTH 400 0
DWIDTH 24 0
BBX 24 24 0 -2
BITMAP
38001C
39C39C
318398
318318
318318
318318
318318
318318
31A31A
FFEFFF
318318
318318
318318
318318
318318
318318
318318
318318
318318
318318
318318
318318
018018
018018
ENDCHAR
STARTCHAR C223a
ENCODING 8762
SWIDTH 400 0
DWIDTH 24 0
BBX 24 24 0 -2
BITMAP
0381C0
0381C0
0381C0
0381C4
7FFFFE
0381C0
0381C0
0381C6
FFFFFF
0301C0
0301C0
0611C0
0C1DC0
181980
601800
001800
003807
FFFFFF
001800
001800
001800
001800
001800
001000
ENDCHAR
STARTCHAR C223b
ENCODING 8763
SWIDTH 400 0
DWIDTH 24 0
BBX 24 24 0 -2
BITMAP
200000
300007
3FFFFF
300700
300700
300600
300604
37FFFE
300600
300600
300600
300618
31FFFC
300600
300600
300600
200607
67FFFF
600600
600600
400600
C00600
800600
000600
ENDCHAR
STARTCHAR C223c
ENCODING 8764
SWIDTH 400 0
DWIDTH 24 0
BBX 24 24 0 -2
BITMAP
200000
300007
3FFFFF
300000
30000C
37FFFE
307060
307060
307060
307060
307060
307062
37FFFF
3070E0
307060
307060
206060
606060
60C060
60C060
418060
C30060
860060
0C0040
ENDCHAR
STARTCHAR C223d
ENCODING 8765
SWIDTH 400 0
DWIDTH 24 0
BBX 24 24 0 -2
BITMAP
200000
300007
3FFFFF
308000
30E000
30C000
30C00C
31FFFE
318300
330300
320300
340300
300300
300302
37FFFF
300300
200300
600300
600300
600300
400300
C00300
800300
000200
ENDCHAR
STARTCHAR C223e
ENCODING 8766
SWIDTH 400 0
DWIDTH 24 0
BBX 24 24 0 -2
BITMAP
200000
300007
3FFFFF
300040
30C0E0
30FFE0
30C060
30C060
30C060
30C07C
30807E
31003C
32FFF0
3460F0
302060
3030C0
2019C0
600F80
600700
600F00
4019E0
C0707E
80C03E
0F000E
ENDCHAR
STARTCHAR C223f
ENCODING 8767
SWIDTH 400 0
DWIDTH 24 0
BBX 24 24 0 -2
BITMAP
200000
300007
3FFFFF
300000
301000
301A00
303A00
303200
303204
30620E
306318
30C130
30C1E0
31C180
33C0C0
32C0C0
24C060
68C070
60C038
60C19C
40DE0F
C0F807
80E002
004000
ENDCHAR
STARTCHAR C2240
ENCODING 8768
SWIDTH 400 0
DWIDTH 24 0
BBX 24 24 0 -2
BITMAP
200000
300007
3FFFFF
300000
30000C
33FFFE
338000
338000
338010
33FFF8
33A03C
33A038
339030
339860
338860
338CE0
2307C0
630380
630780
660EE0
461C70
CC303F
98C00F
178007
ENDCHAR
STARTCHAR C2241
ENCODING 8769
SWIDTH 400 0
DWIDTH 24 0
BBX 24 24 0 -2
BITMAP
000004
60700E
7FF3FF
667206
667206
667306
66730C
66710C
66710C
66718C
7FF098
6060D8
6000F8
600070
600070
600070
6000F0
6000F8
600198
60030C
E0060E
C00C0F
801807
803003
ENDCHAR
STARTCHAR C2242
ENCODING 8770
SWIDTH 400 0
DWIDTH 24 0
BBX 24 24 0 -2
BITMAP
001C00
008600
01C300
018180
0300E0
060070
0C013F
18038F
77FFC7
C38300
038300
038360
03FFF0
0360F0
032060
0630C0
0619C0
060F80
0C0700
0C0F00
1819E0
30707E
60C03E
0F000E
ENDCHAR
STARTCHAR C2243
ENCODING 8771
SWIDTH 400 0
DWIDTH 24 0
BBX 24 24 0 -2
BITMAP
0001C0
0001C0
000180
C60180
FF0180
E70180
E60182
E6FFFF
E60180
E60180
E60180
E603C0
E60340
E60340
E60660
E60620
E60C30
FE0C30
E61818
40180C
00300E
00600F
00C007
038000
ENDCHAR
STARTCHAR C2244
ENCODING 8772
SWIDTH 400 0
DWIDTH 24 0
BBX 24 24 0 -2
BITMAP
000300
000300
000300
C30300
FF0300
E30300
E30300
E30300
E30300
E30306
E303FE
E30300
E30300
E30300
E30300
E30300
E30300
FF0300
E20300
400300
000300
000302
03FFFF
000000
ENDCHAR
STARTCHAR C2245
ENCODING 8773
SWIDTH 400 0
DWIDTH 24 0
BBX 24 24 0 -2
BITMAP
001C00
001C00
001800
C61800
FF1806
E73FFF
E63007
E62007
E66007
E64007
E68807
E60607
E60307
E60387
E60187
E60007
E60007
FE0007
E60006
400006
00000E
0001FC
000078
000030
ENDCHAR
STARTCHAR C2246
ENCODING 8774
SWIDTH 400 0
DWIDTH 24 0
BBX 24 24 0 -2
BITMAP
000000
1C0038
1FFFF8
1C0038
1C0038
1C0038
1C0038
1C0038
1FFFF8
180030
000000
000000
060C18
0E1C18
0C1830
183020
306040
60C080
2060C0
103060
181830
0C1C38
060C18
060C18
ENDCHAR
STARTCHAR C2247
ENCODING 8775
SWIDTH 400 0
DWIDTH 24 0
BBX 24 24 0 -2
BITMAP
00C000
00C000
00C040
3FFFE0
01C0E0
00C060
01C060
01F060
033861
061C61
0C0C61
18007F
30007F
C00000
080020
1FFFF0
1C0030
1C0030
1C0030
1C0030
1C0030
1FFFF0
1C0030
180020
ENDCHAR
STARTCHAR C2248
ENCODING 8776
SWIDTH 400 0
DWIDTH 24 0
BBX 24 24 0 -2
BITMAP
000000
60000C
7FFFFE
60000C
60000C
60010C
63FF8C
63018C
63018C
63018C
63018C
63FF8C
63010C
63000C
63000C
63FF8C
63FFCC
60FFCC
60000C
60000C
60000C
7FFFFC
60000C
000000
ENDCHAR
STARTCHAR C2249
ENCODING 8777
SWIDTH 400 0
DWIDTH 24 0
BBX 24 24 0 -2
BITMAP
000000
60000C
7FFFFE
60180C
60180C
60300C
60600C
60C10C
61838C
63830C
61C60C
606C0C
60380C
60300C
60630C
60C18C
6180CC
6307EC
67FCEC
67006C
62000C
7FFFFC
60000C
600000
ENDCHAR
STARTCHAR C224a
ENCODING 8778
SWIDTH 400 0
DWIDTH 24 0
BBX 24 24 0 -2
BITMAP
0001C0
3801C0
3801C0
3001C0
3201C0
3301C0
FF81C2
FB3FFF
3301C0
3301C0
3301C0
3301C0
7301C0
660360
660360
E60320
3C0330
1E0630
1F0C18
330C0C
21980E
40300F
806007
01C000
ENDCHAR
STARTCHAR C224b
ENCODING 8779
SWIDTH 400 0
DWIDTH 24 0
BBX 24 24 0 -2
BITMAP
000038
380038
380030
300030
320030
330032
FFBFFF
FB0030
330830
330830
330860
330C60
730660
660260
660360
E603C0
3C01C0
1E01C0
1F01E0
330370
21863C
400C1F
801807
00E000
ENDCHAR
STARTCHAR C224c
ENCODING 8780
SWIDTH 400 0
DWIDTH 24 0
BBX 24 24 0 -2
BITMAP
000000
00000C
3FFFFC
000000
000000
000010
1FFFF8
000000
000000
000000
000006
FFFFFF
001800
001800
001800
0C1820
0C1830
181818
30180C
20180E
401806
81F802
007800
003000
ENDCHAR
STARTCHAR C224d
ENCODING 8781
SWIDTH 400 0
DWIDTH 24 0
BBX 24 24 0 -2
BITMAP
1C0000
1C000C
1C0FFC
1C0E60
1C0E60
1C4E60
FFEC60
1F8C60
1F8C62
1F9FFE
1F8060
1F8060
1F8060
1B8060
1B8060
1B8060
338060
338060
338061
338061
638003
63FFFF
C1FFFF
80FFFE
ENDCHAR
STARTCHAR C224e
ENCODING 8782
SWIDTH 400 0
DWIDTH 24 0
BBX 24 24 0 -2
BITMAP
200000
30000C
3FFFFE
30000C
30000C
3FFFFC
30000C
300000
300030
33FFF8
300030
308C30
308E60
304460
3060C0
7030C0
601980
600F00
600F00
401BC0
C031F0
C0C07F
83001F
3C0007
ENDCHAR
STARTCHAR C224f
ENCODING 8783
SWIDTH 400 0
DWIDTH 24 0
BBX 24 24 0 -2
BITMAP
001800
101810
1C1838
181838
181838
183038
3FFFF8
006410
00CE00
018E00
030E0C
07FFFE
1E0E0E
3E0E0C
E60E0C
060E0C
060E0C
060E0C
060E0C
060EFC
060E38
040E10
000E00
000C00
ENDCHAR
STARTCHAR C2250
ENCODING 8784
SWIDTH 400 0
DWIDTH 24 0
BBX 24 24 0 -2
BITMAP
001800
301818
38181C
301818
301818
301818
3FFFF8
300018
000000
000000
000008
3FFFFC
001800
001800
001800
001800
001800
001800
001800
001800
001800
001806
FFFFFF
000000
ENDCHAR
STARTCHAR C2251
ENCODING 8785
SWIDTH 400 0
DWIDTH 24 0
BBX 24 24 0 -2
BITMAP
000000
000060
1FFFF0
000060
000060
000060
1FFFE0
000060
000060
000062
FFFFFF
000000
001800
001800
301810
38181C
301818
301818
301818
301818
301818
301818
3FFFF8
000018
ENDCHAR
STARTCHAR C2252
ENCODING 8786
SWIDTH 400 0
DWIDTH 24 0
BBX 24 24 0 -2
BITMAP
000000
000038
3FFFFC
00C018
60C018
18C018
0D8018
078018
070038
0E03F0
1C01E0
300040
401800
001800
001800
38181C
38181C
301818
301818
301818
301818
301818
3FFFF8
000018
ENDCHAR
STARTCHAR C2253
ENCODING 8787
SWIDTH 400 0
DWIDTH 24 0
BBX 24 24 0 -2
BITMAP
001800
101810
1C1838
181838
3FFFF8
101030
001C00
001818
001FFC
001800
001800
0FFFF0
0001F0
000380
000E00
001800
007000
01C000
030002
0E0002
1C0006
0FFFFE
07FFFE
03FFFC
ENDCHAR
STARTCHAR C2254
ENCODING 8788
SWIDTH 400 0
DWIDTH 24 0
BBX 24 24 0 -2
BITMAP
030C30
030C30
061860
0C30C0
082080
0E38E0
071C70
038E38
000000
006000
00E020
00FFF0
018070
030060
07C0C0
0C7180
301B00
200E00
000C00
001800
007000
01C000
060000
780000
ENDCHAR
STARTCHAR C2255
ENCODING 8789
SWIDTH 400 0
DWIDTH 24 0
BBX 24 24 0 -2
BITMAP
040800
060C1C
0C1C18
081830
103060
2060C0
303060
1C1830
0E0C18
060E1C
06060C
020000
040800
060C1C
0C1C18
081830
103060
2060C0
303060
1C1830
0E0C18
060E1C
06060C
020000
ENDCHAR
STARTCHAR C2256
ENCODING 8790
SWIDTH 400 0
DWIDTH 24 0
BBX 24 24 0 -2
BITMAP
000000
038007
FFCFFF
018007
018007
018007
018007
7F8007
600007
600C07
600FFF
E18C06
FFCC00
018C00
018C00
018C00
018C00
018C00
018C01
038C01
030C03
7F0FFF
1E0FFF
0C03FE
ENDCHAR
STARTCHAR C2257
ENCODING 8791
SWIDTH 400 0
DWIDTH 24 0
BBX 24 24 0 -2
BITMAP
0E0000
0E000C
0C0FFC
0C8300
4DC300
FFC300
ECC300
ECC707
ECDFFF
ECC600
ECC600
ECCE0E
ECCFFF
ECC006
ECC006
ECC006
EDC006
EF800E
4D000C
0C000C
0C001C
0C03F8
0C00F0
0C0060
ENDCHAR
STARTCHAR C2258
ENCODING 8792
SWIDTH 400 0
DWIDTH 24 0
BBX 24 24 0 -2
BITMAP
0E01C0
0E01C0
0C01C0
0C81C0
4DC1C0
FFC1C0
ECC1C2
ECFFFF
ECC1C0
ECC1C0
ECC1C0
ECC1C0
ECC1E0
ECC360
ECC320
ECC330
EDC330
EF8638
4D0E18
0C0C0C
0C1C0E
0C380F
0C7007
0CC000
ENDCHAR
STARTCHAR C2259
ENCODING 8793
SWIDTH 400 0
DWIDTH 24 0
BBX 24 24 0 -2
BITMAP
0E0E00
0E0E00
0C0E00
0C8E00
4DCC07
FFCFFF
ECC807
ECD807
ECD007
ECE007
ECC307
ECC187
ECC1C7
ECC0C7
ECC007
ECC007
EDC007
EF8007
4D0006
0C0006
0C000E
0C01FC
0C0078
0C0030
ENDCHAR
STARTCHAR C225a
ENCODING 8794
SWIDTH 400 0
DWIDTH 24 0
BBX 24 24 0 -2
BITMAP
0E001E
0E007E
0C0FE0
0C8C40
4DCC40
FFCC40
ECCC40
ECCC40
ECCC40
ECCC40
ECCC40
ECCC60
ECCC60
ECCC60
ECCC20
ECCC30
EDCC30
EF8C38
4D0C18
0C0C4C
0C0D8E
0C0F0F
0C0E07
0C0600
ENDCHAR
STARTCHAR C225b
ENCODING 8795
SWIDTH 400 0
DWIDTH 24 0
BBX 24 24 0 -2
BITMAP
0E0000
0E000E
0C001C
0C8030
4DC060
FFC180
ECC700
ECD800
ECC00E
ECC01E
ECC038
ECC070
ECC0C0
ECC300
ECDE00
ECC007
EDC00F
EF801C
4D0038
0C0060
0C00C0
0C0180
0C0600
0C3800
ENDCHAR
STARTCHAR C225c
ENCODING 8796
SWIDTH 400 0
DWIDTH 24 0
BBX 24 24 0 -2
BITMAP
001800
001800
001830
3FFFF8
001838
001838
FFFFFF
003838
001838
001838
3FFFF0
001800
001800
303838
3FFFFC
301818
301818
301818
301818
301818
301818
3018F8
301810
001000
ENDCHAR
STARTCHAR C225d
ENCODING 8797
SWIDTH 400 0
DWIDTH 24 0
BBX 24 24 0 -2
BITMAP
001800
000C00
300C06
3FFFFF
300200
310380
31C300
318300
31830C
3183FE
31FF0E
37830C
31830C
31830C
318308
318318
318310
618300
618201
618003
618002
C1FFFE
80FFFE
007FFC
ENDCHAR
STARTCHAR C225e
ENCODING 8798
SWIDTH 400 0
DWIDTH 24 0
BBX 24 24 0 -2
BITMAP
001800
000C00
300C06
3FFFFF
302000
307000
307070
306070
306062
3FFFFF
30E070
30C060
31C060
318060
3380C0
33C1C0
327980
600F80
6007E0
600C78
60303C
C0E00E
838007
1E0003
ENDCHAR
STARTCHAR C225f
ENCODING 8799
SWIDTH 400 0
DWIDTH 24 0
BBX 24 24 0 -2
BITMAP
0200E0
0700E0
FF80C0
0300C0
0310C7
031FFF
0318C7
7F18C7
6218C7
6018C7
6018C7
E318C7
FF98C7
0398C7
0398C7
0398C7
0398C7
0398C7
0398DF
0318C6
0710C4
FE00C0
3C00C0
1800C0
ENDCHAR
STARTCHAR C2260
ENCODING 8800
SWIDTH 400 0
DWIDTH 24 0
BBX 24 24 0 -2
BITMAP
020300
070300
FF8300
030300
030300
030318
033FFC
7F0318
620318
600318
602318
E33B18
FF9F18
038F18
038618
038618
038618
038E18
038C18
030819
071819
FE301F
3C600F
18C006
ENDCHAR
STARTCHAR C2261
ENCODING 8801
SWIDTH 400 0
DWIDTH 24 0
BBX 24 24 0 -2
BITMAP
060300
060300
0C0318
0C030C
18030C
300304
638300
438707
077FFF
060300
0C0300
1C0300
1C0300
3C0180
6C0180
CC01C0
0C00C0
0C00E0
0C0061
0C0071
0C003B
0C001F
0C000F
0C0007
ENDCHAR
STARTCHAR C2262
ENCODING 8802
SWIDTH 400 0
DWIDTH 24 0
BBX 24 24 0 -2
BITMAP
060700
060700
0C0600
0C0600
180600
300610
63BFF8
43861C
070618
060618
0C3618
1C0E18
1C0718
3C07D8
6C06D8
CC0E58
0C0C18
0C1C18
0C1818
0C1819
0C3019
0C601F
0CC00F
0F8006
ENDCHAR
STARTCHAR C2263
ENCODING 8803
SWIDTH 400 0
DWIDTH 24 0
BBX 24 24 0 -2
BITMAP
1C0000
1C000C
1C1FFC
1C01C0
1C01C0
1C01C0
3E01C0
7F01C0
7F81C2
DD7FFF
DC01C0
9C01C0
1C01C0
1C01C0
1C01C0
1C01C0
1C01C0
1C01C0
1C01C0
1C01C0
1C01C0
1C1FC0
1C0780
180300
ENDCHAR
STARTCHAR C2264
ENCODING 8804
SWIDTH 400 0
DWIDTH 24 0
BBX 24 24 0 -2
BITMAP
1C0000
1C0004
1C3FFE
1C01C0
1C01C0
1C01C0
3E01C0
7F01C0
7F81C0
DD01C0
DC01C0
9C01C0
1C01C0
1C01C0
1C01C0
1C01C0
1C01C0
1C01C0
1C01C0
1C01C0
1C01C2
1C7FFF
1C0000
180000
ENDCHAR
STARTCHAR C2265
ENCODING 8805
SWIDTH 400 0
DWIDTH 24 0
BBX 24 24 0 -2
BITMAP
1C0380
1C0380
1C0318
1C030C
1C030C
1C0304
3E0302
7F7FFF
7F8300
DD0300
DC0300
9C0300
1C0180
1C0180
1C0180
1C01C0
1C00C0
1C00E0
1C0061
1C0071
1C003B
1C001F
1C000F
180007
ENDCHAR
STARTCHAR C2266
ENCODING 8806
SWIDTH 400 0
DWIDTH 24 0
BBX 24 24 0 -2
BITMAP
1C0004
1C000E
1C1FFF
1C0006
1C0006
1C0006
3E0006
7F0006
7F8006
DD1006
DC1FFE
9C1806
1C1804
1C1800
1C1800
1C1800
1C1800
1C1800
1C1801
1C1801
1C1803
1C1FFF
1C1FFF
180FFE
ENDCHAR
STARTCHAR C2267
ENCODING 8807
SWIDTH 400 0
DWIDTH 24 0
BBX 24 24 0 -2
BITMAP
1C0004
1C000E
1C7FFF
1C0006
1C0206
1C130E
3E118C
7F118C
7F980C
DD0818
DC0C18
9C0C30
1C0630
1C0360
1C03C0
1C01C0
1C03C0
1C03E0
1C0670
1C0C38
1C181C
1C300F
1C6007
198003
ENDCHAR
STARTCHAR C2268
ENCODING 8808
SWIDTH 400 0
DWIDTH 24 0
BBX 24 24 0 -2
BITMAP
1C0700
1C0700
1C0600
1C0600
1C0606
1C0FFF
3E0C07
7F0C07
7F9807
DD1A06
DC1306
9C31CE
1C60EC
1CC06C
1C0018
1C0030
1C0060
1C00C0
1C0180
1C0300
1C0600
1C0C00
1C3000
19C000
ENDCHAR
STARTCHAR C2269
ENCODING 8809
SWIDTH 400 0
DWIDTH 24 0
BBX 24 24 0 -2
BITMAP
1C0300
1C0300
1C0300
1C0300
1C031C
1C0618
3E0618
7F0619
7FFFFF
DD0E18
DC0C18
9C0C38
1C1838
1C1830
1C1830
1C3060
1C3E60
1C03C0
1C01E0
1C0338
1C061C
1C0C0E
1C3007
19C003
ENDCHAR
STARTCHAR C226a
ENCODING 8810
SWIDTH 400 0
DWIDTH 24 0
BBX 24 24 0 -2
BITMAP
1C01C8
1C01CC
1801C6
1801C3
1801C0
19C1C2
FFCFFF
18C1C0
18C1C0
18C1C4
18C1C6
18C1C6
18C0C6
30C0CC
30C0CC
30C078
30C870
30D870
60D8F1
60F9F9
40739F
C0070F
800E07
003803
ENDCHAR
STARTCHAR C226b
ENCODING 8811
SWIDTH 400 0
DWIDTH 24 0
BBX 24 24 0 -2
BITMAP
1C01C0
1C01C0
1C01C0
1C01C0
1C01C0
1D01C0
FF31C7
1C31C7
1C31C6
1C31C6
1C31C6
1F31C6
1C31C6
FC31C6
FC31C6
5C31C6
1C31C6
1C31C6
1C31C6
1C31C6
1C31C6
FC3FFE
383006
300004
ENDCHAR
STARTCHAR C226c
ENCODING 8812
SWIDTH 400 0
DWIDTH 24 0
BBX 24 24 0 -2
BITMAP
002007
01F007
1FF006
7301C6
0301C6
030186
030186
031986
7FF986
030186
030186
030186
030186
031986
FFF986
030186
030186
030186
030006
030006
030006
3F007E
1E003C
040008
ENDCHAR
STARTCHAR C226d
ENCODING 8813
SWIDTH 400 0
DWIDTH 24 0
BBX 24 24 0 -2
BITMAP
0E0004
0E000E
0C1FFF
0C001C
0C0038
0C8060
FFC0C0
0C00C0
0C00C0
0C10C0
0C08C0
0F86C0
3E03C0
FC01C0
EC00E0
4C00FC
0C00DF
0C00CF
0C00C2
0C00C0
0C00C0
FC0FC0
3C03C0
180180
ENDCHAR
STARTCHAR C226e
ENCODING 8814
SWIDTH 400 0
DWIDTH 24 0
BBX 24 24 0 -2
BITMAP
1C0000
1C000C
1C1FFC
1C0600
1C0600
1D0E00
FF0E02
1C7FFF
1C0C00
1C0C00
1C1804
1F1FFE
1C1806
FC0006
FC0006
5C0006
1C0006
1C0006
1C0006
1C000E
1C000C
FC07FC
3801F8
300070
ENDCHAR
STARTCHAR C226f
ENCODING 8815
SWIDTH 400 0
DWIDTH 24 0
BBX 24 24 0 -2
BITMAP
1C0000
1C0038
1C7FFC
1C0018
1C0018
1D0018
FF0019
1C0319
1C039F
1C030F
1C0300
1F0300
1C0308
FCFFFC
FC0300
5C0300
1C0300
1C0300
1C0300
1C0300
1C0300
FC0300
380300
300300
ENDCHAR
STARTCHAR C2270
ENCODING 8816
SWIDTH 400 0
DWIDTH 24 0
BBX 24 24 0 -2
BITMAP
1C0038
1C0038
1C0038
1C0038
1C0038
1D003A
FF3FFF
1C0038
1C0078
1C0078
1C00F8
1F00F8
1C01B8
FC0338
FC0338
5C0638
1C0C38
1C1838
1C3038
1C6038
1C8038
FC03F8
3800F0
300060
ENDCHAR
STARTCHAR C2271
ENCODING 8817
SWIDTH 400 0
DWIDTH 24 0
BBX 24 24 0 -2
BITMAP
1C01C0
1C01C0
1C01C0
1C01C0
1C01C0
1D01C0
FF01C2
1C7FFF
1C01C0
1C01C0
1C01C0
1F01C0
1C01C0
FC0360
FC0320
5C0730
1C0630
1C0E18
1C0C18
1C180C
1C300E
FC600F
38C007
318003
ENDCHAR
STARTCHAR C2272
ENCODING 8818
SWIDTH 400 0
DWIDTH 24 0
BBX 24 24 0 -2
BITMAP
1C000C
1C007E
1C7FFE
1C7318
1C7318
1D7318
FF7318
1C7318
1C7318
1C7318
1C7318
1F7318
1C7318
FC7318
FC7318
5C730C
1C630C
1C630D
1C630D
1CC30D
1CC307
FCC307
398303
330001
ENDCHAR
STARTCHAR C2273
ENCODING 8819
SWIDTH 400 0
DWIDTH 24 0
BBX 24 24 0 -2
BITMAP
000020
080070
1FFFF8
1C0030
1C0030
1FFFF0
1C0030
1C0030
1C0030
1FFFF0
000000
000006
FFFFFF
001800
001800
001800
001800
001800
001800
001800
001800
01F800
007800
003000
ENDCHAR
STARTCHAR C2274
ENCODING 8820
SWIDTH 400 0
DWIDTH 24 0
BBX 24 24 0 -2
BITMAP
001800
001800
001802
FFFFFF
003800
001800
001830
1FFFF0
1C1830
181860
181860
18184C
3FFFFC
00380C
007C0C
00DB3C
019998
0318E0
061878
0C183F
38181F
E0180C
001800
001000
ENDCHAR
STARTCHAR C2275
ENCODING 8821
SWIDTH 400 0
DWIDTH 24 0
BBX 24 24 0 -2
BITMAP
060004
06000E
061FFF
06001C
064038
FFE060
0600C0
0600C0
0E00C0
0F00C0
1F80C0
1FC0C0
1EC0C0
36C0C0
2640C0
6600C0
4600C0
C600C0
8600C0
0600C0
0600C0
060FC0
0603C0
040180
ENDCHAR
STARTCHAR C2276
ENCODING 8822
SWIDTH 400 0
DWIDTH 24 0
BBX 24 24 0 -2
BITMAP
038700
038700
030600
032600
03F600
030600
1B0600
1B4600
1FE600
186600
306600
30C600
30C600
7CC600
4F8600
878600
030600
030600
060601
040601
0C0603
1807FF
3003FF
6001FE
ENDCHAR
STARTCHAR C2277
ENCODING 8823
SWIDTH 400 0
DWIDTH 24 0
BBX 24 24 0 -2
BITMAP
0001C0
4701C0
661DC0
3C19C0
1819C0
3C19C0
6C19C6
C619FE
86FFCE
0619CC
0619CC
0F19CC
1B19CC
1319C8
2319D8
4319D8
8319C0
031980
031801
071801
061803
7E1FFF
3C1FFF
180FFE
ENDCHAR
STARTCHAR C2278
ENCODING 8824
SWIDTH 400 0
DWIDTH 24 0
BBX 24 24 0 -2
BITMAP
000008
238E1C
130FFC
0E0E18
0C0E18
0E0E30
160E20
230E60
430E20
038E10
038E08
078E0C
0F8E0C
0D8E06
198E06
318E06
618E0E
018E0C
018FFC
018E38
038E00
3F0E00
1E0E00
040C00
ENDCHAR
STARTCHAR C2279
ENCODING 8825
SWIDTH 400 0
DWIDTH 24 0
BBX 24 24 0 -2
BITMAP
000000
470038
663FFC
3C0018
180618
3C1318
6C1338
C61138
861930
061830
060860
0F0C60
1B0C60
1306C0
2306C0
430380
830380
0303C0
0306C0
070C70
06183C
7E301F
3C6006
198000
ENDCHAR
STARTCHAR C227a
ENCODING 8826
SWIDTH 400 0
DWIDTH 24 0
BBX 24 24 0 -2
BITMAP
000020
473070
663FF8
3C3030
183030
3C3030
6C3030
C63030
863630
063330
0633B0
0F31B0
1B30B0
133030
233030
433030
833030
033030
037030
076031
066031
7EC03F
3C803F
19000E
ENDCHAR
STARTCHAR C227b
ENCODING 8827
SWIDTH 400 0
DWIDTH 24 0
BBX 24 24 0 -2
BITMAP
000020
470070
667FF8
3C0C30
180C30
3C0C30
6C0C30
C60C30
860C30
060C30
060DB0
0F7FB0
1B0C30
130C30
230C30
430C30
830C30
030C30
030C33
070C3A
060C1E
7E0C1E
3C0C0E
180C06
ENDCHAR
STARTCHAR C227c
ENCODING 8828
SWIDTH 400 0
DWIDTH 24 0
BBX 24 24 0 -2
BITMAP
001800
000C00
180606
1FFFFF
180000
980000
D80030
79FFF0
780070
1800E0
180180
180300
380600
780C00
D81800
583000
306001
30C003
318002
318006
63800E
61FFFF
C0FFFE
800000
ENDCHAR
STARTCHAR C227d
ENCODING 8829
SWIDTH 400 0
DWIDTH 24 0
BBX 24 24 0 -2
BITMAP
001C00
031C00
7F9800
639800
639800
639800
639800
639800
7F9800
639800
639800
639800
639800
7F9800
639800
639800
639800
639800
639801
7F9803
631802
401FFE
000FFE
0007FC
ENDCHAR
STARTCHAR C227e
ENCODING 8830
SWIDTH 400 0
DWIDTH 24 0
BBX 24 24 0 -2
BITMAP
000E00
008E00
FFCC00
1C0C00
1C0C00
180C00
180C00
300C00
310C00
3F8C00
79CC00
718C00
F18C00
B18C00
318C00
318C00
318C00
318C00
3F8C01
398C01
300C03
300FFF
000FFF
0003FE
ENDCHAR
STARTCHAR C2321
ENCODING 8993
SWIDTH 400 0
DWIDTH 24 0
BBX 24 24 0 -2
BITMAP
0001E0
001FF0
07FE00
3E1800
001800
001810
1FFFF8
003800
001800
001800
001806
FFFFFF
003800
007C00
00FE00
01DB00
0399C0
0718F0
0E183F
1C180F
701807
C01800
001800
001000
ENDCHAR
STARTCHAR C2322
ENCODING 8994
SWIDTH 400 0
DWIDTH 24 0
BBX 24 24 0 -2
BITMAP
0201C0
2701C0
3F81C0
3301C0
3301C0
3339C0
3339C0
3B31C0
3F31C0
3731C0
3331C0
3331C0
3331C0
3F31CC
3B3FFE
7321C0
6301C0
6301C0
6301C0
E301C1
C301C1
DF01FF
8E00FF
04007E
ENDCHAR
STARTCHAR C2323
ENCODING 8995
SWIDTH 400 0
DWIDTH 24 0
BBX 24 24 0 -2
BITMAP
001C00
639C00
7F9800
639800
639800
639800
739800
6F9800
679800
639818
639FFC
639800
639800
679800
7F9800
6B9800
639800
639801
639803
639802
E39806
DF9FFF
870FFE
8607F8
ENDCHAR
STARTCHAR C2324
ENCODING 8996
SWIDTH 400 0
DWIDTH 24 0
BBX 24 24 0 -2
BITMAP
020400
670600
7F8200
630300
630300
630100
730380
7F0380
6F03C0
6303C0
6302C0
6306C0
630660
6F0660
7B0E60
630C60
630C30
631830
631838
631018
E3301C
DF600F
8E400F
848006
ENDCHAR
STARTCHAR C2325
ENCODING 8997
SWIDTH 400 0
DWIDTH 24 0
BBX 24 24 0 -2
BITMAP
020100
670180
7F80C0
6300C0
6300C0
630E40
730C40
7F0C60
6F0C60
630C60
630C60
631C20
631830
6F1830
7B1830
631838
631818
633018
633018
63600C
E3600C
DF400F
8EC007
858000
ENDCHAR
STARTCHAR C2326
ENCODING 8998
SWIDTH 400 0
DWIDTH 24 0
BBX 24 24 0 -2
BITMAP
0600C0
0600C0
0660C2
FFE7FF
0600C0
0600C0
000300
000380
000600
000C00
001800
003800
007800
00D800
031800
061800
001800
001800
001800
001800
001800
001800
001800
001000
ENDCHAR
STARTCHAR C2327
ENCODING 8999
SWIDTH 400 0
DWIDTH 24 0
BBX 24 24 0 -2
BITMAP
006000
003000
001802
FFFFFF
000000
000000
000000
000060
07FFE0
000000
000000
000060
0FFFF0
000000
000000
000030
0FFFF0
0C0030
0C0030
0C0030
0C0030
0C03F0
0C01F0
0C0060
ENDCHAR
STARTCHAR C2328
ENCODING 9000
SWIDTH 400 0
DWIDTH 24 0
BBX 24 24 0 -2
BITMAP
006000
003000
001802
FFFFFF
000000
000000
000000
000060
07FFE0
000000
000000
000060
0FFFF0
000000
000000
000020
0E0038
0C0030
0C0030
0C0030
0C0030
0C0030
0FFFF0
0C0030
ENDCHAR
STARTCHAR C2329
ENCODING 9001
SWIDTH 400 0
DWIDTH 24 0
BBX 24 24 0 -2
BITMAP
000E00
000E00
001C00
003800
007000
00E000
01B018
06183C
1C3C70
706CE0
00CF80
018600
070E00
1C1F00
703780
0066C0
00C660
018638
06061F
38060F
E00E03
03FC00
007800
003000
ENDCHAR
STARTCHAR C232a
ENCODING 9002
SWIDTH 400 0
DWIDTH 24 0
BBX 24 24 0 -2
BITMAP
00E104
00E18E
00C1FF
00C18C
00C18C
00C998
FFFD90
00E1B0
00C1B0
00C198
10C18C
18C184
0CC186
0CC186
04C187
00C187
00C187
00C1FE
00C19E
00C18C
00C180
0FC180
03C180
018180
ENDCHAR
STARTCHAR C232b
ENCODING 9003
SWIDTH 400 0
DWIDTH 24 0
BBX 24 24 0 -2
BITMAP
000000
07830C
0703FE
06030C
060318
060318
3FE330
070320
060320
060310
060308
06030C
06030C
060306
060306
060306
060306
07F3FE
1F833C
7C0318
700300
200300
000300
000300
ENDCHAR
STARTCHAR C232c
ENCODING 9004
SWIDTH 400 0
DWIDTH 24 0
BBX 24 24 0 -2
BITMAP
000000
00030C
0003FE
60630C
7FE318
606318
606330
606320
606320
606310
606308
60630C
60630C
606306
606306
606306
606306
7FE3FE
60433C
600318
000300
000300
000300
000300
ENDCHAR
STARTCHAR C232d
ENCODING 9005
SWIDTH 400 0
DWIDTH 24 0
BBX 24 24 0 -2
BITMAP
100000
1871C7
1FF1FF
1871C6
1871CC
1871CC
1871D8
1871D0
1A71D0
1B71C8
19F1C4
19F1C6
18F1C7
1871C3
1871C3
1871C3
1871C3
3073FF
3075DE
3079CC
2079C0
6039C0
4011C0
C00180
ENDCHAR
STARTCHAR C232e
ENCODING 9006
SWIDTH 400 0
DWIDTH 24 0
BBX 24 24 0 -2
BITMAP
020000
E70000
FF8000
E33FFE
E601C0
E601C0
E401C0
EC01C0
EC01C0
E401C0
E601C0
E301C0
E301C0
E381C0
E381C0
E381C0
E381C0
FF01C0
E601C0
E001C0
E001C2
E0FFFF
E00000
C00000
ENDCHAR
STARTCHAR C232f
ENCODING 9007
SWIDTH 400 0
DWIDTH 24 0
BBX 24 24 0 -2
BITMAP
000000
000007
FFFFFF
000200
03C380
038300
038300
038300
3B8300
338300
339304
33FBFE
338300
338300
338300
338300
338300
338301
338301
33BB01
37C303
FE03FF
E001FF
200000
ENDCHAR
STARTCHAR C2330
ENCODING 9008
SWIDTH 400 0
DWIDTH 24 0
BBX 24 24 0 -2
BITMAP
0E0000
0E0002
0E1FFF
1F0060
198060
38C060
30C060
300060
7F8060
C00060
800060
01C060
7FC060
018060
018060
030060
320060
1C0060
0C0060
060060
030060
038FE0
0103C0
000180
ENDCHAR
STARTCHAR C2331
ENCODING 9009
SWIDTH 400 0
DWIDTH 24 0
BBX 24 24 0 -2
BITMAP
003000
001800
001806
FFFFFF
000000
000004
7FFFFE
003800
001800
001800
303838
3FFFFC
303818
303C18
306718
30C398
3181D8
3300D8
360018
300018
300018
3001F8
300078
300030
ENDCHAR
STARTCHAR C2332
ENCODING 9010
SWIDTH 400 0
DWIDTH 24 0
BBX 24 24 0 -2
BITMAP
0701C0
0701C8
0601C6
0601C6
0CC1C0
0CFFFF
1CC1C0
1CC1C0
3CC1C0
7CC1CE
7CC1CE
DCC1CC
1CC0CC
1CC0CC
1CC0D8
1CC078
1CC070
1CC270
1CCC71
1CF8F9
1C619F
1C230F
1C0E07
183803
ENDCHAR
STARTCHAR C2333
ENCODING 9011
SWIDTH 400 0
DWIDTH 24 0
BBX 24 24 0 -2
BITMAP
0E0004
0E000E
0CFFFF
1C0006
180606
187306
306186
30C0E6
70807E
71FFF6
F238C6
B018C6
3018C6
3018C6
3030C6
3070C6
3061C6
30DF86
318306
360206
30000E
3001FC
300078
300030
ENDCHAR
STARTCHAR C2334
ENCODING 9012
SWIDTH 400 0
DWIDTH 24 0
BBX 24 24 0 -2
BITMAP
0701C0
0701C0
060180
06718E
0C718E
0C718C
1C718C
1C718C
3C718C
7C718C
7C718C
DC7FFC
1C018C
1C0180
1CC182
1CE187
1CC187
1CC187
1CC187
1CC187
1CC187
1CC187
1CFFFF
180006
ENDCHAR
STARTCHAR C2335
ENCODING 9013
SWIDTH 400 0
DWIDTH 24 0
BBX 24 24 0 -2
BITMAP
001800
001800
001800
001818
3FFFFC
001800
0C1860
061860
0318C0
031880
031900
001806
FFFFFF
018300
018300
038300
030300
030300
060301
060301
0C0303
1803FF
3001FF
E000FE
ENDCHAR
STARTCHAR C2336
ENCODING 9014
SWIDTH 400 0
DWIDTH 24 0
BBX 24 24 0 -2
BITMAP
00E000
003000
003C00
006600
00C300
0181E0
0300F8
06003F
1C000F
FFFFF2
000000
000000
000030
1FFFF8
1C0038
1C0038
1C0038
1FFFF8
1C0038
1C0038
1C0038
1FFFF8
1C0030
180000
ENDCHAR
STARTCHAR C2337
ENCODING 9015
SWIDTH 400 0
DWIDTH 24 0
BBX 24 24 0 -2
BITMAP
00E000
003000
003C00
006600
00C300
0181E0
0300F8
06103F
1C1C0F
FE1872
0E1870
0C1860
0C1860
0C1860
0FFFE0
081860
001800
1C183C
181838
181838
181838
181838
3FFFF8
100030
ENDCHAR
STARTCHAR C2338
ENCODING 9016
SWIDTH 400 0
DWIDTH 24 0
BBX 24 24 0 -2
BITMAP
00E000
003000
003C00
006600
00C300
0181E0
0300F8
0601FF
1CFFEF
F7D842
001860
0318C0
019980
019900
00980C
7FFFFE
001800
001800
001800
001800
001800
03F800
007800
003000
ENDCHAR
STARTCHAR C2339
ENCODING 9017
SWIDTH 400 0
DWIDTH 24 0
BBX 24 24 0 -2
BITMAP
00C200
01C100
0180C0
030078
06003E
0C000E
300002
00C300
01C180
0380E0
060078
0C003F
18000F
600062
87FFF0
060070
060060
060060
060060
060060
060060
07FFE0
060060
040000
ENDCHAR
STARTCHAR C233a
ENCODING 9018
SWIDTH 400 0
DWIDTH 24 0
BBX 24 24 0 -2
BITMAP
001800
101810
1C1838
181838
181838
3FFFF8
101810
001806
FFFFFF
000000
000018
3FFFFC
30001C
300018
300018
300098
37FFD8
300018
300018
300018
300018
3001F8
300078
300030
ENDCHAR
STARTCHAR C233b
ENCODING 9019
SWIDTH 400 0
DWIDTH 24 0
BBX 24 24 0 -2
BITMAP
000000
00C007
60FFFF
30C007
38C007
18C007
02C067
02CFF7
06CE77
06CE67
04CE67
0CCE67
18CE67
18CE67
30CFE7
F0CC67
F0C007
60C007
30C007
30C007
30C007
30C07F
30C01E
00C00C
ENDCHAR
STARTCHAR C233c
ENCODING 9020
SWIDTH 400 0
DWIDTH 24 0
BBX 24 24 0 -2
BITMAP
060060
0600E0
0C00C0
088180
10C308
21E63C
FE7FE6
602E06
200000
0000C0
07FFE0
0600C0
0600C0
0600C0
0620C0
0610C0
0618C0
0608C0
0600C1
0C00C1
0C00C3
1800FF
30007F
E0003E
ENDCHAR
STARTCHAR C233d
ENCODING 9021
SWIDTH 400 0
DWIDTH 24 0
BBX 24 24 0 -2
BITMAP
040007
020007
030006
0180E6
010CE6
FFFCC6
0300C6
0600C6
0600C6
0C30C6
1830C6
3060C6
38C0C6
1DC0C6
0780C6
0300C6
0600C6
0C20C6
183006
301806
61FC06
FF0E7E
60063C
200008
ENDCHAR
STARTCHAR C233e
ENCODING 9022
SWIDTH 400 0
DWIDTH 24 0
BBX 24 24 0 -2
BITMAP
000007
001807
FFF806
0300E6
0300E6
0300C6
0318C6
FFFCC6
E31CC6
E318C6
E798C6
E6D8C6
EEF8C6
EC78C6
F878C6
F018C6
E018C6
E018C6
E01806
E01806
E01806
E1F87E
E0783C
C03008
ENDCHAR
STARTCHAR C233f
ENCODING 9023
SWIDTH 400 0
DWIDTH 24 0
BBX 24 24 0 -2
BITMAP
0E0007
0E0007
0C1806
FFFCE6
1860E6
1830C6
3018C6
201CC6
400CC6
8030C6
7FF8C6
1C70C6
1C60C6
1C60C6
1C7CC6
1C0CC6
180CC6
180CC6
180C06
300C06
301C06
63F87E
60F03C
C06008
ENDCHAR
STARTCHAR C2340
ENCODING 9024
SWIDTH 400 0
DWIDTH 24 0
BBX 24 24 0 -2
BITMAP
000007
001807
FFF806
0301C6
0601C6
0E0186
190186
318186
63C186
C3C186
066186
0C6186
18F186
31F186
E37186
067186
0C7186
187186
307006
C06006
00E006
1FC07E
07803C
030008
ENDCHAR
STARTCHAR C2341
ENCODING 9025
SWIDTH 400 0
DWIDTH 24 0
BBX 24 24 0 -2
BITMAP
003007
7FF807
307006
1860E6
1CC0E6
0F80C6
0780C6
07C0C6
0CFCC6
183CC6
620CC6
8380C6
0300C6
4318C6
FFFCC6
E318C6
E318C6
E318C6
E31806
E31806
E3F806
C3187E
03003C
030008
ENDCHAR
STARTCHAR C2342
ENCODING 9026
SWIDTH 400 0
DWIDTH 24 0
BBX 24 24 0 -2
BITMAP
0CE007
0CE007
0CC006
0CC0E6
0CC0E6
0CC0C6
0CC0C6
0CC0C6
FCFCC6
0CC0C6
0CC0C6
0CC0C6
0CC0C6
0CC0C6
0CC0C6
0CC0C6
0CC0C6
0CC0C6
0CC206
0CC606
1CE406
FCFE7E
CC7C3C
000008
ENDCHAR
STARTCHAR C2343
ENCODING 9027
SWIDTH 400 0
DWIDTH 24 0
BBX 24 24 0 -2
BITMAP
070007
473007
E63806
E631C6
E631C6
E631C6
FFF1C6
C031C6
0001C6
0031C6
7FF9C6
1831C6
1831C6
1831C6
1831C6
1831C6
1831C6
303186
303006
303006
207006
67E07E
C3C03C
808008
ENDCHAR
STARTCHAR C2344
ENCODING 9028
SWIDTH 400 0
DWIDTH 24 0
BBX 24 24 0 -2
BITMAP
03E00C
1FE00C
76038C
06038C
06030C
06030C
06230C
FFF30C
06030C
06030C
06030C
0F030C
0F830C
0F830C
0FE30C
1FB00C
1B900C
1B80FC
1B8079
338011
338003
63FFFF
61FFFF
C0FFFE
ENDCHAR
STARTCHAR C2345
ENCODING 9029
SWIDTH 400 0
DWIDTH 24 0
BBX 24 24 0 -2
BITMAP
038007
038007
033006
07F9C6
FF01C6
E301C6
E301C6
E301C6
E301C6
E301C6
E319C6
FFFDC6
0719C6
0719C6
0F19C6
1F19C6
1B19C6
331986
33F806
633006
C30006
83007E
03003C
030008
ENDCHAR
STARTCHAR C2346
ENCODING 9030
SWIDTH 400 0
DWIDTH 24 0
BBX 24 24 0 -2
BITMAP
0C0007
1E0007
F0CC06
E6FEE6
E6CEE6
E6CEC6
E6CEC6
E6CEC6
E6CEC6
E6CEC6
E6CEC6
E6CEC6
E6CEC6
EECEC6
FECEC6
F6CEC6
ECCEC6
6CFEC6
1CDC06
18D806
30C006
30C07E
60C03C
C0C008
ENDCHAR
STARTCHAR C2347
ENCODING 9031
SWIDTH 400 0
DWIDTH 24 0
BBX 24 24 0 -2
BITMAP
0701C0
0701C0
0601C0
0601C0
6771C0
7FF1C2
6667FF
6601C7
6601C7
6641C7
67E1C7
7FF1C7
7061C7
786187
6EC187
67C187
638307
E3C307
C6E307
8C6607
983606
300CFE
C0183C
003018
ENDCHAR
STARTCHAR C2348
ENCODING 9032
SWIDTH 400 0
DWIDTH 24 0
BBX 24 24 0 -2
BITMAP
1C0000
1C0000
1C0004
1FFFFE
184006
186006
303006
3030C6
67FFC6
C03806
006006
018386
038706
00DC06
007006
006206
018106
070F86
0FFCCE
07004C
02000C
0003FC
0001F8
000070
ENDCHAR
STARTCHAR C2349
ENCODING 9033
SWIDTH 400 0
DWIDTH 24 0
BBX 24 24 0 -2
BITMAP
1C0000
1C0000
1C0004
1FFFFE
182006
183806
303806
303106
67FF86
C03006
003006
003006
0FFFC6
00E006
00C006
018306
030186
0607C6
0FFC6E
06006C
00000C
0003FC
0001F8
000070
ENDCHAR
STARTCHAR C234a
ENCODING 9034
SWIDTH 400 0
DWIDTH 24 0
BBX 24 24 0 -2
BITMAP
038000
038040
03FFE0
0300E0
0600C0
040180
080100
003200
201804
3FFFFE
200006
60000C
C60008
060000
0600F0
060FF0
067800
078000
060004
06000C
060008
07FFF8
07FFFC
03FFF8
ENDCHAR
STARTCHAR C234b
ENCODING 9035
SWIDTH 400 0
DWIDTH 24 0
BBX 24 24 0 -2
BITMAP
000004
60000E
7FFFFE
600000
600000
600010
67FFF8
600C00
600C00
600C00
600C20
63FFF0
600C00
600C00
600CE0
600C60
600C20
600C18
6FFFFC
600000
600000
600006
7FFFFF
000000
ENDCHAR
STARTCHAR C234c
ENCODING 9036
SWIDTH 400 0
DWIDTH 24 0
BBX 24 24 0 -2
BITMAP
000004
00000E
FFFFFE
607000
60F808
6783FC
66030C
663B0C
66330C
66330C
66330C
66330C
66F30C
67B30C
67331C
626378
606310
60C300
618300
660300
700000
3FFFFF
1FFFFF
000000
ENDCHAR
STARTCHAR C234d
ENCODING 9037
SWIDTH 400 0
DWIDTH 24 0
BBX 24 24 0 -2
BITMAP
0700E0
0700E0
0600C0
0600C4
7FFFFE
061CC0
0618C0
0618C4
7FFFFE
0618C0
0618C0
0618C0
0618C6
FFFFFF
001800
001800
001808
3FFFFC
001800
001800
001800
001800
001800
001000
ENDCHAR
STARTCHAR C234e
ENCODING 9038
SWIDTH 400 0
DWIDTH 24 0
BBX 24 24 0 -2
BITMAP
007000
007000
007000
007030
007FF8
007000
007000
007006
FFFFFF
000000
040030
07FFF8
060030
060030
060030
07FFF0
063000
0C1800
0C0E00
080700
1801E0
1000FF
20003F
40000F
ENDCHAR
STARTCHAR C234f
ENCODING 9039
SWIDTH 400 0
DWIDTH 24 0
BBX 24 24 0 -2
BITMAP
001800
001800
00180C
001FFE
001800
001800
201818
3FFFFC
30000C
30180C
30180C
30180C
30180C
30380C
30340C
30660C
30C30C
3181EC
3300EC
3C006C
30000C
3FFFFC
30001C
200008
ENDCHAR
STARTCHAR C2350
ENCODING 9040
SWIDTH 400 0
DWIDTH 24 0
BBX 24 24 0 -2
BITMAP
200000
300007
3FFFFF
307000
307000
306070
307FF8
30C070
30E060
3130C0
321980
300F00
300700
300DC0
3038F8
30643F
21830F
6E0182
6000C0
601800
400700
C00380
8001C0
0000C0
ENDCHAR
STARTCHAR C2351
ENCODING 9041
SWIDTH 400 0
DWIDTH 24 0
BBX 24 24 0 -2
BITMAP
001C00
0E1C38
0C1838
0FFFF8
0C1C30
101808
18180C
18180C
3FFFFC
100008
000006
7FFFFF
600000
600000
600000
600000
600000
600000
600000
600000
600000
C00000
C00000
800000
ENDCHAR
STARTCHAR C2352
ENCODING 9042
SWIDTH 400 0
DWIDTH 24 0
BBX 24 24 0 -2
BITMAP
060004
06100E
F61DFF
E63886
E63086
E66086
E666C6
E6C6CC
E68E4C
E78C4C
E6D84C
E67878
E63878
FE3038
F67838
6E6430
0CC678
0DFF78
1DE3EC
18C0CC
380186
300107
600203
C00400
ENDCHAR
STARTCHAR C2353
ENCODING 9043
SWIDTH 400 0
DWIDTH 24 0
BBX 24 24 0 -2
BITMAP
000030
3FFFF0
000030
000030
000030
100030
1FFFF0
180000
300008
3FFFFC
30001C
00000C
1FFF8C
00000C
08030C
1FFF8C
1C030C
1C030C
1FFF1C
1C0318
000038
000FF0
0001E0
0000C0
ENDCHAR
STARTCHAR C2354
ENCODING 9044
SWIDTH 400 0
DWIDTH 24 0
BBX 24 24 0 -2
BITMAP
000000
000007
007FFF
C67338
FF7338
E77338
E67338
E67338
E67338
E67338
E67338
E67338
E67338
E67638
E6763E
E67C1F
E67800
FE7000
E67000
407000
007000
003FFF
001FFF
000000
ENDCHAR
STARTCHAR C2355
ENCODING 9045
SWIDTH 400 0
DWIDTH 24 0
BBX 24 24 0 -2
BITMAP
000000
000007
007FFF
C60380
FF0300
E70600
E60600
E60C1C
E61C18
E63830
E63830
E61C60
E607E0
E601C0
E60180
E60380
E60300
FE0618
E60C0C
401806
00307F
007FE3
007003
001001
ENDCHAR
STARTCHAR C2356
ENCODING 9046
SWIDTH 400 0
DWIDTH 24 0
BBX 24 24 0 -2
BITMAP
000000
001004
001FFE
C31806
FF1806
E31806
E31806
E31806
E31806
E31806
E31806
E31FFE
E31806
E31806
E31806
E31806
E31806
FF1806
E21806
401806
001FFE
001806
001804
001000
ENDCHAR
STARTCHAR C2357
ENCODING 9047
SWIDTH 400 0
DWIDTH 24 0
BBX 24 24 0 -2
BITMAP
000000
000038
007FFC
C60030
FF0020
E70C40
E60780
E60380
E60186
E6FFFF
E60186
E6018C
E60188
E60180
E60180
E60180
E60180
FE0180
E60180
400180
000180
001F80
000F00
000200
ENDCHAR
STARTCHAR C2358
ENCODING 9048
SWIDTH 400 0
DWIDTH 24 0
BBX 24 24 0 -2
BITMAP
0001C0
0001C0
0001C0
C601C0
FF11C0
E719CC
E639C6
E631C7
E631C3
E661C3
E641C0
E681C0
E601C0
E601C0
E66180
E63800
E60E00
FE0300
E601C0
4000E0
00003C
00001F
000007
000000
ENDCHAR
STARTCHAR C2359
ENCODING 9049
SWIDTH 400 0
DWIDTH 24 0
BBX 24 24 0 -2
BITMAP
00C000
00C000
00C000
00C006
FFFFFF
018000
0181C0
0181C0
038180
030180
060182
06FFFF
0C0180
180180
300180
E04186
007FFE
006006
006006
006006
006006
006006
007FFE
006006
ENDCHAR
STARTCHAR C235a
ENCODING 9050
SWIDTH 400 0
DWIDTH 24 0
BBX 24 24 0 -2
BITMAP
000000
1C0038
1FFFF8
1C0038
1C0038
1C0038
1C0038
1C0038
1FFFF0
0000C0
000FE0
07FFE0
001800
001810
1FFFF8
001800
001802
FFFFFF
001800
001800
001800
03F800
007800
003000
ENDCHAR
STARTCHAR C235b
ENCODING 9051
SWIDTH 400 0
DWIDTH 24 0
BBX 24 24 0 -2
BITMAP
0003F0
08FFF8
1FF000
1C0000
1C0004
1FFFFE
1C01C0
1C01C0
1C01C0
1C01C0
1801C0
1801C0
1801C0
300180
300010
6FFFF8
CC0038
8C0038
0C0038
0C0038
0C0038
0FFFF8
0C0030
0C0000
ENDCHAR
STARTCHAR C235c
ENCODING 9052
SWIDTH 400 0
DWIDTH 24 0
BBX 24 24 0 -2
BITMAP
000380
000380
000300
C60304
FF03FE
E70300
E60300
E60302
E6FFFF
E60000
E6000C
E63FFE
E6001E
E60038
E600E0
E60380
E60E00
FE1800
E63001
406001
006003
007FFF
007FFF
001FFE
ENDCHAR
STARTCHAR C235d
ENCODING 9053
SWIDTH 400 0
DWIDTH 24 0
BBX 24 24 0 -2
BITMAP
1001C0
1C01C0
180180
180180
180180
180180
FF0182
18FFFF
180180
180180
1803C0
1803C0
180340
180360
180620
180E30
180C30
1E1C38
381818
F0300C
E0330E
406187
00C0C7
038000
ENDCHAR
STARTCHAR C235e
ENCODING 9054
SWIDTH 400 0
DWIDTH 24 0
BBX 24 24 0 -2
BITMAP
000000
300038
3FFFFC
301818
301818
301818
3FFFF8
300000
300004
300004
38000C
1FFFFC
0FFFFC
001000
001C00
001800
003838
1FFFF8
001800
001800
001800
001806
FFFFFF
000000
ENDCHAR
STARTCHAR C235f
ENCODING 9055
SWIDTH 400 0
DWIDTH 24 0
BBX 24 24 0 -2
BITMAP
100000
1C0E00
185E86
1870FF
1860C7
1860C7
FF60C7
1860C7
1860C7
1860C7
1860C7
1860C7
1860C7
1860C7
1860C7
1860C7
1862C7
1E6CC7
3878FE
F070CC
E030C0
4000C0
0000C0
0000C0
ENDCHAR
STARTCHAR C2360
ENCODING 9056
SWIDTH 400 0
DWIDTH 24 0
BBX 24 24 0 -2
BITMAP
00C000
03E40C
3E0FFE
300E0C
300E0C
300E0C
300E0C
300E0C
33CE0C
3F0EFC
380E18
100E00
001400
001C00
001800
001800
003838
1FFFF8
001800
001800
001800
001806
FFFFFF
000000
ENDCHAR
STARTCHAR C2361
ENCODING 9057
SWIDTH 400 0
DWIDTH 24 0
BBX 24 24 0 -2
BITMAP
000070
E07070
FFF060
E00060
E00060
E04062
FFE7FE
F86060
F06060
F86060
E86060
E8E060
ECC060
E4C060
E6C060
E78060
E38077
E38FFF
C78000
C6C000
8C7800
983FFF
300FFF
E003FC
ENDCHAR
STARTCHAR C2362
ENCODING 9058
SWIDTH 400 0
DWIDTH 24 0
BBX 24 24 0 -2
BITMAP
00E000
00E000
01C0E0
03FFE0
0701C0
0D8380
18E700
607C00
003C00
007700
00C1E0
03987F
0E199F
303FC6
CFFFC0
001800
003830
1FFFF0
001800
00380C
7FFFFC
001800
001800
001000
ENDCHAR
STARTCHAR C2363
ENCODING 9059
SWIDTH 400 0
DWIDTH 24 0
BBX 24 24 0 -2
BITMAP
000000
000060
1FFFF0
000060
000060
000062
FFFFFF
030180
070180
0E01FC
1C01FE
30C07E
41C000
138060
0FFFF0
0700E0
0D8180
18E700
303C00
003E00
00E7C0
0381FF
1C007F
F0000F
ENDCHAR
STARTCHAR C2364
ENCODING 9060
SWIDTH 400 0
DWIDTH 24 0
BBX 24 24 0 -2
BITMAP
000030
1FFFF8
001800
003800
00300C
3FFFFC
006600
00C600
018603
070602
0C07FE
30C3FE
C1C000
138060
0FFFF0
0700E0
0D8180
18E700
303C00
003E00
00E7C0
0381FF
1C007F
F0000F
ENDCHAR
STARTCHAR C2365
ENCODING 9061
SWIDTH 400 0
DWIDTH 24 0
BBX 24 24 0 -2
BITMAP
000000
380007
383FFF
301998
311998
339998
FFD998
FB9998
339998
339998
339998
339B98
731B18
631B18
671B1C
E61A1F
3E1E0F
0E1C00
1F1800
139800
21D800
40DFFF
800FFF
000000
ENDCHAR
STARTCHAR C2366
ENCODING 9062
SWIDTH 400 0
DWIDTH 24 0
BBX 24 24 0 -2
BITMAP
001000
381807
381FFF
301800
311800
339B0E
FFDBFF
FB9B06
339B06
339B06
339B06
339B06
731B06
631B06
671B7E
E61B0C
3E1B08
0E3300
1F3301
13B301
206303
4063FF
80C1FF
0180FE
ENDCHAR
STARTCHAR C2367
ENCODING 9063
SWIDTH 400 0
DWIDTH 24 0
BBX 24 24 0 -2
BITMAP
300E00
300E00
300E04
3FEFFE
300E00
300E02
300E02
306E06
3FCFFE
3E07FE
380000
10C000
00C1C0
0181C6
FFFFFF
030180
030300
060300
0F8600
04FC00
003FC0
00E0F8
07003C
7C000C
ENDCHAR
STARTCHAR C2368
ENCODING 9064
SWIDTH 400 0
DWIDTH 24 0
BBX 24 24 0 -2
BITMAP
000004
00C00E
FFCFFF
63001C
630038
630060
6300C0
E300C0
E340C0
FFE0C0
0700C2
073FFF
0700C0
0F00C0
0F00C0
1B00C0
1300C0
3300C0
6300C0
C300C0
8300C0
3F0FC0
1E03C0
040180
ENDCHAR
STARTCHAR C2369
ENCODING 9065
SWIDTH 400 0
DWIDTH 24 0
BBX 24 24 0 -2
BITMAP
000060
0FFFF0
0380E0
00F380
003F00
00F3F0
1F8078
0C0000
0FFFE0
0381C0
00EF00
003C00
00EFC0
0381FF
3E007F
E7FFC6
000380
001E04
7FFFFE
001C00
001800
03F800
007800
003000
ENDCHAR
STARTCHAR C236a
ENCODING 9066
SWIDTH 400 0
DWIDTH 24 0
BBX 24 24 0 -2
BITMAP
060070
0381C0
007700
003FC0
00E0F0
1F8038
000020
060070
03C3C0
00FF00
003C00
00EFE0
0781FF
3C003F
E7FFC6
0001C0
000600
001C04
7FFFFE
001C00
001800
03F800
007800
003000
ENDCHAR
STARTCHAR C236b
ENCODING 9067
SWIDTH 400 0
DWIDTH 24 0
BBX 24 24 0 -2
BITMAP
1C0000
1C0F00
1C0E00
1C0E06
1C0FFF
1C4DB7
FFEDB7
1F99B7
1F91B7
1FA337
1F8367
1F8367
1F8367
1B8667
1B86C7
1B8D86
33990E
33927C
338419
338001
638003
63FFFF
C1FFFF
80FFFE
ENDCHAR
STARTCHAR C236c
ENCODING 9068
SWIDTH 400 0
DWIDTH 24 0
BBX 24 24 0 -2
BITMAP
1C0000
1C001C
1C0418
1C0318
1C0198
1C4198
FFE018
1F8818
1F8618
1F8318
1F8318
1F8018
1F8018
1B9FFF
1B8018
1B8018
338018
338018
338019
338019
638003
63FFFF
C1FFFF
80FFFE
ENDCHAR
STARTCHAR C236d
ENCODING 9069
SWIDTH 400 0
DWIDTH 24 0
BBX 24 24 0 -2
BITMAP
1C0000
1C000C
1C0FFE
1C0E0E
1C0E0C
1C4E0C
FFEE0C
1F8E0C
1F8E0C
1F8FFC
1F8E0C
1F8E0C
1F8E0C
1B8E0C
1B8E0C
1B8E0C
338FFC
338E0C
338401
338001
638003
63FFFF
C1FFFF
80FFFE
ENDCHAR
STARTCHAR C236e
ENCODING 9070
SWIDTH 400 0
DWIDTH 24 0
BBX 24 24 0 -2
BITMAP
1C0000
1C0806
1C0FFE
1C0C00
1C0C00
1C4C0C
FFEFFE
1F8D0E
1F8D0C
1F8D0C
1F8D8C
1F8C98
1F8CF8
1B9870
1B9870
1B98F8
33919C
33A30F
33CE06
339800
638001
63FFFF
C1FFFF
80FFFF
ENDCHAR
STARTCHAR C236f
ENCODING 9071
SWIDTH 400 0
DWIDTH 24 0
BBX 24 24 0 -2
BITMAP
200000
30000C
3FFFFE
30000C
30000C
3FFFFC
30080C
300E60
300C30
300C18
300C16
37FFFE
300C00
301E00
301F00
701B00
603300
603300
606300
40C301
C18303
C703FE
8C03FE
3001FC
ENDCHAR
STARTCHAR C2370
ENCODING 9072
SWIDTH 400 0
DWIDTH 24 0
BBX 24 24 0 -2
BITMAP
00001C
1E001C
1C0418
1C0318
1C0198
5D0198
DDC018
DD8018
DD8818
DD8618
DD8318
DD8318
DD8018
DD8018
DD801A
DDBFFF
DD8018
DD8018
FF8018
018018
000018
000018
000018
000018
ENDCHAR
STARTCHAR C2371
ENCODING 9073
SWIDTH 400 0
DWIDTH 24 0
BBX 24 24 0 -2
BITMAP
0001C0
1E01C0
1C01DC
1C01CE
1C01C6
5D01C0
DDC1C2
DDBFFF
DD81C0
DD81C0
DD8180
DD81E0
DD81F0
DD8360
DD8360
DD8360
DD8660
DD8660
FF8C60
019861
003061
00607F
00C03F
03801E
ENDCHAR
STARTCHAR C2372
ENCODING 9074
SWIDTH 400 0
DWIDTH 24 0
BBX 24 24 0 -2
BITMAP
000010
1E0E08
1C0E0C
1C0C06
1C0803
5D1813
DDF41F
DDA418
DD8618
DD8218
DD8218
DD8338
DD8330
DD8130
DD81E0
DD80E0
DD80C0
DD81E0
FF81F0
018338
00061C
001C0F
003007
00C003
ENDCHAR
STARTCHAR C2373
ENCODING 9075
SWIDTH 400 0
DWIDTH 24 0
BBX 24 24 0 -2
BITMAP
1000E0
1C08E0
180CC0
180CC0
180CC0
9918CE
DB9FFE
9B98C0
9BB0C0
9BA0C0
9B80C0
9B80C0
9B80C2
9BBFFF
9B80C0
9B80C0
9B80C0
9B80C0
FF80C0
0100C0
0000C0
0000C0
0000C0
0000C0
ENDCHAR
STARTCHAR C2374
ENCODING 9076
SWIDTH 400 0
DWIDTH 24 0
BBX 24 24 0 -2
BITMAP
10003E
1C00FE
181FE0
181860
181860
991860
DB9860
9B9860
9B9862
9B9FFF
9B9860
9B9860
9B9860
9B9860
9B9860
9B9860
9B9830
9B9830
FF9838
011819
001B9D
001F0F
001C07
000803
ENDCHAR
STARTCHAR C2375
ENCODING 9077
SWIDTH 400 0
DWIDTH 24 0
BBX 24 24 0 -2
BITMAP
100000
1C0300
183E46
18307F
183067
993067
DBB067
9BB067
9BB067
9BB067
9BB067
9BB067
9BB067
9BB067
9BB067
9BB067
9BB167
9BB667
FFBC7E
01386C
001860
000060
000060
000040
ENDCHAR
STARTCHAR C2376
ENCODING 9078
SWIDTH 400 0
DWIDTH 24 0
BBX 24 24 0 -2
BITMAP
10003E
1C13FE
181F00
181800
181806
991FFF
DB9807
9B9807
9B9807
9B9807
9B9807
9B9FFF
9B9806
9B9800
9B9800
9B9800
9B9800
9BB000
FFB000
013000
006000
006000
00C000
018000
ENDCHAR
STARTCHAR C2377
ENCODING 9079
SWIDTH 400 0
DWIDTH 24 0
BBX 24 24 0 -2
BITMAP
100180
1C0180
180380
180340
180760
990630
DB8C38
9B981C
9BB00F
9BE807
9BCC3A
9B8C38
9B8C38
9B8C38
9B8C38
9B8C38
9B9838
9B9838
FF9838
011038
003038
006038
00C038
018030
ENDCHAR
STARTCHAR C2378
ENCODING 9080
SWIDTH 400 0
DWIDTH 24 0
BBX 24 24 0 -2
BITMAP
000060
60C060
7FE060
60C060
60C060
68C862
64CC67
66CC67
62CC67
60CC67
60EC67
FFEC67
60CC67
60CC67
60CC67
60CC67
60CC67
60CC67
60CC67
60CC67
60CC67
C7CFFF
C3C807
818006
ENDCHAR
STARTCHAR C2379
ENCODING 9081
SWIDTH 400 0
DWIDTH 24 0
BBX 24 24 0 -2
BITMAP
001800
301818
38181C
301818
301818
301818
3FFFF8
000018
001C00
001800
001800
10181C
0C1830
063860
023400
007600
006200
00E100
01C180
0380C0
070070
0E003F
18000F
E00007
ENDCHAR
STARTCHAR C237a
ENCODING 9082
SWIDTH 400 0
DWIDTH 24 0
BBX 24 24 0 -2
BITMAP
001C00
301C0C
38180E
30180C
30180C
30180C
3FFFFC
000000
200002
3FFFFE
300000
300000
300008
30001C
33FFFC
300000
300000
200000
600000
600000
600002
DFFFFF
800000
800000
ENDCHAR
STARTCHAR C237b
ENCODING 9083
SWIDTH 400 0
DWIDTH 24 0
BBX 24 24 0 -2
BITMAP
000000
0C0038
0FFFF8
0C0000
0C0000
0C0020
0FFFF0
0C0000
0C0000
0C0000
0C0006
FFFFFF
000000
0C0808
0C1C1C
181818
101030
202060
606040
303030
181818
0C0C0C
060E0C
060604
ENDCHAR
STARTCHAR C237c
ENCODING 9084
SWIDTH 400 0
DWIDTH 24 0
BBX 24 24 0 -2
BITMAP
000008
00001C
009FFC
FFC30C
0C030C
0C030C
0C030C
0C076C
0C1FEC
0C030C
0C030C
0C030C
0C030C
0C3FEC
0C060C
0CC60C
0F860C
FC0C0C
600C0C
00180D
00300D
00600F
00C00F
070007
ENDCHAR
STARTCHAR C237d
ENCODING 9085
SWIDTH 400 0
DWIDTH 24 0
BBX 24 24 0 -2
BITMAP
1C01C0
1C01C0
1C0180
1C0180
5F818C
FFDFFE
DD818E
DD818C
DD818C
DD818C
DD818C
DD818C
DDBFFF
DD8380
DD8300
DD8300
DD8320
DF8610
5D0608
1C0C0C
1C1C06
1C3807
1C7003
18C003
ENDCHAR
STARTCHAR C237e
ENCODING 9086
SWIDTH 400 0
DWIDTH 24 0
BBX 24 24 0 -2
BITMAP
1C0200
1C0100
1C0180
1C01C0
5F90C7
FFDFFF
DD98E7
DD98E7
DD99E7
DD99B7
DD99B7
DD9B3F
DD9B1F
DD9A1F
DD9E1F
DD9C0F
DD9807
DF9807
5D1807
1C1807
1C1807
1C187F
1C181E
18100C
ENDCHAR
STARTCHAR C2421
ENCODING 9249
SWIDTH 400 0
DWIDTH 24 0
BBX 24 24 0 -2
BITMAP
1C0008
1C003C
1C07FC
1C3DC0
5F81C0
FFC1C0
DD81C0
DD81C0
DD81C2
DDBFFF
DD81C0
DD81C0
DD81C0
DD8360
DD8320
DD8330
DD8630
DF8618
5D0C18
1C180C
1C180E
1C300F
1C6007
19C003
ENDCHAR
STARTCHAR C2422
ENCODING 9250
SWIDTH 400 0
DWIDTH 24 0
BBX 24 24 0 -2
BITMAP
1C0E00
1C0E00
1C0E00
1C0E00
1D8C06
FFCFFF
DDCDC7
DD99CC
DD99C8
DDB1C0
DDA1C0
DD81C0
DD81C0
DD81E0
DD8320
DD8320
DF8330
DF0630
1C0C18
1C0C0C
1C180E
1C3007
1C6007
19C000
ENDCHAR
STARTCHAR C2423
ENCODING 9251
SWIDTH 400 0
DWIDTH 24 0
BBX 24 24 0 -2
BITMAP
1C0004
1C003E
1C1FFE
1C19CC
1D99CC
FFD9CC
DDD9CC
DD99CC
DD99CC
DD99CC
DD99CC
DD99CC
DD99CC
DD99CC
DD99CC
DD99CC
DF99CC
DF11C4
1C31C6
1C31C6
1C61C7
1C61C3
1CC183
198001
ENDCHAR
STARTCHAR C2424
ENCODING 9252
SWIDTH 400 0
DWIDTH 24 0
BBX 24 24 0 -2
BITMAP
1C01C0
1C01C0
1C01C0
1C0360
1D8320
FFC630
DDC618
DD8C0C
DD980F
DDB017
DDAFFA
DD8000
DD8000
DD8008
DD9FFC
DD800C
DF800C
DF0018
1C0038
1C0030
1C0070
1C0060
1C0060
1800C0
ENDCHAR
STARTCHAR C2425
ENCODING 9253
SWIDTH 400 0
DWIDTH 24 0
BBX 24 24 0 -2
BITMAP
0007E0
0C7FF0
0FF000
0C0000
0C0008
0FFFFC
0C0000
0C0000
0C0000
0C0006
FFFFFF
001C00
001800
001818
3FFFFC
30181C
301818
301818
301818
301818
301BF8
301870
301820
001000
ENDCHAR
STARTCHAR C2426
ENCODING 9254
SWIDTH 400 0
DWIDTH 24 0
BBX 24 24 0 -2
BITMAP
0C0000
0C0006
1C03FE
180060
118060
30C060
60E060
C3E062
FFF7FF
7BA060
1B8060
1B8060
1B8060
1B8060
1B8060
1B8060
338060
338060
338061
338061
638003
63FFFF
C1FFFF
80FFFE
ENDCHAR
STARTCHAR C2427
ENCODING 9255
SWIDTH 400 0
DWIDTH 24 0
BBX 24 24 0 -2
BITMAP
E00000
E1C070
E18060
E300E0
E300C0
E60180
EE318C
EC330C
EE738C
E760D8
E3C078
E1C030
E18060
E38060
E340D0
E62188
E6318C
EFFBFE
EF1BC6
E40100
E00000
E00006
FFFFFF
000000
ENDCHAR
STARTCHAR C2428
ENCODING 9256
SWIDTH 400 0
DWIDTH 24 0
BBX 24 24 0 -2
BITMAP
001800
000C00
300C06
3FFFFF
300400
300E00
300E00
320E04
33FFFE
360E0E
3E0E0C
3C0E08
300F00
300F00
301F00
301B00
301B00
603300
606300
60C301
618303
C303FE
8601FE
3800FC
ENDCHAR
STARTCHAR C2429
ENCODING 9257
SWIDTH 400 0
DWIDTH 24 0
BBX 24 24 0 -2
BITMAP
001800
000C00
300C06
3FFFFF
300000
300002
3FFFFF
300700
300700
301C00
303000
30C01C
338030
31E0E0
307F80
300700
300E00
601800
606018
60C00C
63807E
CFFFE7
8FC003
060003
ENDCHAR
STARTCHAR C242a
ENCODING 9258
SWIDTH 400 0
DWIDTH 24 0
BBX 24 24 0 -2
BITMAP
001800
000C00
300C06
3FFFFF
300000
300700
300700
300600
30260E
37F61C
307630
307760
307780
306680
3066C0
30C660
30C670
618638
63061F
66060F
6C0607
D87E00
801E00
000C00
ENDCHAR
STARTCHAR C242b
ENCODING 9259
SWIDTH 400 0
DWIDTH 24 0
BBX 24 24 0 -2
BITMAP
001800
000C00
300C06
3FFFFF
300000
300000
3001F8
303FFC
33E600
300600
300600
300600
300600
30060C
33FFFC
300600
300600
600600
600600
600600
600600
C00602
8FFFFF
000000
ENDCHAR
STARTCHAR C242c
ENCODING 9260
SWIDTH 400 0
DWIDTH 24 0
BBX 24 24 0 -2
BITMAP
001800
000C00
300C06
3FFFFF
303000
303800
303030
37FFF0
303030
307030
306031
30E031
31C03F
33873F
3E060E
300600
300603
67FFFF
600600
600600
600600
C00600
800600
000600
ENDCHAR
STARTCHAR C242d
ENCODING 9261
SWIDTH 400 0
DWIDTH 24 0
BBX 24 24 0 -2
BITMAP
001800
000C00
300C06
3FFFFF
301800
301C00
303800
307000
30E030
31C018
33801C
37FFFE
37F9C6
3319C6
3019C0
3031C0
3031C0
6071C0
6061C0
60C1C1
6181C1
C301FF
8600FF
1C007E
ENDCHAR
STARTCHAR C242e
ENCODING 9262
SWIDTH 400 0
DWIDTH 24 0
BBX 24 24 0 -2
BITMAP
0001C0
0001D8
00018C
00018C
000180
000182
FFFFFF
000180
002180
3FF180
383980
303180
303180
3031C0
3FF1C0
3030C0
3030C0
303060
303061
383031
3FF03B
30201F
00000F
000007
ENDCHAR
STARTCHAR C242f
ENCODING 9263
SWIDTH 400 0
DWIDTH 24 0
BBX 24 24 0 -2
BITMAP
020300
0701C0
FF80C2
033FFF
030700
030300
030300
7F0300
620304
6003FE
600306
E30306
FF8306
038306
038606
038606
038606
038E06
038C06
03180E
07180C
FE31FC
3C6078
19C030
ENDCHAR
STARTCHAR C2430
ENCODING 9264
SWIDTH 400 0
DWIDTH 24 0
BBX 24 24 0 -2
BITMAP
020008
07001C
FF9FFC
030038
030030
030760
0303C0
7F01C0
6200C6
607FFF
6001C6
E301CC
FF81C8
0381C0
0381C0
0381C0
0381C0
0381C0
0381C0
0301C0
0701C0
FE1FC0
3C0780
180300
ENDCHAR
STARTCHAR C2431
ENCODING 9265
SWIDTH 400 0
DWIDTH 24 0
BBX 24 24 0 -2
BITMAP
0201C0
0701C0
FF8180
030180
03018C
033FFE
03018E
7F018C
62018C
60018C
60018C
E3018C
FFBFFF
038380
038300
038300
038320
038610
038608
030C0C
071C06
FE3807
3C7003
18C003
ENDCHAR
STARTCHAR C2432
ENCODING 9266
SWIDTH 400 0
DWIDTH 24 0
BBX 24 24 0 -2
BITMAP
000018
3FFFFC
000018
000018
000018
1FFFF8
180010
300000
300006
3FFFFF
000007
007807
207007
3071E7
1C7386
0C777E
00701C
00C818
018600
030300
0601C0
1C00FC
30007C
E0001C
ENDCHAR
STARTCHAR C2433
ENCODING 9267
SWIDTH 400 0
DWIDTH 24 0
BBX 24 24 0 -2
BITMAP
060000
060040
07FFE0
060060
0C00C0
0FFFC0
080180
000187
FFFFFF
030300
060300
0C01FF
1800FF
600060
8C0070
0700E0
0181C0
00E300
003C00
003E00
00F7C0
03C1FF
0E003F
F0000F
ENDCHAR
STARTCHAR C2434
ENCODING 9268
SWIDTH 400 0
DWIDTH 24 0
BBX 24 24 0 -2
BITMAP
060000
060007
0C7FFF
0C0C18
180C18
300C18
638C18
438C18
070C18
060C18
0C7FFF
1C0C18
1C0C18
3C0C18
6C1C18
CC1818
0C1818
0C1818
0C1818
0C3018
0C3018
0C6018
0CC018
0D8018
ENDCHAR
STARTCHAR C2435
ENCODING 9269
SWIDTH 400 0
DWIDTH 24 0
BBX 24 24 0 -2
BITMAP
060000
06000C
0C1FFC
0C0000
180000
300000
638000
438000
070002
067FFF
0C0630
1C0630
1C0630
3C0630
6C0630
CC0E30
0C0C30
0C0C30
0C1830
0C1831
0C3031
0C603F
0CC03F
0D800E
ENDCHAR
STARTCHAR C2436
ENCODING 9270
SWIDTH 400 0
DWIDTH 24 0
BBX 24 24 0 -2
BITMAP
060000
060E00
045E86
0C70FF
1860C7
3060C7
6360C7
4760C7
0660C7
0E60C7
1C60C7
1C60C7
3C60C7
3C60C7
5C60C7
9C60C7
1C62C7
1C6CC7
1C78FE
1C70CC
1C30C0
1C00C0
1C00C0
1800C0
ENDCHAR
STARTCHAR C2437
ENCODING 9271
SWIDTH 400 0
DWIDTH 24 0
BBX 24 24 0 -2
BITMAP
000000
060007
0323FF
01B830
00B030
1E3030
1C7030
1C6030
1C6030
1CC030
1CC030
3CC030
7DB030
7D9830
FF1830
DF1830
DE0030
9E0030
1C1030
1C3030
3E2030
3FF1F0
67E0E0
C00040
ENDCHAR
STARTCHAR C2438
ENCODING 9272
SWIDTH 400 0
DWIDTH 24 0
BBX 24 24 0 -2
BITMAP
1C0000
1C0006
1C7FFF
1C01C0
1C01C0
1C01C0
3E01C0
7F01C0
7F81C0
DD01C0
DC01C0
9C01CC
1C3FFE
1C01C0
1C01C0
1C01C0
1C01C0
1C01C0
1C01C0
1C01C0
1C01C0
1C01C2
1CFFFF
180000
ENDCHAR
STARTCHAR C2439
ENCODING 9273
SWIDTH 400 0
DWIDTH 24 0
BBX 24 24 0 -2
BITMAP
1C0600
1C0300
1C0100
1C0186
1C7FFF
1C71C7
3E71C7
7F71E7
7FF1E7
DD7367
DC7337
9C7237
1C763F
1C741F
1C7C1F
1C7807
1C7007
1C7007
1C7007
1C7007
1C7007
1C707F
1C701E
18600C
ENDCHAR
STARTCHAR C243a
ENCODING 9274
SWIDTH 400 0
DWIDTH 24 0
BBX 24 24 0 -2
BITMAP
1C200C
1C181C
1C0F38
1C03E0
1C01E0
1C03B8
3E061C
7F180E
7FF086
DD01E0
DC01C0
9C01C0
1C01C0
1C01C7
1C7FFF
1C01C0
1C01C0
1C01C0
1C01C0
1C01C0
1C01C0
1C01C0
1C01C0
180180
ENDCHAR
STARTCHAR C243b
ENCODING 9275
SWIDTH 400 0
DWIDTH 24 0
BBX 24 24 0 -2
BITMAP
00C1C0
00C9C0
7FFDCC
03C1C6
07C1C6
0CC1C3
18C1C0
60C1C0
80C1C2
FFFFFF
0001C0
0001CE
0000CE
0000CC
0000DC
000078
000070
000070
0000F1
0001F1
0003BB
00061F
00180F
00F007
ENDCHAR
STARTCHAR C243c
ENCODING 9276
SWIDTH 400 0
DWIDTH 24 0
BBX 24 24 0 -2
BITMAP
1C0004
1C000E
1C1FFF
1C0006
1C0006
1D1806
FF1FFE
1C1800
1C1800
1C1806
1C3FFF
1F1007
1C0007
FC0007
FC0007
5C0006
1C000E
1C001C
1C07F8
1C0070
1C0020
FC0002
387FFF
300000
ENDCHAR
STARTCHAR C243d
ENCODING 9277
SWIDTH 400 0
DWIDTH 24 0
BBX 24 24 0 -2
BITMAP
1C0004
1C100E
1C1FFF
1C1806
1C1806
1D1806
FF1806
1C3806
1C7FFF
1C1806
1C1806
1F1806
1C1806
FC3806
FC7FFF
5C1806
1C1806
1C1806
1C1806
1C1806
1C1806
FC187E
38183C
301008
ENDCHAR
STARTCHAR C243e
ENCODING 9278
SWIDTH 400 0
DWIDTH 24 0
BBX 24 24 0 -2
BITMAP
1C01C0
1C01C0
1C01C0
1C01C0
1C11C0
1D19CC
FF19C6
1C11C7
1C31C3
1C31C3
1C61C1
1F41C0
1C01C0
FC01C0
FC0180
5C3800
1C0C00
1C0700
1C0380
1C01C0
1C0070
FC003F
38000F
300007
ENDCHAR
STARTCHAR C243f
ENCODING 9279
SWIDTH 400 0
DWIDTH 24 0
BBX 24 24 0 -2
BITMAP
000380
0C0380
060300
060300
022300
FFF302
3003FF
30060C
30060C
300E0C
300B0C
30010C
300198
300198
3000F8
3000F0
300060
3000F0
3000F0
3FE198
1FF31C
00060F
000C07
003003
ENDCHAR
STARTCHAR C2440
ENCODING 9280
SWIDTH 400 0
DWIDTH 24 0
BBX 24 24 0 -2
BITMAP
000300
40C300
FFE300
E0C300
E0C300
E0C606
F8C7FF
ECC60C
E6CE0C
E6CE1C
E0DA18
E0C318
E0C338
E0C130
E0C1B0
E0C1E0
EFC0E0
E380E0
E101F0
E00338
E0061C
E00C0F
E01807
C07003
ENDCHAR
STARTCHAR C2441
ENCODING 9281
SWIDTH 400 0
DWIDTH 24 0
BBX 24 24 0 -2
BITMAP
0701C0
0701C0
760180
660180
660180
666302
7FF3FF
E6730C
66730C
66670C
66650C
666198
664098
66C098
6600F8
660070
600060
601070
6030F0
6061D8
7FE39C
3FE70F
000E07
003803
ENDCHAR
STARTCHAR C2442
ENCODING 9282
SWIDTH 400 0
DWIDTH 24 0
BBX 24 24 0 -2
BITMAP
000008
00001C
7FFFFC
301800
301800
30180E
7FFFFE
007600
00E601
01C601
038601
0607FF
1C03FF
300000
C00010
1FFFF8
18001C
180018
180018
180018
180018
180018
1FFFF8
180018
ENDCHAR
STARTCHAR C2443
ENCODING 9283
SWIDTH 400 0
DWIDTH 24 0
BBX 24 24 0 -2
BITMAP
000004
00000E
413FFF
FF8306
E38306
E38306
E38306
E3A306
E3B306
E39B06
E39F06
FF8F06
E38706
E38306
E38606
E38606
E38606
E38C06
FF9806
C1180E
00300C
0061FC
00C078
038030
ENDCHAR
STARTCHAR C2444
ENCODING 9284
SWIDTH 400 0
DWIDTH 24 0
BBX 24 24 0 -2
BITMAP
200000
200007
7FFFFF
E00006
C00008
BFFFFC
000000
000000
080070
0FFFF8
0C0030
0C0030
0C0030
0FFFF0
0C0030
0C0030
0C0030
0FFFF0
0C0030
180030
180030
1003F0
2001E0
400040
ENDCHAR
STARTCHAR C2445
ENCODING 9285
SWIDTH 400 0
DWIDTH 24 0
BBX 24 24 0 -2
BITMAP
0E00E0
0E00E0
0C00C0
0C00C0
0C90C6
FFDFFF
0C18C7
0C18C7
1C18C7
1E18C7
1F18C7
3D98C7
3D98C7
3C18C7
6C18C7
6C18C7
CC18C7
8C18C7
0C18DF
0C18C6
0C10C4
0C00C0
0C00C0
0C00C0
ENDCHAR
STARTCHAR C2446
ENCODING 9286
SWIDTH 400 0
DWIDTH 24 0
BBX 24 24 0 -2
BITMAP
003800
003800
003004
7FFFFE
006000
00C000
018000
030060
060030
0FFFF8
0FF018
0F0018
061800
001800
001802
FFFFFF
003800
041800
0E1870
0C181C
18180E
301807
601802
801000
ENDCHAR
STARTCHAR C2447
ENCODING 9287
SWIDTH 400 0
DWIDTH 24 0
BBX 24 24 0 -2
BITMAP
000380
100380
0C0300
060300
062300
FFF606
3007FF
3004C6
300CCC
3008C8
3010C0
3000C0
3000C0
3000E0
3001E0
3001A0
3001B0
3003B0
3FC318
3FE71C
1FC60E
000C0F
001807
007000
ENDCHAR
STARTCHAR C2448
ENCODING 9288
SWIDTH 400 0
DWIDTH 24 0
BBX 24 24 0 -2
BITMAP
000300
000300
61C300
7FC700
60C600
60C606
60CFFF
60CCC6
60D8CC
60D8C8
7FD0C0
6080C0
6000C0
6001E0
6001A0
6001A0
600330
60C330
630618
6E0E0C
781C0E
70380F
207007
01C000
ENDCHAR
STARTCHAR C2449
ENCODING 9289
SWIDTH 400 0
DWIDTH 24 0
BBX 24 24 0 -2
BITMAP
000060
100060
0C0060
060060
064060
FFE060
300060
301860
301C60
301866
30187E
301860
301860
301860
301860
301860
301860
301860
3F9860
3FD860
1FD860
001862
00FFFF
000000
ENDCHAR
STARTCHAR C244a
ENCODING 9290
SWIDTH 400 0
DWIDTH 24 0
BBX 24 24 0 -2
BITMAP
000000
040038
073FFC
060618
060618
060618
660618
660618
66C618
67C618
660678
663FF8
660618
660618
660618
660618
660618
660619
67C619
7E060D
F0060F
60060F
000607
000603
ENDCHAR
STARTCHAR C244b
ENCODING 9291
SWIDTH 400 0
DWIDTH 24 0
BBX 24 24 0 -2
BITMAP
0001E0
000FF0
07FE00
000C00
000C00
000C00
000C18
040FFC
070C00
060C00
060C08
060FFC
060C00
060C00
060C00
060C00
0E0C07
FFFFFF
000000
000000
00001C
3FFFFC
000000
000000
ENDCHAR
STARTCHAR C244c
ENCODING 9292
SWIDTH 400 0
DWIDTH 24 0
BBX 24 24 0 -2
BITMAP
060004
06000E
0601FF
063006
07F886
060086
060086
4610C6
FFF8C6
E018CC
E0184C
E0184C
E0184C
E0186C
E01878
FFF838
E01830
E01870
E01878
E018CC
E018C6
E0F987
E0F303
C06601
ENDCHAR
STARTCHAR C244d
ENCODING 9293
SWIDTH 400 0
DWIDTH 24 0
BBX 24 24 0 -2
BITMAP
071C70
071C70
061860
0E38E0
1C71C0
186180
0C30E0
061870
030C30
030C18
010417
7FFFFF
00C000
00C038
01FFF8
030030
0DC060
3078C0
401B80
000E00
003800
00E000
078000
7E0000
ENDCHAR
STARTCHAR C244e
ENCODING 9294
SWIDTH 400 0
DWIDTH 24 0
BBX 24 24 0 -2
BITMAP
000200
000338
60C3FC
7FE318
60C318
60C318
60C718
60C61F
60C60F
60CC00
7FD80C
60C7FE
60020E
60030C
600118
6001B8
6020F0
6020F0
6060F0
6041F8
7FE39C
3FE70F
000E07
003803
ENDCHAR
STARTCHAR C244f
ENCODING 9295
SWIDTH 400 0
DWIDTH 24 0
BBX 24 24 0 -2
BITMAP
200E00
300E00
30CE1C
3FEFFC
300E00
300E00
30CE02
378E06
3C0FFE
3007FE
000010
000030
3FFFF8
001800
001800
001804
00380E
FFFFFE
001800
001800
001800
001800
001800
001000
ENDCHAR
STARTCHAR C2450
ENCODING 9296
SWIDTH 400 0
DWIDTH 24 0
BBX 24 24 0 -2
BITMAP
061830
061830
0C1060
1820C0
306080
1820C0
0C1060
061830
060830
001000
001C00
001800
009830
01D870
3FD8C0
01DD80
019B00
039B00
0319C0
0618E0
0C183F
18F81F
607006
806000
ENDCHAR
STARTCHAR C2451
ENCODING 9297
SWIDTH 400 0
DWIDTH 24 0
BBX 24 24 0 -2
BITMAP
000000
180007
0CFFFF
0C0100
0001C0
010180
810300
E20300
720600
360C38
061838
041C30
0C0660
0801C0
1801C0
180180
300300
F00600
300C18
30180C
3830FE
387F86
387006
101000
ENDCHAR
STARTCHAR C2452
ENCODING 9298
SWIDTH 400 0
DWIDTH 24 0
BBX 24 24 0 -2
BITMAP
0001C0
1801C0
0C0180
0C0180
000186
0101FF
810180
E20180
720180
36018C
063FFE
04180C
0C080C
080818
180C18
180630
300360
F003C0
3001C0
3003E0
380638
381C1F
38700F
11C007
ENDCHAR
STARTCHAR C2453
ENCODING 9299
SWIDTH 400 0
DWIDTH 24 0
BBX 24 24 0 -2
BITMAP
2018E0
3018E0
1830C0
0830C0
0030C0
0270C2
826FFF
E6E0C7
64E0C7
25E0C7
0D60C7
0F60C7
1860C7
1860C7
1860C7
3061C7
306187
F06187
306187
306307
386306
38667E
386C3C
107818
ENDCHAR
STARTCHAR C2454
ENCODING 9300
SWIDTH 400 0
DWIDTH 24 0
BBX 24 24 0 -2
BITMAP
000000
1E000C
1C1FFC
1C0180
1C0180
9D8300
DFC302
5F3FFF
7E0600
7C0E00
3C0C00
1C1C0C
1C1FFE
1C180E
18000C
1C000C
1E000C
3B000C
33800C
31800C
218018
6007F8
C001F0
800060
ENDCHAR
STARTCHAR C2455
ENCODING 9301
SWIDTH 400 0
DWIDTH 24 0
BBX 24 24 0 -2
BITMAP
000004
1E1C07
1C1C86
1C18E6
1C18C6
9D98C6
DFD8C6
5F18C6
7E18C6
7C18C6
3C18C6
1C18C6
1C18C6
1C18C6
1818C6
1C18C6
1E18C6
3B10C6
33B0C6
31B0C6
21E0C6
606006
C0C006
818006
ENDCHAR
STARTCHAR C2456
ENCODING 9302
SWIDTH 400 0
DWIDTH 24 0
BBX 24 24 0 -2
BITMAP
003800
003800
007002
FFFFFF
00C000
018000
030000
0600C0
0C0FF0
1FF838
0F0018
061008
001C00
001800
101838
0C3830
063860
027400
006300
00C1C0
0180F0
07007F
1C000F
F00002
ENDCHAR
STARTCHAR C2457
ENCODING 9303
SWIDTH 400 0
DWIDTH 24 0
BBX 24 24 0 -2
BITMAP
018000
018030
03FFF8
030038
060060
1C0380
300E00
000C00
000C00
000C00
000C00
000C00
000C00
000C00
001C00
01FC00
003800
001000
200008
21820C
21C306
60C387
C0C183
C04003
ENDCHAR
STARTCHAR C2458
ENCODING 9304
SWIDTH 400 0
DWIDTH 24 0
BBX 24 24 0 -2
BITMAP
0003F0
007FF0
3FF810
000038
0C1830
060C60
030480
010180
07FF80
000F00
007008
03C008
0E0018
0FFFF8
07FFF8
0FFFE0
0300E0
0100C0
00C380
007E00
003E00
01E3FF
0F007F
F8001C
ENDCHAR
STARTCHAR C2459
ENCODING 9305
SWIDTH 400 0
DWIDTH 24 0
BBX 24 24 0 -2
BITMAP
038060
738060
638E60
638C60
638C60
638C62
638C7F
7F8FE7
633C67
600C67
600C66
610C66
7F8C64
638C6C
638C68
638C60
638C40
638C00
E38C01
E38C01
C38C03
C38FFF
838FFF
8303FE
ENDCHAR
STARTCHAR C245a
ENCODING 9306
SWIDTH 400 0
DWIDTH 24 0
BBX 24 24 0 -2
BITMAP
000000
470006
667FFE
3C0C30
180C30
3C0C30
6C0C30
C60C30
860C30
060C32
06FFFF
0F0C30
1B0C30
130C30
231C30
431830
831830
031830
031830
073030
063030
7E6030
3CC030
198030
ENDCHAR
STARTCHAR C245b
ENCODING 9307
SWIDTH 400 0
DWIDTH 24 0
BBX 24 24 0 -2
BITMAP
000000
470007
667FFF
3C0600
180600
3C0600
6C0E08
C60E1C
860FFC
060C0C
060C0C
0F0C0C
1B0C1C
131818
231818
431FF8
831838
030038
030038
070030
060030
7E0032
3C7FFF
180000
ENDCHAR
STARTCHAR C245c
ENCODING 9308
SWIDTH 400 0
DWIDTH 24 0
BBX 24 24 0 -2
BITMAP
000600
470300
660100
3C0180
187187
3C7FFF
6C71C7
C671C7
8671E7
0671E7
067327
0F7337
1B7337
13763F
23761F
437C1F
837807
037007
037007
077007
067007
7E707F
3C701E
18600C
ENDCHAR
STARTCHAR C245d
ENCODING 9309
SWIDTH 400 0
DWIDTH 24 0
BBX 24 24 0 -2
BITMAP
001C00
471C00
661800
3C1806
181FFF
3C1007
6C3007
C62007
866047
065FE7
060007
0F0007
1B0007
130007
230067
431FE7
830007
030007
030006
070006
06000E
7E01FC
3C0078
180030
ENDCHAR
STARTCHAR C245e
ENCODING 9310
SWIDTH 400 0
DWIDTH 24 0
BBX 24 24 0 -2
BITMAP
000000
470038
667FFC
3C0C18
180C18
3C0C38
6C0C38
C60C30
860C3E
060FFF
060D06
0F0D06
1B0D8C
13188C
2318CC
4318D8
831878
031070
033070
0720F8
06619E
7E430F
3C8E07
193800
ENDCHAR
STARTCHAR C245f
ENCODING 9311
SWIDTH 400 0
DWIDTH 24 0
BBX 24 24 0 -2
BITMAP
000180
470380
6603C0
3C0340
180660
3C0630
6C0C38
C6181C
86100F
062037
067FF2
0F0000
1B0000
130018
233FFC
43001C
830018
030038
030030
070060
060060
7E00E0
3C00C0
180180
ENDCHAR
STARTCHAR C2460
ENCODING 9312
SWIDTH 400 0
DWIDTH 24 0
BBX 24 24 0 -2
BITMAP
000070
000070
010060
FF8060
1C0060
1C0066
1C7FFF
1C0060
1C0060
1C0860
7F0860
1C0860
1C0C60
1C04C0
1C06C0
1C03C0
1C0380
1F8380
FE03C0
F00660
600C3C
00181F
00300E
00C000
ENDCHAR
STARTCHAR C2461
ENCODING 9313
SWIDTH 400 0
DWIDTH 24 0
BBX 24 24 0 -2
BITMAP
00001C
00007E
0103E0
FFBF00
1C0300
1C0300
1C0300
1C0300
1C0300
1C0300
7F0387
1C7FFF
1C0300
1C0300
1C0300
1C0300
1C0300
1F8300
FE0301
F00301
600303
0003FF
0001FF
0000FE
ENDCHAR
STARTCHAR C2462
ENCODING 9314
SWIDTH 400 0
DWIDTH 24 0
BBX 24 24 0 -2
BITMAP
000000
200007
7FFFFF
600006
C00004
C00000
3FFFFE
038000
038000
038000
0381C0
03FFE0
0300C0
0330C0
0318C0
030CC0
060CC0
0601C0
0601C1
0601C3
067DC2
3FC1FE
7C00FE
30007C
ENDCHAR
STARTCHAR C2463
ENCODING 9315
SWIDTH 400 0
DWIDTH 24 0
BBX 24 24 0 -2
BITMAP
001800
001800
181870
1FFFF8
1C1830
1C1830
1FFFF0
1C1830
1C1830
1FFFF0
000000
000060
7FFFF0
060060
060060
060066
0FFFFE
040006
000006
00000E
00000C
0003FC
0000F8
000030
ENDCHAR
STARTCHAR C2464
ENCODING 9316
SWIDTH 400 0
DWIDTH 24 0
BBX 24 24 0 -2
BITMAP
001800
000E00
180606
1FFFFF
180000
983800
D83800
783000
783000
1830C0
1BFFE0
1830C0
3830C0
7830C0
D830C0
5830C0
3070C0
3060C0
3060C1
30C0C1
6180C3
6300FF
C6007F
9C003E
ENDCHAR
STARTCHAR C2465
ENCODING 9317
SWIDTH 400 0
DWIDTH 24 0
BBX 24 24 0 -2
BITMAP
001800
000C00
180606
1FFFFF
180000
98001C
D8401C
784018
784038
186038
186030
182070
383060
781060
D818C0
580D80
300700
300700
300F80
3019C0
6030F0
60E07F
C3801F
8E0004
ENDCHAR
STARTCHAR C2466
ENCODING 9318
SWIDTH 400 0
DWIDTH 24 0
BBX 24 24 0 -2
BITMAP
0000E0
0800E0
1C00C0
1800C0
1180C0
FFC0C0
E1C0C0
E180C0
E180C2
E19FFF
E180C0
E180C0
FF80C0
E180C0
E180C0
E180C0
E180C0
E180C0
FF80C0
E180C0
C000C0
0000C0
0000C0
0000C0
ENDCHAR
STARTCHAR C2467
ENCODING 9319
SWIDTH 400 0
DWIDTH 24 0
BBX 24 24 0 -2
BITMAP
060000
060002
061FFF
060060
6EC060
7FE060
66C060
668060
660060
660060
6EC060
7FC060
60C060
60C060
798060
6F8060
670060
E78060
CFC060
9CC060
B84060
700FE0
0003C0
000180
ENDCHAR
STARTCHAR C2468
ENCODING 9320
SWIDTH 400 0
DWIDTH 24 0
BBX 24 24 0 -2
BITMAP
060000
060004
063FFE
060306
6EC306
7FE306
66C306
668306
660306
660306
6EC306
7FC306
60C306
60C306
798606
6F8606
670606
E78C0E
CFCC0C
9CD80C
B8701C
7061F8
00C0F0
018060
ENDCHAR
STARTCHAR C2469
ENCODING 9321
SWIDTH 400 0
DWIDTH 24 0
BBX 24 24 0 -2
BITMAP
000000
03000C
FF9FFE
E3800C
E3900C
E3900C
E3980C
E38818
FF8818
E38C38
E38430
E38630
E38260
FF8360
E381C0
E381C0
E383C0
E38360
E38770
FF8E38
E31C1C
40380F
007006
01C000
ENDCHAR
STARTCHAR C246a
ENCODING 9322
SWIDTH 400 0
DWIDTH 24 0
BBX 24 24 0 -2
BITMAP
0001C0
00C1C0
3FE180
30E180
30C180
30C180
30C180
30C180
3FC1E0
30C1B0
30C198
30C18C
30C18E
3FC187
30C187
30C182
30C180
30C180
30C180
3FC180
30C180
200180
000180
000180
ENDCHAR
STARTCHAR C246b
ENCODING 9323
SWIDTH 400 0
DWIDTH 24 0
BBX 24 24 0 -2
BITMAP
000020
1C0070
1FFFF8
1C0030
1C0030
1FFFF0
1C0030
1C0030
1FFFF0
1C0030
1C0030
1FFFF0
081820
001800
001806
FFFFFF
001800
001800
001800
001800
001800
001800
001800
001000
ENDCHAR
STARTCHAR C246c
ENCODING 9324
SWIDTH 400 0
DWIDTH 24 0
BBX 24 24 0 -2
BITMAP
0001C0
0041C0
FFE180
1C0180
1C0180
1C0180
180180
180180
3081E0
3FC1B0
39C198
70C18C
F0C18E
B0C187
30C187
30C182
30C180
30C180
3FC180
39C180
308180
300180
000180
000180
ENDCHAR
STARTCHAR C246d
ENCODING 9325
SWIDTH 400 0
DWIDTH 24 0
BBX 24 24 0 -2
BITMAP
000080
0180C0
FFC040
180040
180F60
300E60
300E60
300E20
310E20
7F8E30
738E30
738E30
F38C38
F38C38
338C18
339818
339818
33980C
3FB80C
33300C
30300E
206007
004007
008000
ENDCHAR
STARTCHAR C246e
ENCODING 9326
SWIDTH 400 0
DWIDTH 24 0
BBX 24 24 0 -2
BITMAP
038000
07C007
3C1FFF
4C001C
0C0038
0C0060
FFC0C0
0C00C0
0C00C0
1E00C0
1F00C0
1D80C0
3DC0C0
3CC0C0
2C00C0
6C00C0
4C00C0
CC00C0
8C00C0
0C00C0
0C00C0
0C0FC0
0C03C0
0C0180
ENDCHAR
STARTCHAR C246f
ENCODING 9327
SWIDTH 400 0
DWIDTH 24 0
BBX 24 24 0 -2
BITMAP
003000
201800
200806
7FFFFF
E18306
C3830C
830388
0603FC
1C01FE
700000
000038
1FFFFC
000070
0001C0
000E00
000C00
000C00
000C00
000C00
000C00
000C00
01FC00
007C00
001800
ENDCHAR
STARTCHAR C2470
ENCODING 9328
SWIDTH 400 0
DWIDTH 24 0
BBX 24 24 0 -2
BITMAP
003000
201800
200806
7FFFFF
E18306
C3830C
830388
0603FC
1C01FE
700000
0601C0
07FFC0
0601C0
0601C0
0601C0
0601C0
0601C0
0601C0
0601C1
0C01C1
0C01C3
1801FF
3000FF
E0003E
ENDCHAR
STARTCHAR C2471
ENCODING 9329
SWIDTH 400 0
DWIDTH 24 0
BBX 24 24 0 -2
BITMAP
000000
000000
00000C
3FFFFE
00000C
00780C
00710C
08718C
0C738C
06730C
06760C
0270EC
7FFFEC
00700C
04740C
07730C
0E718C
1C71CC
3870CC
60700C
00701C
0071FC
002078
000030
ENDCHAR
STARTCHAR C2472
ENCODING 9330
SWIDTH 400 0
DWIDTH 24 0
BBX 24 24 0 -2
BITMAP
020004
67000E
7FFFFE
630000
630600
630700
730600
7F0600
6F0610
633FF8
630638
630638
630638
6F0638
7B0E38
730E38
630C38
630C38
631838
631839
E33039
DF203F
8E401F
84800E
ENDCHAR
STARTCHAR C2473
ENCODING 9331
SWIDTH 400 0
DWIDTH 24 0
BBX 24 24 0 -2
BITMAP
02001C
6700FE
7F87E0
633E00
630600
630600
730600
7F0600
6F0600
630600
630607
637FFF
630600
6F0600
7B0600
730600
630600
630600
630601
630601
E30603
DF07FF
8E03FF
8401FE
ENDCHAR
STARTCHAR C2474
ENCODING 9332
SWIDTH 400 0
DWIDTH 24 0
BBX 24 24 0 -2
BITMAP
0C0004
0C000E
191FFF
7F800C
638018
638030
6B8060
6F80C0
678180
638100
67C300
FF8600
E38C00
638C00
6B9800
6F9800
67B000
63B000
63B001
63B001
E3B803
DF9FFF
8F0FFF
8603FE
ENDCHAR
STARTCHAR C2475
ENCODING 9333
SWIDTH 400 0
DWIDTH 24 0
BBX 24 24 0 -2
BITMAP
1C0004
1C000E
1C1FFF
1C000E
1C0018
5D8030
FFC060
DD80C0
DD8180
DD8300
DD8600
DD8E00
DD8C00
FF9800
DC1800
1C3000
1C3000
1E7001
1F7001
1DF001
FFB803
F09FFF
400FFF
000000
ENDCHAR
STARTCHAR C2476
ENCODING 9334
SWIDTH 400 0
DWIDTH 24 0
BBX 24 24 0 -2
BITMAP
000000
00000C
3FFFFC
00C300
00C300
30C310
3FFFF8
39C71C
30C318
30C318
30C318
30C318
30C318
30C318
30C318
30C318
39C718
3FFFF8
300010
000000
000000
000006
FFFFFF
000000
ENDCHAR
STARTCHAR C2477
ENCODING 9335
SWIDTH 400 0
DWIDTH 24 0
BBX 24 24 0 -2
BITMAP
001800
003C00
007700
00E3C0
0180E0
030078
061818
1C3800
703800
006400
00C200
018180
0300C0
060070
0C003F
1C004F
67FFE6
860060
060060
060060
060060
060060
07FFE0
040040
ENDCHAR
STARTCHAR C2478
ENCODING 9336
SWIDTH 400 0
DWIDTH 24 0
BBX 24 24 0 -2
BITMAP
000020
000070
3000F0
1801C0
0C0300
000600
001C18
0C303C
FE0070
1E00E0
1801C0
3803C0
3607C0
7F09C0
6631C0
0601C0
0C01C0
0C01C0
1801C0
380080
7F0000
E7FFFF
007FFC
001FF8
ENDCHAR
STARTCHAR C2479
ENCODING 9337
SWIDTH 400 0
DWIDTH 24 0
BBX 24 24 0 -2
BITMAP
0E7000
0E71C7
0C71FF
0C71C6
0C71CC
0C75CC
7FFDD8
0C71D0
0C71D0
0C71C8
0C71C4
0C71C6
0C71C7
7FFFC3
0C71C3
0C71C3
0C71C3
1C71FF
1C71DE
1871CC
1871C0
3071C0
2071C0
406180
ENDCHAR
STARTCHAR C247a
ENCODING 9338
SWIDTH 400 0
DWIDTH 24 0
BBX 24 24 0 -2
BITMAP
020104
03818E
0701FF
07818C
06618C
0C3198
1C1990
1819B0
3029B0
7FF198
60018C
C02184
3FF186
007986
007187
006187
006187
00E1FE
00C19E
00C18C
018180
010180
020180
000180
ENDCHAR
STARTCHAR C247b
ENCODING 9339
SWIDTH 400 0
DWIDTH 24 0
BBX 24 24 0 -2
BITMAP
020380
670380
7F8300
630300
660308
663FFC
64030C
6C030C
6C030C
64030C
66030C
63030C
637FFF
638700
638300
638720
638630
7F0618
660C0C
601806
601807
603003
606003
618001
ENDCHAR
STARTCHAR C247c
ENCODING 9340
SWIDTH 400 0
DWIDTH 24 0
BBX 24 24 0 -2
BITMAP
000000
E60004
FFFFFE
E60180
E60380
E40300
EC0700
E80600
E80C38
EC1870
E63060
E638C0
E70FC0
E30380
E30300
E30700
E70600
FF0C10
E61818
E0307C
E07FEE
E07C07
E03006
C00000
ENDCHAR
STARTCHAR C247d
ENCODING 9341
SWIDTH 400 0
DWIDTH 24 0
BBX 24 24 0 -2
BITMAP
000000
E60038
FF7FF8
E61838
E61830
E41830
EC1830
E81860
E8186C
EC1FFE
E61A0C
E61B0C
E7190C
E3190C
E31998
E318F8
E730F0
FF3070
E660F0
E061F8
E0C39C
E0C70F
E18C06
C23000
ENDCHAR
STARTCHAR C247e
ENCODING 9342
SWIDTH 400 0
DWIDTH 24 0
BBX 24 24 0 -2
BITMAP
00003C
6380FE
7F9FC0
6318C0
6318C0
6218C0
6618C0
6418C0
6418C2
661FFF
6318C0
6318C0
619860
619860
619860
619860
639830
7F9830
631838
601819
601B1D
601C0F
601807
601803
ENDCHAR
STARTCHAR C2521
ENCODING 9505
SWIDTH 400 0
DWIDTH 24 0
BBX 24 24 0 -2
BITMAP
070E70
070E70
F60C60
E61860
E61860
E61862
E63BFF
E63070
E63060
E67070
E67070
E6F0F8
E7B1F8
E631EC
E6336E
FE3367
063667
063C63
063060
063060
063060
063060
063060
063060
ENDCHAR
STARTCHAR C2522
ENCODING 9506
SWIDTH 400 0
DWIDTH 24 0
BBX 24 24 0 -2
BITMAP
000006
7FFFFE
004000
006000
004060
07FFF0
060070
063060
061860
060C60
060062
7FFFFF
060060
063060
061860
060C60
060060
0C0060
1807E0
3001E0
6000C0
000006
FFFFFF
000000
ENDCHAR
STARTCHAR C2523
ENCODING 9507
SWIDTH 400 0
DWIDTH 24 0
BBX 24 24 0 -2
BITMAP
003000
001800
001806
FFFFFF
000000
080070
1FFFF8
1C0030
1C0030
1C0030
1C0030
1FFFF0
180030
003800
003000
003006
FFFFFF
006000
00C1C0
018060
03003C
0E000E
180006
E00003
ENDCHAR
STARTCHAR C2524
ENCODING 9508
SWIDTH 400 0
DWIDTH 24 0
BBX 24 24 0 -2
BITMAP
073018
071818
060C30
060E20
0C0646
0C7FFE
1C0180
1C0180
3C0180
7C0180
7C0180
DC0182
1CFFFF
1C03C0
1C03C0
1C0340
1C0660
1C0630
1C0C30
1C1818
1C301C
1C600F
1CC007
1B8003
ENDCHAR
STARTCHAR C2525
ENCODING 9509
SWIDTH 400 0
DWIDTH 24 0
BBX 24 24 0 -2
BITMAP
070300
070180
060180
060002
0CFFFF
0C0660
1C0660
1C0660
3C0660
7C7668
7C766C
DC7666
1C6667
1C4663
1CCE63
1CCE63
1D8C60
1C0C60
1C1860
1C1860
1C3060
1C63E0
1CC1E0
1980C0
ENDCHAR
STARTCHAR C2526
ENCODING 9510
SWIDTH 400 0
DWIDTH 24 0
BBX 24 24 0 -2
BITMAP
070000
072038
067FFC
067398
0C7318
0C7318
1C7398
1C7658
3C7478
7C7878
7DF01F
DDFFFF
1D8007
1D8007
1D8007
1D8007
1D8007
1D8007
1D8007
1D8007
1D8007
1D807F
1D801E
19800C
ENDCHAR
STARTCHAR C2527
ENCODING 9511
SWIDTH 400 0
DWIDTH 24 0
BBX 24 24 0 -2
BITMAP
071C00
071C00
06180C
061FFE
0C180C
0C3C18
1C6630
1CC3E0
3C81C0
7C03F0
7C0E3C
DC181F
1C61C7
1D81C0
1C0180
1C0184
1C7FFE
1C0180
1C0180
1C0180
1C0180
1C0182
1CFFFF
180000
ENDCHAR
STARTCHAR C2528
ENCODING 9512
SWIDTH 400 0
DWIDTH 24 0
BBX 24 24 0 -2
BITMAP
070300
070300
06020C
067FFE
0C700E
0C700C
1C700C
1C700C
3C700C
7C700C
7C7FFC
DC7000
1C7004
1C700E
1C7FFF
1C7006
1C7006
1C7006
1C7006
1C7006
1C7006
1C7FFE
1C7006
186004
ENDCHAR
STARTCHAR C2529
ENCODING 9513
SWIDTH 400 0
DWIDTH 24 0
BBX 24 24 0 -2
BITMAP
070300
070300
060602
067FFF
0C6007
0C6007
1C603F
1C603F
3C6C37
7C6637
7C6367
DC61E7
1C60E7
1C61E7
1C61B7
1C633F
1C661F
1C6C1F
1C7807
1C6007
1C6007
1C7FFF
1C6002
184000
ENDCHAR
STARTCHAR C252a
ENCODING 9514
SWIDTH 400 0
DWIDTH 24 0
BBX 24 24 0 -2
BITMAP
07003E
0701FE
067FC0
066000
0C6000
0C640E
1C6FFF
1C6E66
3C6E66
7C6E66
7C6E66
DC6E66
1C6E66
1C6FFE
1C6E04
1C6E00
1C6E00
1CCE00
1CCE01
1CCE01
1CCE03
1C8FFF
1D87FF
1803FE
ENDCHAR
STARTCHAR C252b
ENCODING 9515
SWIDTH 400 0
DWIDTH 24 0
BBX 24 24 0 -2
BITMAP
0718C7
0738C7
06318E
06610C
0CC218
0C610C
1C318E
1C38C6
3C18C7
7C1842
7C0000
DC01E0
1C01C0
1C21C2
1C71C7
1C71C7
1C71C7
1C71C7
1C71C7
1C71C7
1C71C7
1C71C7
1C7FFF
180006
ENDCHAR
STARTCHAR C252c
ENCODING 9516
SWIDTH 400 0
DWIDTH 24 0
BBX 24 24 0 -2
BITMAP
000000
100038
1FFFF8
180038
180138
1BFFB8
180038
180038
1801B8
1BFFB8
180030
101000
001C00
001800
001806
FFFFFF
001800
021800
0718E0
0C1838
18181C
70180E
C01806
001000
ENDCHAR
STARTCHAR C252d
ENCODING 9517
SWIDTH 400 0
DWIDTH 24 0
BBX 24 24 0 -2
BITMAP
200000
200007
7FFFFF
E00006
C00034
9FFFF8
180038
180038
1801B8
1BFFB8
180038
180238
18FF38
18C738
18C338
18C338
18FF38
188238
180038
180038
180038
1803F8
1800F0
180060
ENDCHAR
STARTCHAR C252e
ENCODING 9518
SWIDTH 400 0
DWIDTH 24 0
BBX 24 24 0 -2
BITMAP
00000C
0000FE
60FFFE
300180
380180
180180
020180
020187
06FFFF
060180
040180
0C0180
184184
18618E
307FFF
F06006
F06006
606006
306006
306006
306006
307FFE
306006
006004
ENDCHAR
STARTCHAR C252f
ENCODING 9519
SWIDTH 400 0
DWIDTH 24 0
BBX 24 24 0 -2
BITMAP
0C0E00
0C0E00
0C0E08
1C0FFC
190C1C
1B9C18
339A38
33B330
7381F0
7380E0
F381E0
B383B0
33871C
338E0F
339F07
33F0C2
338060
338020
338000
330700
3001C0
3000E0
300070
300030
ENDCHAR
STARTCHAR C2530
ENCODING 9520
SWIDTH 400 0
DWIDTH 24 0
BBX 24 24 0 -2
BITMAP
000007
E07007
FFF806
E031C6
E031C6
E031C6
FFF1C6
E031C6
E031C6
E031C6
E031C6
FFF1C6
E021C6
E001C6
E839C6
E671C6
E3C1C6
E1C186
E0E006
E07006
EE3806
F8187E
F0083C
600008
ENDCHAR
STARTCHAR C2531
ENCODING 9521
SWIDTH 400 0
DWIDTH 24 0
BBX 24 24 0 -2
BITMAP
000007
001807
3FFC06
0038E6
0060E6
0180C6
0180C6
018CC6
0D9EC6
FFB8C6
0DE0C6
0DC0C6
0DA0C6
19B0C6
1998C6
119CC6
318EC6
618EC6
CF8406
038006
030006
00047E
FFFE3C
000008
ENDCHAR
STARTCHAR C2532
ENCODING 9522
SWIDTH 400 0
DWIDTH 24 0
BBX 24 24 0 -2
BITMAP
001800
001800
001810
3FFFF8
38381C
301818
301818
383818
3FFFF8
301800
001800
011B00
0390C0
030060
060030
0C001F
1FFFEF
706067
C0C060
018060
0300C0
061FC0
1C0780
700300
ENDCHAR
STARTCHAR C2533
ENCODING 9523
SWIDTH 400 0
DWIDTH 24 0
BBX 24 24 0 -2
BITMAP
038007
038007
03F806
0FFCE6
7B80E6
0380C6
0380C6
038CC6
7FFCC6
0380C6
0380C6
0384C6
FFFEC6
0380C6
07C0C6
0FE0C6
0FB8C6
1B9CC6
138E06
238406
438006
83807E
03803C
030008
ENDCHAR
STARTCHAR C2534
ENCODING 9524
SWIDTH 400 0
DWIDTH 24 0
BBX 24 24 0 -2
BITMAP
00FC07
1FFC07
FC0006
1C00E6
1C04E6
FFFEC6
1800C6
19C0C6
1980C6
3180C6
3188C6
3FFCC6
718CC6
718CC6
F18CC6
B18CC6
318CC6
318CC6
318C06
318C06
31BC06
31987E
01803C
018008
ENDCHAR
STARTCHAR C2535
ENCODING 9525
SWIDTH 400 0
DWIDTH 24 0
BBX 24 24 0 -2
BITMAP
030007
070007
060006
0C70E6
1870E6
30E0C6
F1C0C6
1F80C6
0720C6
0E10C6
1C08C6
38FCC6
FFCEC6
6184C6
2180C6
0180C6
3990C6
3188C6
318C06
318E06
618606
DF807E
07803C
030008
ENDCHAR
STARTCHAR C2536
ENCODING 9526
SWIDTH 400 0
DWIDTH 24 0
BBX 24 24 0 -2
BITMAP
018007
10C007
184006
1861C6
3071C6
3039C6
703DC6
6019C6
C809C6
8601C6
0611C6
FFF9C6
0061C6
2061C6
18E1C6
0CC1C6
07C1C6
038186
038006
07C006
0C6006
18307E
30183C
E00008
ENDCHAR
STARTCHAR C2537
ENCODING 9527
SWIDTH 400 0
DWIDTH 24 0
BBX 24 24 0 -2
BITMAP
008380
40C380
618300
310300
330300
FFC304
0C1FFE
0C0386
0C0306
7F8306
0C0306
0C0306
0C0306
0C0306
FFC306
0C0706
0C0606
0C0606
1C0C06
180C0E
18180C
3031FC
206078
41C030
ENDCHAR
STARTCHAR C2538
ENCODING 9528
SWIDTH 400 0
DWIDTH 24 0
BBX 24 24 0 -2
BITMAP
0700E0
0700E0
0600C0
0620C0
7FF0C0
0600C2
0607FF
0600C7
0600C7
FFF0C7
0700C7
0700C7
0600C7
0600C7
0621C7
7FF1C7
060187
060187
060307
060307
06FE06
FFC47E
E0083C
001018
ENDCHAR
STARTCHAR C2539
ENCODING 9529
SWIDTH 400 0
DWIDTH 24 0
BBX 24 24 0 -2
BITMAP
0C01C0
0C01C0
1881C0
FFC1C0
E1C1C0
E0C1C2
E0CFFF
E0C1C7
E0C1C7
E0C1C7
FFC1C7
E081C7
E001C7
E0C187
FFE187
E0C187
E0C307
E0C307
E0C307
E0C607
E0C606
FFCCFE
E0D83C
C03018
ENDCHAR
STARTCHAR C253a
ENCODING 9530
SWIDTH 400 0
DWIDTH 24 0
BBX 24 24 0 -2
BITMAP
0040E0
01E0E0
4FE0C0
F800C0
E000C0
E000C2
E007FF
E070C7
FFF0C7
E000C7
E000C7
E000C7
F060C7
FFE0C7
F861C7
F861C7
F86187
F86187
D86307
D86307
D86606
9FE47E
98683C
185018
ENDCHAR
STARTCHAR C253b
ENCODING 9531
SWIDTH 400 0
DWIDTH 24 0
BBX 24 24 0 -2
BITMAP
0C00E0
0C00E0
1800C0
1080C0
2040C0
41E0C2
FF37FF
E010C7
0700C7
6700C7
6600C7
6620C7
7FF0C7
4600C7
C601C7
8601C7
073187
FFF187
060307
060307
060606
06047E
06083C
061018
ENDCHAR
STARTCHAR C253c
ENCODING 9532
SWIDTH 400 0
DWIDTH 24 0
BBX 24 24 0 -2
BITMAP
3330E0
3330E0
6660C0
CC40C0
C440C0
6660C2
3337FF
3310C7
0000C7
FFF0C7
1800C7
1800C7
1800C7
1870C7
1FF1C7
1871C7
187187
307187
307307
307307
206606
6FE47E
C3C83C
819018
ENDCHAR
STARTCHAR C253d
ENCODING 9533
SWIDTH 400 0
DWIDTH 24 0
BBX 24 24 0 -2
BITMAP
307000
187000
18700E
807FFF
E26006
66D806
258606
0C0306
180106
180006
F0000C
7003FC
300078
303010
003800
003018
7FFFFC
00600C
00C00C
01800C
03000C
0E03FC
1800F8
E00030
ENDCHAR
STARTCHAR C253e
ENCODING 9534
SWIDTH 400 0
DWIDTH 24 0
BBX 24 24 0 -2
BITMAP
000004
60000E
7FFFFE
601000
601800
601E00
603B00
6071C0
60E0F0
61C07C
63801E
67FFEC
680E00
600E00
600E60
61FFF0
600E00
600E00
600E18
67FFFC
600000
600006
7FFFFF
000000
ENDCHAR
STARTCHAR C253f
ENCODING 9535
SWIDTH 400 0
DWIDTH 24 0
BBX 24 24 0 -2
BITMAP
000004
60000E
7FFFFE
618000
619C60
619870
6330E0
6278C8
64699C
68CF18
61C430
63C660
66C3C0
6CC180
70C1C0
60C0F0
60C27E
60DC3E
60F00C
606000
600000
600006
7FFFFF
000000
ENDCHAR
STARTCHAR C2540
ENCODING 9536
SWIDTH 400 0
DWIDTH 24 0
BBX 24 24 0 -2
BITMAP
000000
008038
7FDFF8
0C0638
0C3638
0C0E38
0C0FB8
0C0DB9
0F98F9
FC303F
E0601F
01900E
001C00
001800
001800
001806
FFFFFF
001800
001800
001800
001800
001800
001800
001000
ENDCHAR
STARTCHAR C2541
ENCODING 9537
SWIDTH 400 0
DWIDTH 24 0
BBX 24 24 0 -2
BITMAP
200000
300007
3FFFFF
31C000
31C000
318004
31FFFE
318C00
330C00
330C00
360C08
3C0FFC
300C00
300C00
300C00
300C08
200FFC
600C00
600C00
600C00
400C00
C00C06
9FFFFF
000000
ENDCHAR
STARTCHAR C2542
ENCODING 9538
SWIDTH 400 0
DWIDTH 24 0
BBX 24 24 0 -2
BITMAP
006000
003000
001804
7FFFFE
003800
003800
007800
00F980
019860
031838
06180C
0C1806
301803
C01800
081070
0FFFF8
0C0030
0C0030
0C0030
0C0030
0C0030
0FFFF0
0C0030
0C0020
ENDCHAR
STARTCHAR C2543
ENCODING 9539
SWIDTH 400 0
DWIDTH 24 0
BBX 24 24 0 -2
BITMAP
000000
000007
FFFFFF
000020
000070
1FFFF8
006030
006032
FFFFFF
006030
00C030
00C030
3FFFF0
018000
018010
03FFF8
07801C
0F8018
1B8018
638018
838018
03FFF8
038018
030000
ENDCHAR
STARTCHAR C2544
ENCODING 9540
SWIDTH 400 0
DWIDTH 24 0
BBX 24 24 0 -2
BITMAP
0001C0
0001C0
0001C0
C601C0
FF01C2
E77FFF
E601C0
E601C0
E601C0
E601C0
E601C6
E63FFE
E601C0
E603E0
E603E0
E607F0
E60DD8
FE1DDC
E639CF
4071C7
00E1C3
0181C0
0001C0
000180
ENDCHAR
STARTCHAR C2545
ENCODING 9541
SWIDTH 400 0
DWIDTH 24 0
BBX 24 24 0 -2
BITMAP
000000
000007
007FFF
C67000
FF7000
E77008
E673FC
E6731C
E6730C
E6730C
E6730C
E6730C
E6730C
E6730C
E6730C
E673FC
E6731C
FE7208
E67000
407000
007000
003FFF
001FFF
000000
ENDCHAR
STARTCHAR C2546
ENCODING 9542
SWIDTH 400 0
DWIDTH 24 0
BBX 24 24 0 -2
BITMAP
0001C0
0001CC
000186
C60186
FF0180
E70182
E6FFFF
E60180
E60180
E6199C
E6199C
E61998
E61998
E61998
E61998
E61998
E63198
FE3198
E63198
40619F
00618F
00C180
018180
000180
ENDCHAR
STARTCHAR C2547
ENCODING 9543
SWIDTH 400 0
DWIDTH 24 0
BBX 24 24 0 -2
BITMAP
004000
006007
007FFF
C66000
FF6004
E76FFE
E66060
E66060
E66060
E66060
E66060
E66062
E67FFF
E66060
E66060
E66060
E66060
FEC060
E6C060
40C060
008060
018060
030060
020040
ENDCHAR
STARTCHAR C2548
ENCODING 9544
SWIDTH 400 0
DWIDTH 24 0
BBX 24 24 0 -2
BITMAP
000000
000000
00600E
C67FFF
FF7666
E77666
E67666
E67666
E67666
E67666
E67666
E67666
E67666
E67666
E67666
E67666
E67666
FE7666
E67666
407666
007666
00FFFF
000000
000000
ENDCHAR
STARTCHAR C2549
ENCODING 9545
SWIDTH 400 0
DWIDTH 24 0
BBX 24 24 0 -2
BITMAP
0001C0
0001C0
0001BC
C60FFE
FF7980
E7018C
E6218E
E6118C
E61998
E619B0
E60180
E60182
E6FFFF
E60180
E60180
E60180
E60180
FE0180
E60180
400180
000180
001F80
000F00
000200
ENDCHAR
STARTCHAR C254a
ENCODING 9546
SWIDTH 400 0
DWIDTH 24 0
BBX 24 24 0 -2
BITMAP
001C00
001C00
001800
C61800
FF1807
E73FFF
E631C6
E661CC
E6C1C0
E601C0
E601C0
E61DD0
E619C8
E619CC
E631C6
E631C7
E661C3
FEC1C3
E681C0
4001C0
0001C0
001FC0
000780
000300
ENDCHAR
STARTCHAR C254b
ENCODING 9547
SWIDTH 400 0
DWIDTH 24 0
BBX 24 24 0 -2
BITMAP
000007
000607
00FE06
0C1866
FE1866
E61866
E61866
E61866
E61B66
E7FF66
E61866
E61866
E61866
E61866
E61866
E61866
EE1866
FE1846
E41806
401806
001806
00183E
00181C
001008
ENDCHAR
STARTCHAR C254c
ENCODING 9548
SWIDTH 400 0
DWIDTH 24 0
BBX 24 24 0 -2
BITMAP
000008
00007C
0027FC
C63E00
FF3000
E73000
E63000
E63000
E63000
E63FFE
E63070
E63060
E63060
E63060
E63060
E63060
E63060
FE3060
E63060
403060
003060
003062
01FFFF
000000
ENDCHAR
STARTCHAR C254d
ENCODING 9549
SWIDTH 400 0
DWIDTH 24 0
BBX 24 24 0 -2
BITMAP
000004
00003E
0003FE
C67F00
FF0000
E70180
E601C0
E60080
E6000E
E67FFF
E6000C
E60018
E60030
E60060
E601C0
E60300
E60600
FE1C00
E63800
407000
00F800
00DFFF
0003FF
0001FC
ENDCHAR
STARTCHAR C254e
ENCODING 9550
SWIDTH 400 0
DWIDTH 24 0
BBX 24 24 0 -2
BITMAP
000000
60000C
7FFFFE
61C30C
61830C
63030C
6603FC
6C01FC
70000C
60000C
60000C
7FFFFC
60000C
000000
100030
1FFFF8
180038
180038
180038
180038
180038
1FFFF8
180030
180000
ENDCHAR
STARTCHAR C254f
ENCODING 9551
SWIDTH 400 0
DWIDTH 24 0
BBX 24 24 0 -2
BITMAP
000030
1FFFF0
1C0030
1C0030
1C0030
1C0030
1FFFF0
083000
001802
7FFFFF
EE0007
C60026
87FFF4
0C0000
0C0010
0FFFF8
0C0038
000038
000038
000038
000030
003FF0
0003E0
0001C0
ENDCHAR
STARTCHAR C2550
ENCODING 9552
SWIDTH 400 0
DWIDTH 24 0
BBX 24 24 0 -2
BITMAP
100000
180038
1FFFF8
180038
180038
180038
180038
180038
1FFFF0
100000
0001E0
01FFF0
3F1800
001800
001802
FFFFFF
007C00
00DE00
019B00
0319C0
061878
18183F
30180F
C01002
ENDCHAR
STARTCHAR C2551
ENCODING 9553
SWIDTH 400 0
DWIDTH 24 0
BBX 24 24 0 -2
BITMAP
001800
101810
1C1838
181838
181838
181838
3FFFF8
001C10
001800
001804
00380E
7FFFFE
001800
001800
001860
0FFFF0
0C0070
0C0060
0C0060
0C0060
0C0060
0FFFE0
0C0060
0C0000
ENDCHAR
STARTCHAR C2552
ENCODING 9554
SWIDTH 400 0
DWIDTH 24 0
BBX 24 24 0 -2
BITMAP
001800
081820
1C1838
1C1830
1C1830
1FFFF0
081820
001800
38181C
38181C
301818
301818
3FFFF8
000018
000020
1FFFF0
1C0030
1C0030
1C0030
1C0030
1C0030
1FFFF0
1C0030
180020
ENDCHAR
STARTCHAR C2553
ENCODING 9555
SWIDTH 400 0
DWIDTH 24 0
BBX 24 24 0 -2
BITMAP
000000
60000C
7FFFFE
60000C
60300C
60180C
6098CC
60C0CC
60C18C
60C30C
64C60C
64CC6C
6CD87C
7CF03C
60E0BC
60C18C
61E18C
637F8C
663F0C
78000C
60000C
7FFFFC
60000C
600000
ENDCHAR
STARTCHAR C2554
ENCODING 9556
SWIDTH 400 0
DWIDTH 24 0
BBX 24 24 0 -2
BITMAP
000000
60000C
7FFFFE
60010C
62038C
63FFCC
63018C
63018C
63018C
63FF8C
63000C
63008C
63FFCC
6301CC
6301CC
6301CC
6301CC
6301CC
63FFCC
63008C
62000C
7FFFFC
60000C
600000
ENDCHAR
STARTCHAR C2555
ENCODING 9557
SWIDTH 400 0
DWIDTH 24 0
BBX 24 24 0 -2
BITMAP
000000
60000C
7FFFFE
60000C
60004C
6FFFEC
60C00C
60C00C
60C00C
61C00C
6181CC
63FFEC
6380CC
6580CC
6980CC
6180CC
6180CC
61FFCC
61808C
60000C
60000C
7FFFFC
60000C
600000
ENDCHAR
STARTCHAR C2556
ENCODING 9558
SWIDTH 400 0
DWIDTH 24 0
BBX 24 24 0 -2
BITMAP
1001C0
1C01D8
18018C
18018C
180180
180182
FFFFFF
180180
180180
18199C
18199C
181998
181998
181998
181998
181998
183198
1E3198
383198
F06198
E0619F
40C18F
018180
000180
ENDCHAR
STARTCHAR C2557
ENCODING 9559
SWIDTH 400 0
DWIDTH 24 0
BBX 24 24 0 -2
BITMAP
000000
00000C
7FFFFC
018000
030030
07FFF8
0E0038
1E0038
360038
E60038
060038
07FFF8
061030
001C00
001800
001800
003838
1FFFF8
001800
001800
001800
001806
FFFFFF
000000
ENDCHAR
STARTCHAR C2558
ENCODING 9560
SWIDTH 400 0
DWIDTH 24 0
BBX 24 24 0 -2
BITMAP
000000
0001C0
3FFFE0
0300C6
0600FE
064006
0C6006
18E1C6
31FFDE
E3C38C
0C7600
103C00
003800
00C000
039C00
1E3830
007FF8
01E078
0730E0
1C1B80
000E00
003800
00C000
3F0000
ENDCHAR
STARTCHAR C2559
ENCODING 9561
SWIDTH 400 0
DWIDTH 24 0
BBX 24 24 0 -2
BITMAP
003000
003000
00600E
7FFFFE
018100
0300C0
060078
0C823F
38E38F
E0C312
3FFFF8
00C338
10C338
1FFFF0
38C300
30C30C
3FFFFE
01830E
01830C
03030C
07037C
0E0318
1C0300
700200
ENDCHAR
STARTCHAR C255a
ENCODING 9562
SWIDTH 400 0
DWIDTH 24 0
BBX 24 24 0 -2
BITMAP
003000
003000
00600E
7FFFFE
018100
0300C0
060078
0C003F
3F000F
E60032
07FFF8
06C000
0CC000
18C020
30FFF0
20C000
00C000
00C020
00FFF0
00E000
00C000
00C000
00C000
00C000
ENDCHAR
STARTCHAR C255b
ENCODING 9563
SWIDTH 400 0
DWIDTH 24 0
BBX 24 24 0 -2
BITMAP
0000E0
3800E0
3800C0
3000C0
3100C0
3380C6
FFDFFE
FB80C0
3380C0
3380C0
3380C0
3380C2
733FFF
630180
670180
E60300
3E0300
0E0618
1F0C0C
138806
2190FF
407F83
803001
001001
ENDCHAR
STARTCHAR C255c
ENCODING 9564
SWIDTH 400 0
DWIDTH 24 0
BBX 24 24 0 -2
BITMAP
0000E0
3800E0
3800C0
3000C0
3110C6
339FFF
FFD8C7
FB98C6
3398C4
3398C0
3398CC
339FFE
731A0E
631A0C
671B18
E63138
3E31B0
0E30E0
1F70E0
13E1F0
20639C
40C70F
808C07
003000
ENDCHAR
STARTCHAR C255d
ENCODING 9565
SWIDTH 400 0
DWIDTH 24 0
BBX 24 24 0 -2
BITMAP
000004
38180E
381FFF
301806
311806
339806
FFD806
FB9806
339806
339FFE
339BB4
338330
730330
630330
670330
E60730
3E0630
0E0630
1F0C30
139831
219831
40303F
80603F
01C00E
ENDCHAR
STARTCHAR C255e
ENCODING 9566
SWIDTH 400 0
DWIDTH 24 0
BBX 24 24 0 -2
BITMAP
0001C0
3801C0
380380
300700
310E08
339C04
FFFFFE
FBBE07
33B003
338000
338F3C
338E38
730E38
630E38
677FFF
E60E38
3E0E38
0E0C38
1F0C38
139838
219838
403038
806038
00C030
ENDCHAR
STARTCHAR C255f
ENCODING 9567
SWIDTH 400 0
DWIDTH 24 0
BBX 24 24 0 -2
BITMAP
001000
381807
381FFF
3018C7
3118C7
3398C7
FFD8C7
FB98C7
339FFF
3398C7
3398C7
3398C7
7318C7
6318C7
671FFF
E618C7
3E18C7
0E18C7
1F38C7
13B0C7
21B0C7
4060FF
8040CE
00800C
ENDCHAR
STARTCHAR C2560
ENCODING 9568
SWIDTH 400 0
DWIDTH 24 0
BBX 24 24 0 -2
BITMAP
000004
38007E
381FFE
3018C0
3118C0
3398C0
FFD8C0
FB98C0
3398C6
339FFF
3398C0
3398C0
731860
631860
671860
E61860
3E1830
0E1830
1F1B19
139E19
21DC0F
40D80F
8007F7
000000
ENDCHAR
STARTCHAR C2561
ENCODING 9569
SWIDTH 400 0
DWIDTH 24 0
BBX 24 24 0 -2
BITMAP
00000E
38107E
381FF8
301998
311998
339998
FFD998
FB9998
339998
339998
339998
339998
731998
63198C
671B0C
E63B0C
3E330C
0E330C
1F3666
13E436
206CFF
405F9B
80CC0B
018001
ENDCHAR
STARTCHAR C2562
ENCODING 9570
SWIDTH 400 0
DWIDTH 24 0
BBX 24 24 0 -2
BITMAP
001800
001800
301818
3FFFFC
301818
301818
3FFFF8
383818
301818
301818
383818
3FFFF8
30C000
00C1C0
0181C6
FFFFFF
030180
070300
060700
0FCE00
047F00
0073E0
038078
7E003C
ENDCHAR
STARTCHAR C2563
ENCODING 9571
SWIDTH 400 0
DWIDTH 24 0
BBX 24 24 0 -2
BITMAP
00C000
01C000
0380E0
060070
0C07F8
1FFE1C
0CC00C
00C006
FFFFFF
030040
060020
0C8018
18E00F
30C1E7
E181C3
3FFFFC
0381C0
030180
060300
0FC600
047F80
0073F8
03803C
7E000E
ENDCHAR
STARTCHAR C2564
ENCODING 9572
SWIDTH 400 0
DWIDTH 24 0
BBX 24 24 0 -2
BITMAP
003000
201800
200806
7FFFFF
E00006
C00004
FFFFFC
030000
030000
030000
0301C0
07FFE0
0600C0
0640C0
0638C0
0618C0
0608C0
0600C0
0600C1
0600C3
06F8C2
7FC0FE
78007E
60003C
ENDCHAR
STARTCHAR C2565
ENCODING 9573
SWIDTH 400 0
DWIDTH 24 0
BBX 24 24 0 -2
BITMAP
003000
201800
200806
7FFFFF
E00006
C0006C
8FFFF8
0000F0
0001C0
000700
001C00
001800
001806
FFFFFF
001800
001800
021800
071870
0C181C
18180F
301807
E1F803
007800
003000
ENDCHAR
STARTCHAR C2566
ENCODING 9574
SWIDTH 400 0
DWIDTH 24 0
BBX 24 24 0 -2
BITMAP
003000
201800
200806
7FFFFF
E00006
C0E004
A7E008
3C07FC
30E60C
30E60C
30C60C
30C60C
30C60C
30C60C
30C60C
30C60C
31C60C
3EC61C
38C6FC
118638
030600
060600
0C0600
300600
ENDCHAR
STARTCHAR C2567
ENCODING 9575
SWIDTH 400 0
DWIDTH 24 0
BBX 24 24 0 -2
BITMAP
700060
700060
600060
604060
60E060
7FF76C
DB6666
9B6667
9B6663
1B6C63
136C60
376866
367866
36606C
26606C
6E605C
4C6018
CC6030
986060
3060C0
20E180
5FC300
078E00
033800
ENDCHAR
STARTCHAR C2568
ENCODING 9576
SWIDTH 400 0
DWIDTH 24 0
BBX 24 24 0 -2
BITMAP
010000
38800C
30C7FE
30660E
20760C
60360C
C0060C
91860C
19860C
1987FC
19860C
19860C
19860C
19860C
19860C
19860C
3187FC
31860C
318401
318001
618003
61FFFF
C0FFFF
807FFE
ENDCHAR
STARTCHAR C2569
ENCODING 9577
SWIDTH 400 0
DWIDTH 24 0
BBX 24 24 0 -2
BITMAP
1C0100
1C01C0
1C08C2
1C0FFF
1C1807
1C1006
FFC020
1F8230
1F8310
1F8318
1F8308
1F860C
1F860C
1B840C
1B8C06
1B8807
339003
33A000
338000
338001
638001
63FFFF
C1FFFF
80FFFE
ENDCHAR
STARTCHAR C256a
ENCODING 9578
SWIDTH 400 0
DWIDTH 24 0
BBX 24 24 0 -2
BITMAP
1C0000
1C0F00
1C0E0C
1C0FFE
1C0C0E
1C184C
FFDFEC
1F8CEC
1F8C6C
1F8C6C
1F8CEC
1F8FCC
1F8C7C
1B8C18
1B8C02
1B8C06
338E06
338FFE
3387FC
338001
638001
63FFFF
C1FFFF
80FFFE
ENDCHAR
STARTCHAR C256b
ENCODING 9579
SWIDTH 400 0
DWIDTH 24 0
BBX 24 24 0 -2
BITMAP
1C0000
1C0006
1C1FFE
1C00C0
1C00C4
1C5FFE
FFF8C6
1F98C6
1F98E6
1F99B6
1F991E
1F9A1E
1F9C0E
1B9806
1B9806
1B9806
33983E
33980C
338001
338001
638003
63FFFF
C1FFFF
80FFFE
ENDCHAR
STARTCHAR C256c
ENCODING 9580
SWIDTH 400 0
DWIDTH 24 0
BBX 24 24 0 -2
BITMAP
200000
30000C
3FFFFE
30000C
30000C
3FFFFC
300000
3FFFFE
3070C0
3060C0
30C0C0
3180E0
3300FF
36007F
380000
70FFE0
60C0E0
60C060
61C060
418061
C30061
C6007F
8C007F
30003E
ENDCHAR
STARTCHAR C256d
ENCODING 9581
SWIDTH 400 0
DWIDTH 24 0
BBX 24 24 0 -2
BITMAP
001800
001808
3FFFFC
30180C
30180C
3FFFFC
30180C
30180C
3FFFFC
200008
000000
20001C
3FFFFC
30000C
30000C
30000C
3FFFFC
300008
300000
300000
600000
600000
400000
C00000
ENDCHAR
STARTCHAR C256e
ENCODING 9582
SWIDTH 400 0
DWIDTH 24 0
BBX 24 24 0 -2
BITMAP
100004
1C000E
183FFF
180006
180006
990066
DB9FE6
9B8006
9B8006
9B98C6
9B9FE6
9B98C6
9B98C6
9B98C6
9B98C6
9B98C6
9B9FC6
9B98C6
FF8006
010006
000006
0000FE
00003C
000008
ENDCHAR
STARTCHAR C256f
ENCODING 9583
SWIDTH 400 0
DWIDTH 24 0
BBX 24 24 0 -2
BITMAP
1001C0
1C01C0
1801C0
1801C0
1801CC
991FFC
DB81C0
9B81C0
9B81C0
9B81C0
9B81C7
9BFFFF
9B81C0
9B83E0
9B83E0
9B87F0
9B8DD8
9B9DDC
FFB9CF
0171C7
00E1C3
0181C0
0001C0
000180
ENDCHAR
STARTCHAR C2570
ENCODING 9584
SWIDTH 400 0
DWIDTH 24 0
BBX 24 24 0 -2
BITMAP
100E0C
1C0E0C
180C0C
180C0C
180C0C
990C0C
DBBFFF
9B8C1C
9B8C0C
9B8C0C
9B8C0C
9B8C0C
9B8C0C
9B8C1C
9B8FFC
9B8C0C
9B8C0C
9B8C0C
FF8C0C
010C0C
000C0C
000FFC
000C1C
000C08
ENDCHAR
STARTCHAR C2571
ENCODING 9585
SWIDTH 400 0
DWIDTH 24 0
BBX 24 24 0 -2
BITMAP
100006
1C3FFE
183006
183006
183006
993FFE
DBB106
9BB1C0
9BB180
9BB180
9BB1B8
9BBFFC
9BB198
9BB198
9BB198
9BB198
9BB318
9BB318
FFF318
016619
006619
00CC1F
01980F
007006
ENDCHAR
STARTCHAR C2572
ENCODING 9586
SWIDTH 400 0
DWIDTH 24 0
BBX 24 24 0 -2
BITMAP
107000
187000
107000
107000
107000
927766
92FF7F
927367
927367
927367
927367
927367
927367
927367
927367
926367
926367
926367
FEC367
02C367
008667
01FE7F
031C62
061800
ENDCHAR
STARTCHAR C2573
ENCODING 9587
SWIDTH 400 0
DWIDTH 24 0
BBX 24 24 0 -2
BITMAP
1000E0
1C00E0
1800C0
1800C0
1810C7
991FFF
DB98C7
9B98C7
9B98C7
9B98C7
9B98C7
9B9FFF
9B80C2
9B90C0
9B88C0
9B85C0
9B8380
9B8180
FF83C0
010360
000638
000C1F
00180F
00E007
ENDCHAR
STARTCHAR C2574
ENCODING 9588
SWIDTH 400 0
DWIDTH 24 0
BBX 24 24 0 -2
BITMAP
100004
1C003E
1801FE
181F80
180000
990180
DB80C0
9B8040
9B800E
9BBFFF
9B800C
9B8018
9B8030
9B8060
9B80C0
9B8180
9B8300
9B8600
FF8C00
011800
003C00
0067FF
0001FF
00007C
ENDCHAR
STARTCHAR C2575
ENCODING 9589
SWIDTH 400 0
DWIDTH 24 0
BBX 24 24 0 -2
BITMAP
100E00
1C0E00
180E00
180C06
180FFE
991806
DB9806
9BB046
9BBFE6
9B9866
9B9866
9B9866
9B9866
9B9FE6
9B9846
9B987E
9B981C
9B9818
FF9801
011801
001803
001FFF
000FFF
0007FE
ENDCHAR
STARTCHAR C2576
ENCODING 9590
SWIDTH 400 0
DWIDTH 24 0
BBX 24 24 0 -2
BITMAP
000004
00000E
7FFFFE
030000
030030
07FFF8
0E0038
1E0038
3E0038
760038
C60038
07FFF8
060030
001000
001C00
001800
38181C
381818
301818
301818
301818
301818
3FFFF8
000018
ENDCHAR
STARTCHAR C2577
ENCODING 9591
SWIDTH 400 0
DWIDTH 24 0
BBX 24 24 0 -2
BITMAP
1C00E0
1C00E0
1C00CC
1C11FE
1D9FC0
FFD8C0
DDD8C0
DD98C0
DD98C0
DD98C0
DD98C7
DDBFFF
DD81C7
DD83C7
DD83C7
DD87C7
DF86C7
DF0CC7
1C18FE
1C30CC
1C60C0
1CC0C0
1C00C0
1800C0
ENDCHAR
STARTCHAR C2578
ENCODING 9592
SWIDTH 400 0
DWIDTH 24 0
BBX 24 24 0 -2
BITMAP
060070
060070
060060
066062
FFE7FF
060060
060060
064066
FFE7FF
E66667
E66667
E66667
E66667
E66667
E66667
E66667
E66667
E66667
E66667
E7E66E
C6C666
060060
060060
040060
ENDCHAR
STARTCHAR C2579
ENCODING 9593
SWIDTH 400 0
DWIDTH 24 0
BBX 24 24 0 -2
BITMAP
1C0000
1C0080
1C00E7
1C0067
1D8026
FFC38E
DDC30C
DD830C
DD8318
DD8338
DD9330
DD9370
DD936C
DD9366
DDB3C3
DDF383
DFE381
DF0301
1C0704
1C0F04
1C1F8C
1C3BFC
1C71FC
19C000
ENDCHAR
STARTCHAR C257a
ENCODING 9594
SWIDTH 400 0
DWIDTH 24 0
BBX 24 24 0 -2
BITMAP
1C0000
1C0006
1C3FFF
1C0060
1D8060
FFC060
DDC060
DD8060
DD8860
DD8E60
DD8C64
DD8C7E
DD8C60
DD8C60
DD8C60
DD8C60
DF8C60
DF0C60
1C0C60
1C0C60
1C0C60
1C0C62
1C7FFF
180000
ENDCHAR
STARTCHAR C257b
ENCODING 9595
SWIDTH 400 0
DWIDTH 24 0
BBX 24 24 0 -2
BITMAP
1C0300
1C0300
1C0300
1C0302
1DBFFF
FFC660
DDC660
DD8E60
DD8C62
DD8FFF
DD9CE7
DD9C67
DDAC67
DDCC67
DD8C67
DD8C67
DF8C67
DF0C67
1C0C67
1C0C67
1C0C6E
1C0864
1C0060
180040
ENDCHAR
STARTCHAR C257c
ENCODING 9596
SWIDTH 400 0
DWIDTH 24 0
BBX 24 24 0 -2
BITMAP
1C0370
1C0370
1C0360
1C0366
1DBFFE
FFC366
DDC366
DD8366
DDA366
DDBFFE
DDB360
DDB360
DDB360
DDB777
DDBFFF
DD8367
DF8667
DF0667
1C0E67
1C0C7E
1C1C66
1C3860
1C7060
18C060
ENDCHAR
STARTCHAR C257d
ENCODING 9597
SWIDTH 400 0
DWIDTH 24 0
BBX 24 24 0 -2
BITMAP
1C0000
1C0007
1C3FFF
1C0307
1D8307
FFC307
DDC307
DD8207
DD8606
DD8CFE
DD883C
DD9018
DDA004
DD980E
DD9FFF
DD9806
DF9806
DF1806
1C1806
1C1806
1C1806
1C1FFE
1C1C06
181804
ENDCHAR
STARTCHAR C257e
ENCODING 9598
SWIDTH 400 0
DWIDTH 24 0
BBX 24 24 0 -2
BITMAP
1C0E00
1C0E00
1C0C00
1C1800
1D9C07
FFDFFF
DDD180
DDB180
DDA180
DD8180
DD8186
DD81FE
DD8180
DD8180
DD8180
DD8180
DF8186
DF01FE
1C0180
1C0180
1C0180
1C0180
1C0180
180180
ENDCHAR
STARTCHAR C2621
ENCODING 9761
SWIDTH 400 0
DWIDTH 24 0
BBX 24 24 0 -2
BITMAP
1C0E00
1C0E00
1C0C00
1C0C06
1D9FFF
FFD807
DDD807
DDB007
DD88E7
DD8FE7
DD8C67
DD8C67
DD8C67
DD8C67
DD8FE7
DD8C67
DF8807
DF0007
1C0006
1C0006
1C000E
1C03FC
1C0078
180030
ENDCHAR
STARTCHAR C2622
ENCODING 9762
SWIDTH 400 0
DWIDTH 24 0
BBX 24 24 0 -2
BITMAP
1C0E0E
1C0E0E
1C0E0C
1C0C0C
1D8C0C
FFCC0C
DDDBFF
DD980C
DD980C
DDB90C
DDF98C
DDD8CC
DD986C
DD986C
DD980C
DD980C
DF980C
DF180C
1C180C
1C180C
1C180C
1C187C
1C181C
181818
ENDCHAR
STARTCHAR C2623
ENCODING 9763
SWIDTH 400 0
DWIDTH 24 0
BBX 24 24 0 -2
BITMAP
1C0070
1C0870
180C60
181860
9B1860
FFB062
9B31FF
9B6677
9B6667
9BEE67
9B7C67
9B1C67
9B1867
9B1867
9B3467
9B6667
9B67C7
9FFFC7
98E3C7
184187
180386
18077E
180E1C
181818
ENDCHAR
STARTCHAR C2624
ENCODING 9764
SWIDTH 400 0
DWIDTH 24 0
BBX 24 24 0 -2
BITMAP
0C00E0
0C00E0
1800C0
1800C0
31C0C0
618ED0
E30ECC
E60CC6
3C0CC7
1C18C3
1818C1
3910C0
31A0C6
61C0C6
FFC0CC
FCC0CC
4C0018
0C0030
0C0060
0C00C0
0C0180
0C0700
0C0C00
0C7000
ENDCHAR
STARTCHAR C2625
ENCODING 9765
SWIDTH 400 0
DWIDTH 24 0
BBX 24 24 0 -2
BITMAP
030038
070038
060070
0C00E0
1801C0
3603A0
E70730
060060
0C0060
1C00C0
1881CC
30C38E
61870C
718718
1F01F8
060070
060060
0C0060
1800C8
18818C
304386
FFE7FF
F877C3
603603
ENDCHAR
STARTCHAR C2626
ENCODING 9766
SWIDTH 400 0
DWIDTH 24 0
BBX 24 24 0 -2
BITMAP
001800
000C00
300C06
3FFFFF
300600
300700
300600
300600
300602
3FFFFF
301F00
301F80
3036C0
307660
306630
30C638
31861C
63060F
660607
6DFFF2
700600
C00600
800600
000600
ENDCHAR
STARTCHAR C2627
ENCODING 9767
SWIDTH 400 0
DWIDTH 24 0
BBX 24 24 0 -2
BITMAP
001800
000C00
300C06
3FFFFF
304000
307000
306000
306006
3FFFFE
30C380
30C300
31830E
31FFFF
33C306
36C306
3CC306
38C306
60C306
60C306
60C37E
60830C
C00308
800300
000300
ENDCHAR
STARTCHAR C2628
ENCODING 9768
SWIDTH 400 0
DWIDTH 24 0
BBX 24 24 0 -2
BITMAP
001800
000C00
300C06
3FFFFF
300200
300380
300300
300306
33FFFF
330307
330304
330300
330318
33FFFC
332038
331030
331830
630C60
6607C0
660780
6607E0
CC1CFF
98703F
37800F
ENDCHAR
STARTCHAR C2629
ENCODING 9769
SWIDTH 400 0
DWIDTH 24 0
BBX 24 24 0 -2
BITMAP
001800
000C00
300C06
3FFFFF
300000
310070
33FFF8
338030
338030
338030
338030
33FFF0
338020
338000
338018
33FFFC
338018
638018
638018
638018
638018
C3FFF8
838018
030000
ENDCHAR
STARTCHAR C262a
ENCODING 9770
SWIDTH 400 0
DWIDTH 24 0
BBX 24 24 0 -2
BITMAP
001800
000C00
300C06
3FFFFF
300000
30000C
33FFFE
33060E
33060C
33060C
33060C
33060C
33060C
33060C
33FFFC
33060C
33060C
63060C
63060C
63060C
63060C
C3FFFC
83000C
020000
ENDCHAR
STARTCHAR C262b
ENCODING 9771
SWIDTH 400 0
DWIDTH 24 0
BBX 24 24 0 -2
BITMAP
001800
000C00
300C06
3FFFFF
300000
32000C
33FFFE
33000C
3300EC
337FEC
33206C
3310CC
3310CC
33098C
330F8C
33070C
330F8C
631DFC
6338FC
63602C
63800C
C3FFFC
83000C
030000
ENDCHAR
STARTCHAR C262c
ENCODING 9772
SWIDTH 400 0
DWIDTH 24 0
BBX 24 24 0 -2
BITMAP
001800
000C00
300C06
3FFFFF
300000
3000FC
307FFC
37E600
300600
300600
300607
37FFFF
301F80
301E80
3036C0
306660
306630
60C638
61861C
63060F
660607
DC0602
800600
000600
ENDCHAR
STARTCHAR C262d
ENCODING 9773
SWIDTH 400 0
DWIDTH 24 0
BBX 24 24 0 -2
BITMAP
001800
000C00
300C06
3FFFFF
300000
30C180
30C188
30C1FC
3187FC
31BD80
338180
338180
378180
3F8187
33BFFF
338180
338180
638180
638180
638181
638181
C381FF
8381FF
03007E
ENDCHAR
STARTCHAR C262e
ENCODING 9774
SWIDTH 400 0
DWIDTH 24 0
BBX 24 24 0 -2
BITMAP
061060
061C60
061860
061860
0E38E7
FFFFFF
0E1860
0C1860
1C1860
181860
301860
601040
061060
061C60
061860
061860
0E38E7
FFFFFF
0E1860
0C1860
1C1860
181860
301860
601040
ENDCHAR
STARTCHAR C262f
ENCODING 9775
SWIDTH 400 0
DWIDTH 24 0
BBX 24 24 0 -2
BITMAP
0200E0
0700E0
FF80C0
0300C0
0300C0
0300C2
031FFF
7F00C0
6200C0
6000C0
6000C0
E300C0
FF80C6
039FFE
039806
039806
039806
039806
039806
031806
071806
FE1FFE
3C1C06
181804
ENDCHAR
STARTCHAR C2630
ENCODING 9776
SWIDTH 400 0
DWIDTH 24 0
BBX 24 24 0 -2
BITMAP
000E00
001E00
00F080
1F83E0
000E00
00F87C
1F81F0
000F00
00F800
3F8000
000060
0FFFF0
0C0070
0C0060
0C0060
0FFFE0
0C0060
0C0060
0FFFE0
0C0060
0C0060
0C0062
FFFFFF
000000
ENDCHAR
STARTCHAR C2631
ENCODING 9777
SWIDTH 400 0
DWIDTH 24 0
BBX 24 24 0 -2
BITMAP
060200
060100
0C0180
0C00C0
180087
307FFF
638008
43800E
07100C
06180C
0C1818
1C0C18
1C0C18
3C0C18
6C0E38
CC0630
0C0630
0C0620
0C0260
0C0260
0C0040
0C0002
0CFFFF
0C0000
ENDCHAR
STARTCHAR C2632
ENCODING 9778
SWIDTH 400 0
DWIDTH 24 0
BBX 24 24 0 -2
BITMAP
060000
060007
0C7FFF
0C00E0
1800C0
3001C0
6381C0
4383C0
0703D0
0607D8
0C07CC
1C0DC6
1C19C7
3C11C3
6C21C3
CC41C1
0C01C0
0C01C0
0C01C0
0C01C0
0C0180
0C0002
0C7FFF
0C0000
ENDCHAR
STARTCHAR C2633
ENCODING 9779
SWIDTH 400 0
DWIDTH 24 0
BBX 24 24 0 -2
BITMAP
0601C0
0601C0
0C01C0
0C01C6
183FFE
3031C6
63B1C6
43B1C6
0731C6
063FFE
0C31C6
1C31C6
1C31C6
3C31C6
6C31C6
CCFFFF
0C3006
0C3006
0C3006
0C3006
0C3006
0C303E
0C301C
0C3008
ENDCHAR
STARTCHAR C2634
ENCODING 9780
SWIDTH 400 0
DWIDTH 24 0
BBX 24 24 0 -2
BITMAP
003000
001C00
030E70
0300E0
13038C
330706
631C13
E37013
03C031
07FFF0
1CFFE0
F02000
001800
001806
FFFFFF
1C0000
1C0000
1C0000
1C0000
1C0000
1C0000
0FFFFC
07FFFC
000000
ENDCHAR
STARTCHAR C2635
ENCODING 9781
SWIDTH 400 0
DWIDTH 24 0
BBX 24 24 0 -2
BITMAP
1C0000
1C0007
1C3FFF
1C0000
1C0000
1C1004
3E1FFE
7F1806
7F9806
DD1806
DC1806
9C1806
1C1806
1C1806
1C1FFE
1C1806
1C1806
1C1806
1C1806
1C1806
1C1806
1C1FFE
1C1804
181000
ENDCHAR
STARTCHAR C2636
ENCODING 9782
SWIDTH 400 0
DWIDTH 24 0
BBX 24 24 0 -2
BITMAP
380800
381C18
30FE1C
300C18
300C18
380C38
7C8C38
7EFC30
F6CC30
F6C030
B18030
B18860
31FC60
318C60
300C60
300CE0
300CCC
300CC6
300DC6
300D83
301FFF
31FBE3
30F181
306000
ENDCHAR
STARTCHAR C2637
ENCODING 9783
SWIDTH 400 0
DWIDTH 24 0
BBX 24 24 0 -2
BITMAP
1C01C0
1C01C0
1C01C0
1C01C0
1C21C7
1C7FFF
3E71C7
7F71C7
7FF1C7
DD7FFF
DC71C7
9C71C7
1C71C7
1C71C7
1C7FFF
1C61C6
1C01C0
1C01C0
1C01C0
1C01C0
1C01C0
1C01C0
1C01C0
180180
ENDCHAR
STARTCHAR C2638
ENCODING 9784
SWIDTH 400 0
DWIDTH 24 0
BBX 24 24 0 -2
BITMAP
1C01C0
1C21C2
1C71C7
1C71C7
1C71C7
1C7FFF
3E2006
7F0000
7FBFFC
DD0E1C
DC0E18
9C0E18
1C0E3A
1C0E3F
1C0E07
1C0C07
1C0C07
1C1807
1C1807
1C1007
1C3006
1C60FE
1CC03C
198018
ENDCHAR
STARTCHAR C2639
ENCODING 9785
SWIDTH 400 0
DWIDTH 24 0
BBX 24 24 0 -2
BITMAP
01E01E
6FE6FE
7C07C0
600600
606606
7FF7FF
607607
607607
607607
607607
607607
7FF7FF
606606
600600
600600
600600
600600
600600
600600
E00E00
C00C00
C00C00
800800
800800
ENDCHAR
STARTCHAR C263a
ENCODING 9786
SWIDTH 400 0
DWIDTH 24 0
BBX 24 24 0 -2
BITMAP
1C0060
1C006C
1C0066
1C0063
1C0060
1D7FFF
FF7060
1C7060
1C7060
1C7067
1C7067
1F7066
1C7066
FC706C
FC706C
5C707C
1C7078
1C7038
1C6078
1C6079
1CC0CD
FCC18F
398307
301C03
ENDCHAR
STARTCHAR C263b
ENCODING 9787
SWIDTH 400 0
DWIDTH 24 0
BBX 24 24 0 -2
BITMAP
0E0004
0E180E
0C1FFF
0C1806
0C1806
0C9806
FFD806
0C1806
0C1FFE
0C1806
0C1806
0F9806
3E1806
FC1806
EC1806
4C1FFE
0C1806
0C1806
0C1806
0C1806
0C1806
FC1FFE
3C1C06
181804
ENDCHAR
STARTCHAR C263c
ENCODING 9788
SWIDTH 400 0
DWIDTH 24 0
BBX 24 24 0 -2
BITMAP
1C0000
1C0006
1C7FFF
1C7367
1C7367
1D7367
FF7367
1C7367
1C7367
1C7367
1C7367
1F7667
1C7667
FC747F
FC7C3F
5C7807
1C7007
1C7007
1C7007
1C7007
1C7007
FC7FFF
386002
300000
ENDCHAR
STARTCHAR C263d
ENCODING 9789
SWIDTH 400 0
DWIDTH 24 0
BBX 24 24 0 -2
BITMAP
1C0300
1C0300
1C0200
1C0406
1C7FFF
1D7007
FF7007
1C7037
1C7FFF
1C723F
1C7237
1F7337
1C7167
FC71E7
FC71E7
5C71F7
1C733F
1C761F
1C780F
1C7007
1C7007
FC707F
38701E
30600C
ENDCHAR
STARTCHAR C263e
ENCODING 9790
SWIDTH 400 0
DWIDTH 24 0
BBX 24 24 0 -2
BITMAP
1C0004
1C003E
1C0FFE
1C7800
1C01E0
1D01C0
FF01C0
1C01C0
1C05C2
1C7FC7
1C0FCC
1F0FF8
1C0FE0
FC0DE0
FC0DF0
5C19D8
1C19C8
1C31CC
1C21CF
1C41C7
1C81C3
FD0FC0
380780
300300
ENDCHAR
STARTCHAR C263f
ENCODING 9791
SWIDTH 400 0
DWIDTH 24 0
BBX 24 24 0 -2
BITMAP
0601C0
0601C0
060180
066180
FFE180
060302
0643FF
4EE30C
FFF30C
E6670C
E6650C
E66198
E66098
E66098
E660F8
E66070
E66060
E66070
E660F0
E7E1D8
C6C39C
06070F
060E07
043803
ENDCHAR
STARTCHAR C2640
ENCODING 9792
SWIDTH 400 0
DWIDTH 24 0
BBX 24 24 0 -2
BITMAP
0000E0
0040E0
FFE0C0
E660C0
E660C2
E660FF
E660C0
E660C0
E660C0
E660C6
EE6FFE
FFE20E
E0420C
E0030C
E00118
E001B8
E000F0
E000E0
E030F0
E021F8
E0639C
7FF70F
3FEE07
003803
ENDCHAR
STARTCHAR C2641
ENCODING 9793
SWIDTH 400 0
DWIDTH 24 0
BBX 24 24 0 -2
BITMAP
3001C0
3001C0
300180
706180
7FF180
607302
C073FF
80730C
02730C
3F770C
00750C
007198
007098
007098
0670F8
7F7070
007060
007070
0060F0
0061D8
00E39C
1FC70F
078E07
033803
ENDCHAR
STARTCHAR C2642
ENCODING 9794
SWIDTH 400 0
DWIDTH 24 0
BBX 24 24 0 -2
BITMAP
001800
003800
007C00
00E700
0181C0
07FFF8
0E003F
3801CF
E7FFE2
000180
000100
001200
001804
00180E
001FFE
001800
1FFFF0
020070
0181C0
00E300
003E00
00F7FF
0381FF
FC003F
ENDCHAR
STARTCHAR C2643
ENCODING 9795
SWIDTH 400 0
DWIDTH 24 0
BBX 24 24 0 -2
BITMAP
180008
0C003C
0C43FC
FFEFC0
3801C0
3001C0
3001C0
3001C6
319FFE
3FC1C0
3181C0
3181C0
3181C0
3181C7
319FFF
3181C0
3181C0
2181C0
6181C0
6181C1
6381C1
DF01FF
8E00FF
84007E
ENDCHAR
STARTCHAR C2644
ENCODING 9796
SWIDTH 400 0
DWIDTH 24 0
BBX 24 24 0 -2
BITMAP
0001C0
0001C0
420180
FF0180
E32186
E33FFF
E36187
E3E184
E3C188
E30180
E30380
FF03E0
E30360
E30360
E30660
E30660
E30660
E30C60
FF1860
C21861
003061
00607F
00C07F
07003E
ENDCHAR
STARTCHAR C2645
ENCODING 9797
SWIDTH 400 0
DWIDTH 24 0
BBX 24 24 0 -2
BITMAP
000000
000007
427FFF
FF0E00
E30E00
E30E00
E30C08
E30C1C
E30FFC
E30C0C
E3180C
FF180C
E3181C
E31818
E31818
E33FF8
E31038
E30038
FF0038
C20030
000030
000032
00FFFF
000000
ENDCHAR
STARTCHAR C2646
ENCODING 9798
SWIDTH 400 0
DWIDTH 24 0
BBX 24 24 0 -2
BITMAP
0001C0
0001C8
420186
FF0187
E30182
E30180
E30182
E3FFFF
E30180
E30180
E30180
FF03C0
E303C0
E30340
E30360
E30660
E30620
E30C30
FF1838
C21818
00301C
00600F
00C007
038003
ENDCHAR
STARTCHAR C2647
ENCODING 9799
SWIDTH 400 0
DWIDTH 24 0
BBX 24 24 0 -2
BITMAP
000380
000380
420300
FF0300
E30308
E33FFC
E3030C
E3030C
E3030C
E3030C
E3030C
FF030C
E37FFF
E30300
E30300
E30720
E30630
E30E18
FF0C0C
C21806
003007
006003
00C003
038001
ENDCHAR
STARTCHAR C2648
ENCODING 9800
SWIDTH 400 0
DWIDTH 24 0
BBX 24 24 0 -2
BITMAP
000600
000300
420100
FF0186
E37FFF
E371C7
E371C7
E371E7
E371E7
E37367
E37337
FF7237
E3763F
E3741F
E37C1F
E37807
E37007
E37007
FF7007
C27007
007007
00707F
00701E
00600C
ENDCHAR
STARTCHAR C2649
ENCODING 9801
SWIDTH 400 0
DWIDTH 24 0
BBX 24 24 0 -2
BITMAP
000020
1C0070
1FFFF8
1C0030
1C0030
1FFFF0
1C0030
1C0030
1FFFF0
030040
060070
1C001C
30000E
C00066
1FFFF0
0300E0
018180
00C300
007C00
003C00
00FF80
03C3FF
0E007F
F0000F
ENDCHAR
STARTCHAR C264a
ENCODING 9802
SWIDTH 400 0
DWIDTH 24 0
BBX 24 24 0 -2
BITMAP
0201C0
6701C0
7F81C0
6301C0
6301C6
633FFF
6331C7
6361C4
7F61C0
6301C0
6301C0
6301F0
6301E0
630360
7F0360
630360
630660
630660
630C60
631861
E31861
DF307F
8E603F
85C01E
ENDCHAR
STARTCHAR C264b
ENCODING 9803
SWIDTH 400 0
DWIDTH 24 0
BBX 24 24 0 -2
BITMAP
000060
0FFFF0
0000E0
00E380
007C00
00180C
7FFFFE
000C0C
000C18
000C10
000C00
00FC00
001800
001C00
001802
FFFFFF
003800
011900
0398E0
061830
0C181C
30180C
C01804
001000
ENDCHAR
STARTCHAR C264c
ENCODING 9804
SWIDTH 400 0
DWIDTH 24 0
BBX 24 24 0 -2
BITMAP
1C01C0
1C01C0
1C01C0
1C01C0
1D01C0
FF81C6
1C7FFF
1C01C0
1C01C0
3E19CC
3F19CC
3F99CC
7D19CC
7C19CC
5C19CC
DC19CC
9C19CC
1C19CC
1C31CC
1C31CF
1C61C7
1C41C0
1C81C0
180180
ENDCHAR
STARTCHAR C264d
ENCODING 9805
SWIDTH 400 0
DWIDTH 24 0
BBX 24 24 0 -2
BITMAP
1C01C0
1C01C0
1C0198
1C018C
1D018C
FF8184
1C0182
1CFFFF
1C0180
3E0180
3F0180
3F8380
7D03E0
7C03C0
5C06C0
DC06C0
9C06C0
1C0CC0
1C0CC1
1C18C1
1C30C3
1C60FF
1CC07F
19803E
ENDCHAR
STARTCHAR C264e
ENCODING 9806
SWIDTH 400 0
DWIDTH 24 0
BBX 24 24 0 -2
BITMAP
0E00E0
0E00E0
0C00C0
0C00C0
0C80C0
FFC0C0
0C18C0
0C18C0
1C18C0
1E18C6
1F18FE
3D98C0
3D98C0
3C18C0
6C18C0
6C18C0
CC18C0
8C30C0
0C30C0
0C38C0
0C6CC0
0C47FF
0C81FF
0D007C
ENDCHAR
STARTCHAR C264f
ENCODING 9807
SWIDTH 400 0
DWIDTH 24 0
BBX 24 24 0 -2
BITMAP
0E000C
0E181C
0C0E18
0C0330
0C81E0
FFC0F0
0C0198
0C030C
1C0C06
1E3802
1F0000
3D880E
3D880E
3C080C
6C041C
6C0618
CC0230
8C0360
0C01C0
0C03E0
0C0630
0C0C1F
0C300F
0CC006
ENDCHAR
STARTCHAR C2650
ENCODING 9808
SWIDTH 400 0
DWIDTH 24 0
BBX 24 24 0 -2
BITMAP
1C1C00
1C1C00
1C180E
1C1FFE
1D1800
FFB000
1C2018
1C5FFC
1C0000
3E0000
3F0018
3FBFFC
7D001C
7C0018
5C0018
DC0018
9C0018
1C0018
1C0018
1C000D
1C000D
1C000F
1C0007
180003
ENDCHAR
STARTCHAR C2651
ENCODING 9809
SWIDTH 400 0
DWIDTH 24 0
BBX 24 24 0 -2
BITMAP
1C00E0
1C00E0
1C0CC0
1C0CC0
1D0CC0
FF9CC0
1C1FFE
1C18C0
1C10C0
3E30C0
3F20C0
3F80C0
7D00C0
7C00C7
5C3FFF
DC00C0
9C00C0
1C00C0
1C00C0
1C00C0
1C00C0
1C00C0
1C00C0
1800C0
ENDCHAR
STARTCHAR C2652
ENCODING 9810
SWIDTH 400 0
DWIDTH 24 0
BBX 24 24 0 -2
BITMAP
1C003C
1C00FE
1C3FC0
1C30C0
1D30C0
FFB0C0
1C30C0
1C30C0
1C30C2
3E3FFF
3F30C0
3FB0C0
7D3060
7C3060
5C3060
DC3060
9C3030
1C3030
1C3038
1C3019
1C371D
1C3C0F
1C3807
183003
ENDCHAR
STARTCHAR C2653
ENCODING 9811
SWIDTH 400 0
DWIDTH 24 0
BBX 24 24 0 -2
BITMAP
060060
060060
060060
060060
060060
06C062
FFEFFF
060060
060060
66C66C
66C66C
66C66C
66C66C
66C66C
66C66C
66C66C
66C66C
66C66C
66E66C
46766F
C63C67
860860
061060
040040
ENDCHAR
STARTCHAR C2654
ENCODING 9812
SWIDTH 400 0
DWIDTH 24 0
BBX 24 24 0 -2
BITMAP
001800
001800
001804
7FFFFE
003800
007C00
01DB80
0398E0
0E1838
38181C
C01800
001000
001800
001800
009870
3FD8E0
01FD80
019F00
031BC0
0618F8
1C183F
30F80E
C07800
003000
ENDCHAR
STARTCHAR C2655
ENCODING 9813
SWIDTH 400 0
DWIDTH 24 0
BBX 24 24 0 -2
BITMAP
180006
1FFFFE
1C0060
1C7FF0
1C6060
1C6060
1C6060
1C63E0
186043
186002
307006
207FFF
401FFE
801000
001C00
001806
FFFFFF
001800
061840
061870
0C181C
18180E
601806
801000
ENDCHAR
STARTCHAR C2656
ENCODING 9814
SWIDTH 400 0
DWIDTH 24 0
BBX 24 24 0 -2
BITMAP
180380
0C0380
0CC300
FFE300
000300
000606
2007FF
3384C6
3F8CCC
3388C8
3390C0
3380C0
3380C0
3380E0
3381E0
3381A0
3381B0
33B3B0
33E318
63831C
61860E
400C0F
C01807
807000
ENDCHAR
STARTCHAR C2657
ENCODING 9815
SWIDTH 400 0
DWIDTH 24 0
BBX 24 24 0 -2
BITMAP
38C380
38C380
30C300
30C300
30C300
30C606
FFF7FF
39C4C6
30CCCC
30C8C8
30D0C0
30C0C0
30C0C0
30C0E0
30C1E0
30C1A0
30C1B0
30C3B0
30C318
30C31C
3FC60E
30CC0F
301807
007000
ENDCHAR
STARTCHAR C2658
ENCODING 9816
SWIDTH 400 0
DWIDTH 24 0
BBX 24 24 0 -2
BITMAP
000380
F3C380
E38300
E38300
E38300
E38606
E387FF
E384C6
FFECCC
E388C8
E390C0
E380C0
E380C0
E380E0
E381E0
E381A0
E381B0
E383B0
EFB318
FBC71C
F3860E
E18C0F
401807
007000
ENDCHAR
STARTCHAR C2659
ENCODING 9817
SWIDTH 400 0
DWIDTH 24 0
BBX 24 24 0 -2
BITMAP
060380
060380
060300
E67300
E67300
E66606
E667FF
E664C6
E66CCC
E668C8
E670C0
E660C0
FFE0C0
0640E0
0601E0
0601A0
0601B0
0603B0
060318
0FE31C
FE060E
F00C0F
401807
007000
ENDCHAR
STARTCHAR C265a
ENCODING 9818
SWIDTH 400 0
DWIDTH 24 0
BBX 24 24 0 -2
BITMAP
060380
060380
060300
060300
060300
270306
3687FF
36C6C6
366CCC
7638C8
6600C0
6600C0
C670C0
8670E0
06E1E0
06C1A0
00C1B0
0183B0
030318
06061C
0C060E
180C0F
301807
E07000
ENDCHAR
STARTCHAR C265b
ENCODING 9819
SWIDTH 400 0
DWIDTH 24 0
BBX 24 24 0 -2
BITMAP
7001C0
7001C0
600180
600180
606300
7FF306
FFF3FF
FFF266
DFF66C
DFF468
9BF060
1BF060
1B7060
337060
3770F0
3670D0
6670D8
4C7198
9C718C
18730C
306606
67EC07
83D803
01B000
ENDCHAR
STARTCHAR C265c
ENCODING 9820
SWIDTH 400 0
DWIDTH 24 0
BBX 24 24 0 -2
BITMAP
1B8380
1B8380
1B0300
1B0300
330300
330606
3307FF
3304C6
732CCC
73F8C8
F310C0
B300C0
3300C0
3300E0
3301E0
3301E0
3301B0
3311B0
331318
33331C
33F60E
31EC0F
301807
207000
ENDCHAR
STARTCHAR C265d
ENCODING 9821
SWIDTH 400 0
DWIDTH 24 0
BBX 24 24 0 -2
BITMAP
040380
120380
1B0300
198300
38C300
30C606
30E7FF
2064C6
606CCC
C0A8C8
81D0C0
7FC0C0
1CC0C0
1CC0E0
1CC1E0
1CC1A0
18C1B0
18C3B0
18C318
30C31C
31860E
6F8C0F
671807
C63000
ENDCHAR
STARTCHAR C265e
ENCODING 9822
SWIDTH 400 0
DWIDTH 24 0
BBX 24 24 0 -2
BITMAP
000060
040060
070060
060060
060060
060060
660060
661860
66DC60
67D866
66187E
661860
661860
661860
661860
661860
661860
661860
67D860
7E1860
F01860
601862
00FFFF
000000
ENDCHAR
STARTCHAR C265f
ENCODING 9823
SWIDTH 400 0
DWIDTH 24 0
BBX 24 24 0 -2
BITMAP
200008
30001C
3FFFFC
301C0C
30380C
30360C
30630C
30C1CC
3180CC
36004C
30001C
30087C
300E18
000C00
040C00
070C00
060C38
060FF8
060C00
060C00
060C00
060C00
0E0C07
FFFFFF
ENDCHAR
STARTCHAR C2660
ENCODING 9824
SWIDTH 400 0
DWIDTH 24 0
BBX 24 24 0 -2
BITMAP
000008
01801C
FFDFFC
18060C
18060C
19060C
3F860C
3B860C
33860C
33860C
63060C
737FFF
DF0E18
8E0E18
060E18
060E18
0C0E18
0C0E18
180E18
100E18
300E18
600E18
C07FFF
800000
ENDCHAR
STARTCHAR C2661
ENCODING 9825
SWIDTH 400 0
DWIDTH 24 0
BBX 24 24 0 -2
BITMAP
000380
018380
FFC318
18030C
18030C
190304
3F8302
3BBFFF
338300
338300
63030E
73030E
DF030C
8E018C
060198
0601B0
0C00F0
0C00E0
1800E0
1001B1
300339
600E1F
C0180F
80F007
ENDCHAR
STARTCHAR C2662
ENCODING 9826
SWIDTH 400 0
DWIDTH 24 0
BBX 24 24 0 -2
BITMAP
000000
008007
FFDFFF
180300
180300
19030C
3F87FE
3B861E
33860C
338C0C
630C18
731B18
DF3198
8E61B8
0640F0
060030
0C0060
0C00C0
1800C0
100180
300300
600600
C00C00
803000
ENDCHAR
STARTCHAR C2663
ENCODING 9827
SWIDTH 400 0
DWIDTH 24 0
BBX 24 24 0 -2
BITMAP
0000E0
0180E0
FFC0C0
1800C0
1800C0
1900C0
3F80C0
3BB0C0
33B8C0
33B0C6
6330FE
7330C0
DF30C0
8E30C0
0630C0
0630C0
0C30C0
0C30C0
1830C0
1030C0
3030C0
6030C2
C1FFFF
800000
ENDCHAR
STARTCHAR C2664
ENCODING 9828
SWIDTH 400 0
DWIDTH 24 0
BBX 24 24 0 -2
BITMAP
000600
030300
FF8100
300180
307187
327FFF
3F71C7
3371C7
6371E7
6371E7
437327
E67337
FE7337
9E763F
0E761F
0C7C1F
0C7807
1C7007
187007
107007
307007
60707F
C0701E
80600C
ENDCHAR
STARTCHAR C2665
ENCODING 9829
SWIDTH 400 0
DWIDTH 24 0
BBX 24 24 0 -2
BITMAP
0001C0
0181C0
FFC1C0
1801C0
1801C0
1919D0
3F9DCC
3B99C6
3399C7
33B9C3
6331C1
7361C0
DF41C0
8E01C0
0601C0
067080
0C1C00
0C0700
180380
1001C0
300070
60003F
C0000F
800006
ENDCHAR
STARTCHAR C2666
ENCODING 9830
SWIDTH 400 0
DWIDTH 24 0
BBX 24 24 0 -2
BITMAP
000E00
018E00
FFCE00
180E00
180C06
190FFF
3F8DC7
3B99CC
3399C8
33B1C0
6321C0
7301C0
DF01C0
8E01E0
060320
060320
0C0330
0C0630
180C18
100C0C
30180E
603007
C06007
81C000
ENDCHAR
STARTCHAR C2667
ENCODING 9831
SWIDTH 400 0
DWIDTH 24 0
BBX 24 24 0 -2
BITMAP
00C200
7FE338
00E3FC
00C318
00C318
00C318
20C718
3FC61F
30C60F
300C00
30180C
30C7FE
3FE20E
30E30C
30C118
30C1B8
30C0F0
30C0F0
70C0F0
60C1F8
60C39C
C0C70F
C0CE07
80F803
ENDCHAR
STARTCHAR C2668
ENCODING 9832
SWIDTH 400 0
DWIDTH 24 0
BBX 24 24 0 -2
BITMAP
000200
30C338
3FE3FC
30C318
30C318
36C318
36C718
33C61F
33CC0F
30C800
38E00C
FFFFFE
30C20E
30C30C
30C118
30C1B8
30C0F0
30C0F0
30C0F0
30C1F8
30C39C
67C70F
63CE07
C1B803
ENDCHAR
STARTCHAR C2669
ENCODING 9833
SWIDTH 400 0
DWIDTH 24 0
BBX 24 24 0 -2
BITMAP
200E00
300E08
30CFFC
3FEE00
300E00
31EE02
3F0E06
3807FE
3007FE
040000
06000C
07FFFC
060030
07FFF0
06C070
0660E0
0E31C0
0C1B80
1C0F00
181F80
3039F0
60E07F
C3801E
9E0004
ENDCHAR
STARTCHAR C266a
ENCODING 9834
SWIDTH 400 0
DWIDTH 24 0
BBX 24 24 0 -2
BITMAP
0E0038
0E01FC
0C1FC0
0C8180
FFC180
0C0180
0C0180
4C818C
FFDFFC
ECC180
ECC180
ECC180
ECC180
ECC187
ECDFFF
ECC180
ECC180
ECC180
EFC181
ED8181
CD0183
0C01FF
0C01FF
0C007E
ENDCHAR
STARTCHAR C266b
ENCODING 9835
SWIDTH 400 0
DWIDTH 24 0
BBX 24 24 0 -2
BITMAP
000020
078070
3F9FF8
7C0C30
1C0C60
1C0C60
1C0FFC
1D8D1C
FF8D0C
1C0D18
1C0D18
1C1DB0
1C18F0
1D98E0
FFB0F0
1C3198
1C630E
1CE606
1DCC03
1C0001
1C0003
1FFFFF
0FFFFF
07FFFE
ENDCHAR
STARTCHAR C266c
ENCODING 9836
SWIDTH 400 0
DWIDTH 24 0
BBX 24 24 0 -2
BITMAP
0001C0
0781C0
3F81C0
7C0360
1C0330
1C0618
1C0C0F
1D9C07
FFB733
1C2630
1C0630
1C0630
1C0630
1D8630
FF8630
1C0E30
1C0C30
1C1C30
1C3831
1C7021
1C4003
1FFFFF
0FFFFF
07FFFE
ENDCHAR
STARTCHAR C266d
ENCODING 9837
SWIDTH 400 0
DWIDTH 24 0
BBX 24 24 0 -2
BITMAP
040038
3200FC
3B0FC0
3181C0
31C1C0
30C1C0
30E1C0
3061CC
606FFC
C081C0
C1C1C0
3FC1C0
1CC1C0
1CC1C7
1CDFFF
18C1C0
18C1C0
38C1C0
30C1C1
30C1C1
6181C3
7F81FF
C780FF
83007E
ENDCHAR
STARTCHAR C266e
ENCODING 9838
SWIDTH 400 0
DWIDTH 24 0
BBX 24 24 0 -2
BITMAP
000200
180300
0C2182
0C3FFF
006007
01E006
81C00C
E20000
720E70
360C60
060C60
040C60
0C0C60
080C60
180C60
180C60
301860
F01860
301860
303061
383061
38607F
38C07F
13803E
ENDCHAR
STARTCHAR C266f
ENCODING 9839
SWIDTH 400 0
DWIDTH 24 0
BBX 24 24 0 -2
BITMAP
000000
180007
0C7FFF
0C7000
007000
01731C
8173FC
E2730C
72730C
36730C
06730C
04730C
0C730C
08730C
18730C
1873FC
307308
F07200
307000
307000
387000
383FFF
381FFF
100000
ENDCHAR
STARTCHAR C2670
ENCODING 9840
SWIDTH 400 0
DWIDTH 24 0
BBX 24 24 0 -2
BITMAP
000000
18000C
0C7FFE
0C181C
000818
010430
810660
E203C0
7203C0
3607F8
060C3F
04390F
0CE1C2
080180
180188
183FFC
300180
F00180
300180
300180
380180
380186
38FFFF
100000
ENDCHAR
STARTCHAR C2671
ENCODING 9841
SWIDTH 400 0
DWIDTH 24 0
BBX 24 24 0 -2
BITMAP
000008
18301C
0C3FFC
0C300C
00300C
01300C
81300C
E2300C
723FFC
3631C8
0601C0
040180
0C0180
080187
18FFFF
180180
300180
F00180
300180
300180
380180
380180
380180
100180
ENDCHAR
STARTCHAR C2672
ENCODING 9842
SWIDTH 400 0
DWIDTH 24 0
BBX 24 24 0 -2
BITMAP
000000
18300C
0C3FFE
0C300E
00300C
01300C
81300C
E2300C
72300C
36300C
06300C
043FFC
0C300C
080000
180800
180C10
300C08
F0180C
30180E
303006
383007
386003
38C003
118001
ENDCHAR
STARTCHAR C2673
ENCODING 9843
SWIDTH 400 0
DWIDTH 24 0
BBX 24 24 0 -2
BITMAP
200000
308007
18FFFF
08C007
00CF07
02CE07
82CE07
E6CE47
64FFE7
24CE67
0CCE67
0CCE67
18CE67
18CE67
18CE67
30CC67
30CC6F
F0DC6F
30D87F
30F03F
38C007
38C007
38FFFF
108006
ENDCHAR
STARTCHAR C2674
ENCODING 9844
SWIDTH 400 0
DWIDTH 24 0
BBX 24 24 0 -2
BITMAP
0001C0
1E01C0
1C0180
1C0180
1C0186
9D81FF
DFC180
5F0180
7E0180
7C018C
3C3FFE
1C180C
1C080C
1C0818
180C18
1C0630
1E0360
3B03C0
3381C0
3183E0
218638
601C1F
C0700F
81C007
ENDCHAR
STARTCHAR C2675
ENCODING 9845
SWIDTH 400 0
DWIDTH 24 0
BBX 24 24 0 -2
BITMAP
001800
001800
101838
0C3830
063C60
027380
0060C0
00C070
01803C
07000E
1C8007
F0E801
01C838
018C38
038470
0706C0
070300
0F0300
1B0180
6300C0
831E70
03F03F
03801F
030006
ENDCHAR
STARTCHAR C2676
ENCODING 9846
SWIDTH 400 0
DWIDTH 24 0
BBX 24 24 0 -2
BITMAP
0E0000
0E000C
7C3FFC
6C0180
6C0180
6D0180
7F8180
CC0180
CC0182
8C7FFF
8C0180
0C0380
0F83C0
3E0340
FC0360
6C0660
0C0620
0C0C30
0C0C18
0C181C
0C300E
0C600F
0CC007
0D8000
ENDCHAR
STARTCHAR C2677
ENCODING 9847
SWIDTH 400 0
DWIDTH 24 0
BBX 24 24 0 -2
BITMAP
0E0000
0E3004
7C3FFE
6C31C6
6C31C6
6D31C6
7FB1C6
CC31C6
CC31C6
8C31C6
8C31C6
0C3FFE
0FB004
3E3000
FC3000
6C3000
0C3000
0C3001
0C3001
0C3001
0C3803
0C3FFF
0C1FFF
0C0000
ENDCHAR
STARTCHAR C2678
ENCODING 9848
SWIDTH 400 0
DWIDTH 24 0
BBX 24 24 0 -2
BITMAP
060000
060007
361FFF
360187
360187
36C187
7FCD87
660387
6601C7
C611E7
860DB7
0607B7
07C387
0E03C7
FE03E7
F60367
460327
060607
060E07
060C06
06180E
0631FC
066078
05C030
ENDCHAR
STARTCHAR C2679
ENCODING 9849
SWIDTH 400 0
DWIDTH 24 0
BBX 24 24 0 -2
BITMAP
0601C0
0601C0
3601DC
3601CE
3601C6
36C1C0
7FC1C2
663FFF
6601C0
C601C0
8601C0
0601C0
07C1E0
0E03E0
FE03E0
F60360
460660
060660
060C61
060C61
061863
06307F
06607F
05C03E
ENDCHAR
STARTCHAR C267a
ENCODING 9850
SWIDTH 400 0
DWIDTH 24 0
BBX 24 24 0 -2
BITMAP
0601C0
0601C0
36019C
36018C
360184
36C180
7FC186
66FFFF
660180
C60180
860180
0603C0
07C3C0
0E0340
FE0340
F60660
460660
060E30
060C38
06181C
06181E
06300F
066007
05C000
ENDCHAR
STARTCHAR C267b
ENCODING 9851
SWIDTH 400 0
DWIDTH 24 0
BBX 24 24 0 -2
BITMAP
0E0008
0E181C
7C1FFC
6C180C
6C180C
6D180C
7F980C
CC1C1F
CC7FFF
8C180C
8C180C
0C180C
0F980C
3E1C1F
FC7FFF
6C180C
0C180C
0C180C
0C180C
0C300C
0C300C
0C61FC
0CC078
0D8030
ENDCHAR
STARTCHAR C267c
ENCODING 9852
SWIDTH 400 0
DWIDTH 24 0
BBX 24 24 0 -2
BITMAP
0E01C0
0E01C0
7C01C0
6C01C0
6C01C7
6D7FFF
7F81C0
CC11CC
CC1DCE
8C19CC
8C19CC
0C19CC
0F99CC
3E19CC
FC19CC
6C3FFC
0C11CC
0C01C0
0C01C0
0C01C1
0C01C1
0C01FF
0C00FF
0C007E
ENDCHAR
STARTCHAR C267d
ENCODING 9853
SWIDTH 400 0
DWIDTH 24 0
BBX 24 24 0 -2
BITMAP
0601C0
0601C0
3601C0
360360
360320
36C630
7FC618
660C0C
66180F
C63017
867FFA
064000
07C000
0E0008
FE3FFC
F6000C
46000C
060018
060038
060030
060070
060060
060060
0400C0
ENDCHAR
STARTCHAR C267e
ENCODING 9854
SWIDTH 400 0
DWIDTH 24 0
BBX 24 24 0 -2
BITMAP
060180
060180
360380
360340
360760
36C630
7FCC38
66181C
66300F
C66827
86CC32
068C30
07CC30
0E0C30
FE0C30
F60C30
461830
061830
061830
061030
063030
066030
06C030
058030
ENDCHAR
STARTCHAR C2721
ENCODING 10017
SWIDTH 400 0
DWIDTH 24 0
BBX 24 24 0 -2
BITMAP
000E00
380E00
380C00
304FF8
3FEC00
300C02
308C06
3B8C04
3E0FFE
3807FE
100000
001C00
061C00
061800
0C1810
1FFFF8
181800
301802
FFFFFF
001C00
001800
001800
001800
001800
ENDCHAR
STARTCHAR C2722
ENCODING 10018
SWIDTH 400 0
DWIDTH 24 0
BBX 24 24 0 -2
BITMAP
01C600
01C180
0380E0
070078
0E001F
3FFFEF
E06062
00C060
0180E0
030FE0
0601C0
381800
001C00
0E1800
0C1810
1FFFF8
181800
301802
FFFFFF
001C00
001800
001800
001800
001800
ENDCHAR
STARTCHAR C2723
ENCODING 10019
SWIDTH 400 0
DWIDTH 24 0
BBX 24 24 0 -2
BITMAP
001800
0E1800
0C1810
1FFFF8
181800
301802
FFFFFF
001C00
001800
001800
001800
001800
0C1C00
0C1810
0FFFF8
181800
101800
201802
FFFFFF
001C00
001800
001800
001800
001800
ENDCHAR
STARTCHAR C2724
ENCODING 10020
SWIDTH 400 0
DWIDTH 24 0
BBX 24 24 0 -2
BITMAP
000300
470180
6601C2
3C3FFF
187007
3C6006
6C400C
C60800
860E00
060C00
060C00
0F0C1C
1B0C3C
130CE0
230F00
430C00
830C00
030C00
030C01
070C03
060C02
7E0FFE
3C0FFE
1803FC
ENDCHAR
STARTCHAR C2725
ENCODING 10021
SWIDTH 400 0
DWIDTH 24 0
BBX 24 24 0 -2
BITMAP
000000
470007
663FFF
3C1800
181800
3C1800
6C1800
C6180C
861FFE
06180E
06180C
0F180C
1B180C
13180C
23180C
431FFC
83180C
031800
031800
071800
061800
7E1802
3C7FFF
180000
ENDCHAR
STARTCHAR C2726
ENCODING 10022
SWIDTH 400 0
DWIDTH 24 0
BBX 24 24 0 -2
BITMAP
0001C0
4701C0
660180
3C0302
187FFF
3C0300
6C0600
C60618
860C0C
061806
06183F
0F7FE3
1B3663
130660
230660
430660
830660
030E60
030C60
071861
061861
7E307F
3C603F
19C01E
ENDCHAR
STARTCHAR C2727
ENCODING 10023
SWIDTH 400 0
DWIDTH 24 0
BBX 24 24 0 -2
BITMAP
000000
47180C
661FFE
3C180C
18190C
3C18CC
6C18CC
C6184C
86180C
06180C
067FFF
0F180C
1B190C
1319CC
2318CC
43184C
83180C
03180C
033FFF
07101C
060018
7E03F8
3C00F0
180060
ENDCHAR
STARTCHAR C2728
ENCODING 10024
SWIDTH 400 0
DWIDTH 24 0
BBX 24 24 0 -2
BITMAP
001000
47180C
661FFE
3C180C
18180C
3C180C
6C1FFC
C6100C
860002
067FFF
060C00
0F0C00
1B1804
131C0E
231FFF
430006
830006
030006
030006
07000E
06000C
7E07FC
3C01F8
180070
ENDCHAR
STARTCHAR C2729
ENCODING 10025
SWIDTH 400 0
DWIDTH 24 0
BBX 24 24 0 -2
BITMAP
0001C0
4701C0
6601C0
3C01C0
1831C4
3C3FFE
6C31C6
C631C6
8631C6
0631C6
063FFE
0F31C6
1B31C6
1331C6
2331C6
433FFE
8331C4
0301C0
0301C0
0701C0
0601C0
7E01C0
3C01C0
180180
ENDCHAR
STARTCHAR C272a
ENCODING 10026
SWIDTH 400 0
DWIDTH 24 0
BBX 24 24 0 -2
BITMAP
000000
47100C
661FFE
3C180E
18180C
3C180C
6C180C
C6180C
86180C
06180C
06180C
0F1FFC
1B180C
130000
230400
430E10
830C08
030C0C
03180E
071806
063007
7E6003
3C4003
188001
ENDCHAR
STARTCHAR C272b
ENCODING 10027
SWIDTH 400 0
DWIDTH 24 0
BBX 24 24 0 -2
BITMAP
0001C0
4701C0
6661C0
3C39C0
181DC0
3C0DC0
6C01C2
C60DC7
867FCC
060FF8
060FE0
0F0FE0
1B0DE0
130DD0
230DD0
4319D8
8319CC
0331CE
0331C7
0761C7
06C1C0
7E8FC0
3C0780
180300
ENDCHAR
STARTCHAR C272c
ENCODING 10028
SWIDTH 400 0
DWIDTH 24 0
BBX 24 24 0 -2
BITMAP
0001C0
4701C0
6601C0
3C19CE
1819CE
3C19CC
6C19CC
C619CC
8619CC
0619CC
0619CC
0F3FFC
1B01CC
1301C0
2321C4
4339C7
8331C6
0331C6
0331C6
0731C6
0631C6
7E31C6
3C3FFE
180006
ENDCHAR
STARTCHAR C272d
ENCODING 10029
SWIDTH 400 0
DWIDTH 24 0
BBX 24 24 0 -2
BITMAP
00003C
4701FE
663FC0
3C01C0
1801CC
3C21CE
6C11CC
C619CC
860DD8
060DF0
0601C0
0F01C2
1B7FFF
1301C0
2301C0
4301C0
8301C0
0301C0
0301C0
0701C0
0601C0
7E1FC0
3C0780
180300
ENDCHAR
STARTCHAR C272e
ENCODING 10030
SWIDTH 400 0
DWIDTH 24 0
BBX 24 24 0 -2
BITMAP
000E00
470E00
660E08
3C0FFC
180C1C
3C1C18
6C1A38
C63330
8661F0
0601E0
0601E0
0F03F0
1B073C
130E1F
231F07
4370C2
830060
030020
030000
070700
0601C0
7E00E0
3C0070
180030
ENDCHAR
STARTCHAR C272f
ENCODING 10031
SWIDTH 400 0
DWIDTH 24 0
BBX 24 24 0 -2
BITMAP
0701C0
0701C0
06C180
066180
066300
063306
0603FF
061266
7FFE6C
060468
060060
070060
070060
070060
0D80F0
0C80D0
0CC0D8
184198
18618C
30730C
303306
602607
C00C03
801800
ENDCHAR
STARTCHAR C2730
ENCODING 10032
SWIDTH 400 0
DWIDTH 24 0
BBX 24 24 0 -2
BITMAP
000008
00001C
013FFC
FF830C
1C030C
1C030C
1C030C
1C071F
1C7FFF
1C030C
7F030C
1C030C
1C030C
1C071C
1C3FFC
1C0308
1C0600
1F8600
FE0E00
F00C00
601C00
003800
007000
00C000
ENDCHAR
STARTCHAR C2731
ENCODING 10033
SWIDTH 400 0
DWIDTH 24 0
BBX 24 24 0 -2
BITMAP
000800
018C38
FF8FF8
300C38
300C38
300C38
330F38
3F8DB8
338DF8
338CF8
338C38
3B8C38
3F8C38
3F8C38
379839
73983B
63903E
63B01F
63E00F
638001
6F8003
FBFFFF
E1FFFF
60FFFE
ENDCHAR
STARTCHAR C2732
ENCODING 10034
SWIDTH 400 0
DWIDTH 24 0
BBX 24 24 0 -2
BITMAP
000000
0E0007
0C3FFF
0C0E00
0C0E00
4C8E00
ECCE18
ECCFFC
ECCC18
ECCC18
ECCC18
ECCD18
ECCD98
ECCCD8
ECCCD8
ECD878
ECD838
ECD838
FFD838
009839
0018F9
003F3F
00381F
00300E
ENDCHAR
STARTCHAR C2733
ENCODING 10035
SWIDTH 400 0
DWIDTH 24 0
BBX 24 24 0 -2
BITMAP
007180
0070C0
006060
006066
7FFFFE
003000
001800
000C00
000703
0003E2
00007E
00003E
0700E0
0700E0
0600C6
FFFFFF
0600C0
0600C0
07FFC0
0700C0
0600C0
0600C0
07FFC0
0600C0
ENDCHAR
STARTCHAR C2734
ENCODING 10036
SWIDTH 400 0
DWIDTH 24 0
BBX 24 24 0 -2
BITMAP
0000E0
0700E0
071CC0
061CC0
7618C0
6618C2
661FFF
6618C0
6618C0
6630C0
6620C0
FE00C0
4600C0
0600C4
061FFE
0700C0
0780C0
0CC0C0
0CE0C0
1860C0
1860C0
3000C0
6000C7
C01FFF
ENDCHAR
STARTCHAR C2735
ENCODING 10037
SWIDTH 400 0
DWIDTH 24 0
BBX 24 24 0 -2
BITMAP
038000
038000
070060
07FFF0
0F00E0
18C3C0
303F00
003E00
00F3F0
03C0FF
1E001E
F00024
1FFFF0
1C3830
1C1830
1FFFF0
1C3830
1C1830
1FFFF0
1C3830
181830
301BF0
6019E0
C01040
ENDCHAR
STARTCHAR C2736
ENCODING 10038
SWIDTH 400 0
DWIDTH 24 0
BBX 24 24 0 -2
BITMAP
100000
180038
1FFFF8
181838
181838
1FFFF8
181838
181838
181838
1FFFF0
100000
000010
3FFFF8
001800
001800
001806
FFFFFF
001800
001800
001800
001800
001800
001800
001000
ENDCHAR
STARTCHAR C2737
ENCODING 10039
SWIDTH 400 0
DWIDTH 24 0
BBX 24 24 0 -2
BITMAP
001800
000C00
180606
1FFFFF
180000
9800E0
D800E0
7800C0
7800C6
1FFFFE
1800C0
1840C0
3841C0
782180
D82180
581300
300F00
300E00
300F00
301980
6030E0
60607F
C0C03F
87000C
ENDCHAR
STARTCHAR C2738
ENCODING 10040
SWIDTH 400 0
DWIDTH 24 0
BBX 24 24 0 -2
BITMAP
001800
000C00
180606
1FFFFF
180000
980030
D8FFF8
780038
780070
1801C0
180300
180300
380306
7FFFFE
D80300
580300
300300
300300
300300
300300
600300
607F00
C01E00
800C00
ENDCHAR
STARTCHAR C2739
ENCODING 10041
SWIDTH 400 0
DWIDTH 24 0
BBX 24 24 0 -2
BITMAP
000700
080700
1C0600
18060E
11860E
FFC60C
E1C60C
E1860C
E1860C
E1860C
E1860C
E1860C
FF860C
E1860C
E1860C
E1860C
E187FC
E1860C
FF8600
E18600
C00600
000600
000600
000600
ENDCHAR
STARTCHAR C273a
ENCODING 10042
SWIDTH 400 0
DWIDTH 24 0
BBX 24 24 0 -2
BITMAP
000000
08000C
1C1FFC
1801C0
1301C0
FF81C0
E381C0
E381C0
E381C0
E381C2
E3FFFF
E381C0
FF81C0
E381C0
E381C0
E381C0
E381C0
E381C0
FF81C0
E301C0
C001C0
0001C0
0001C0
000180
ENDCHAR
STARTCHAR C273b
ENCODING 10043
SWIDTH 400 0
DWIDTH 24 0
BBX 24 24 0 -2
BITMAP
00C000
00C000
018010
1FFFF8
180038
180038
1FFFF8
180038
180038
1FFFF8
100030
000000
0E0038
0E1838
0C1C30
0C1830
0C1830
0C1830
0C1830
0C1830
181830
301830
600030
C00030
ENDCHAR
STARTCHAR C273c
ENCODING 10044
SWIDTH 400 0
DWIDTH 24 0
BBX 24 24 0 -2
BITMAP
00C000
00C000
018010
1FFFF8
180038
180038
1FFFF8
180038
180038
1FFFF8
100030
000000
0610E0
061CE0
0618C0
0618C0
0618C0
0618C0
0E18C0
0C18C0
1C18C0
1818FE
30187F
E0103F
ENDCHAR
STARTCHAR C273d
ENCODING 10045
SWIDTH 400 0
DWIDTH 24 0
BBX 24 24 0 -2
BITMAP
060038
060038
060038
060038
6EC038
7FE038
66C03A
669FFF
660078
660078
6EC078
7FC0F8
60C0F8
60C1B8
7981B8
6F8338
670338
E78638
CFCC38
9CD838
B85038
7001F8
0000F0
000060
ENDCHAR
STARTCHAR C273e
ENCODING 10046
SWIDTH 400 0
DWIDTH 24 0
BBX 24 24 0 -2
BITMAP
000020
000070
1FFFF8
0001E0
000300
001E00
0018F0
007F00
7FF800
7C1800
301800
001800
00F800
007800
003000
000020
1C0070
1FFFF8
1CC630
1CC630
1CC630
1CC630
1CE637
FFFFFF
ENDCHAR
STARTCHAR C273f
ENCODING 10047
SWIDTH 400 0
DWIDTH 24 0
BBX 24 24 0 -2
BITMAP
008000
00E000
00C0E0
0180E6
FFFFFF
0380C0
0301C0
060180
0F8300
05FE00
001F00
0039E0
03E078
0E001C
380000
180030
1FFFF0
1CC630
1CC630
1CC630
1CC630
1CC632
FFFFFF
000000
ENDCHAR
STARTCHAR C2740
ENCODING 10048
SWIDTH 400 0
DWIDTH 24 0
BBX 24 24 0 -2
BITMAP
000000
020004
FF3FFE
E301C0
E301C0
E301C0
E301C0
E301C0
FF01C0
E301C0
E301C0
E301C0
E301C0
FF01C0
E301C0
E301C0
E301C0
E301C0
E301C0
FF01C0
E301C2
407FFF
000000
000000
ENDCHAR
STARTCHAR C2741
ENCODING 10049
SWIDTH 400 0
DWIDTH 24 0
BBX 24 24 0 -2
BITMAP
000000
020038
FF7FFC
E30618
E30618
E30618
E30618
E30618
FF0618
E30618
E30678
E37FF8
E30618
FF0618
E30618
E30618
E30618
E30619
E30619
FF060D
E3060F
40060F
000607
000603
ENDCHAR
STARTCHAR C2742
ENCODING 10050
SWIDTH 400 0
DWIDTH 24 0
BBX 24 24 0 -2
BITMAP
000004
021C07
FF1C86
E318E6
E318C6
E318C6
E318C6
E318C6
FF18C6
E318C6
E318C6
E318C6
E318C6
FF18C6
E318C6
E318C6
E318C6
E310C6
E330C6
FF30C6
E360C6
406006
00C006
018006
ENDCHAR
STARTCHAR C2743
ENCODING 10051
SWIDTH 400 0
DWIDTH 24 0
BBX 24 24 0 -2
BITMAP
180030
1FFFF0
1C0030
1C0030
1FFFF0
1C0030
1C0030
1FFFF0
1C0030
1C0030
1FFFF0
180030
000000
000007
FFFFFF
018300
018300
018300
038301
030301
060303
0C03FF
3001FF
E000FE
ENDCHAR
STARTCHAR C2744
ENCODING 10052
SWIDTH 400 0
DWIDTH 24 0
BBX 24 24 0 -2
BITMAP
000000
038007
FFDFFF
0301C7
6201C7
3401C7
1C01C7
1C91C7
FFC9C7
0CCDC7
1D87C7
1C0787
3C0387
3C0187
6C0387
4C0307
CC0307
8C0607
0C0E07
0C0C06
0C180E
FC30FC
3C6078
19C030
ENDCHAR
STARTCHAR C2745
ENCODING 10053
SWIDTH 400 0
DWIDTH 24 0
BBX 24 24 0 -2
BITMAP
000E00
018E00
FFCE00
180E00
180E07
300FFF
300C07
301807
311007
7FA007
738307
738187
F381C7
F38087
338007
338007
338007
338007
3F8006
330006
30000E
2001FC
000078
000030
ENDCHAR
STARTCHAR C2746
ENCODING 10054
SWIDTH 400 0
DWIDTH 24 0
BBX 24 24 0 -2
BITMAP
030000
0F800C
3C1FFC
4C01C0
0C01C0
0C01C0
7F81C0
0C01C0
0C01C2
1C7FFF
1E01C0
1F01C0
3D81C0
3C81C0
2C01C0
6C01C0
4C01C0
CC01C0
8C01C0
0C01C0
0C01C0
0C0FC0
0C0780
0C0300
ENDCHAR
STARTCHAR C2747
ENCODING 10055
SWIDTH 400 0
DWIDTH 24 0
BBX 24 24 0 -2
BITMAP
000FF0
01FFF0
1FF800
001804
00380E
7FFFFE
007E00
00D9C0
019870
03181C
0C1806
301002
C00000
003800
007060
00FFF0
01C060
07C0C0
1C7180
301B00
001E00
007800
01C000
1F0000
ENDCHAR
STARTCHAR C2748
ENCODING 10056
SWIDTH 400 0
DWIDTH 24 0
BBX 24 24 0 -2
BITMAP
030000
0F8180
3C01C0
4C00C0
0C0042
0C3FFF
7F8C00
0C0C00
0C0C00
1C0C00
1E0C00
1F0C00
3D8C00
3C8C00
2C0C00
6C0C00
4C0C00
CC0C00
8C0C00
0C0C00
0C0FFE
0C07FF
0C0000
0C0000
ENDCHAR
STARTCHAR C2749
ENCODING 10057
SWIDTH 400 0
DWIDTH 24 0
BBX 24 24 0 -2
BITMAP
003000
001800
00180C
7FFFFE
0000E0
0200C0
010180
018100
00C300
00C606
FFFFFF
000000
000006
7FFFFE
018300
018300
018300
038300
030300
060301
0C0303
1803FF
3001FF
E000FE
ENDCHAR
STARTCHAR C274a
ENCODING 10058
SWIDTH 400 0
DWIDTH 24 0
BBX 24 24 0 -2
BITMAP
000700
100700
180600
0C0600
008607
FFC7FF
000C07
01CC07
419807
61B007
218007
238067
3387F7
330007
330007
120007
160007
07C007
FF0006
F00006
60000E
0001FC
000038
000030
ENDCHAR
STARTCHAR C274b
ENCODING 10059
SWIDTH 400 0
DWIDTH 24 0
BBX 24 24 0 -2
BITMAP
1C0300
1C0300
1C2306
1FF7FF
330660
238C30
419818
800000
000006
FFFFFF
001800
001800
001800
001800
001800
001800
001800
001800
001800
001800
001800
03F800
00F000
006000
ENDCHAR
STARTCHAR C274c
ENCODING 10060
SWIDTH 400 0
DWIDTH 24 0
BBX 24 24 0 -2
BITMAP
1C0300
1C3306
1FFFFF
330C70
218830
419018
800000
000080
0201C0
0201C0
010180
010180
008180
00C300
006300
003600
001C00
001C00
003700
006380
01C1F0
07007F
1C000F
F00002
ENDCHAR
STARTCHAR C274d
ENCODING 10061
SWIDTH 400 0
DWIDTH 24 0
BBX 24 24 0 -2
BITMAP
1C0300
1C0300
1C2306
1FF7FF
330660
238C30
419818
800000
000000
00E000
00E000
00E000
00C000
018000
018000
030040
060060
060030
0C0018
18001C
7FFFFC
7FE00E
380006
100000
ENDCHAR
STARTCHAR C274e
ENCODING 10062
SWIDTH 400 0
DWIDTH 24 0
BBX 24 24 0 -2
BITMAP
0E0000
0E0006
8CBFFF
CCC0C0
6D80C0
6D80C0
2F00C0
0C80C0
FFC0C0
0C00C0
2C00C0
2F00C0
2D80C0
6C80C0
6CC0C0
CCC0C0
CC00C0
8C00C0
0C00C0
0C00C0
0C00C0
0C0FC0
0C03C0
0C0180
ENDCHAR
STARTCHAR C274f
ENCODING 10063
SWIDTH 400 0
DWIDTH 24 0
BBX 24 24 0 -2
BITMAP
0001C0
0E01C0
0C01C0
1C01C0
1801C0
3101C0
3381C0
6301C0
F701C2
7E7FFF
0C01C0
1901C0
1181C0
21C1C0
7FC1C0
78C1C0
2081C0
0881C0
4CC1C0
4CC1C0
C401C0
C401C0
8001C0
000180
ENDCHAR
STARTCHAR C2750
ENCODING 10064
SWIDTH 400 0
DWIDTH 24 0
BBX 24 24 0 -2
BITMAP
000004
0E000E
0C1FFF
1C001C
180038
310060
3380C0
6301C0
F701C0
7E01C0
0C01C0
1901C0
1181C0
21C1C0
7FC1C0
78C1C0
2081C0
0881C0
4CC1C0
4CC1C0
C401C0
C41FC0
800780
000300
ENDCHAR
STARTCHAR C2751
ENCODING 10065
SWIDTH 400 0
DWIDTH 24 0
BBX 24 24 0 -2
BITMAP
000000
0E0830
0C0FF8
1C0C38
180C38
310C38
338C38
630C38
F70C38
7E0C38
0C0C38
190C38
118C38
21CC38
7FCC38
78CC38
209838
089838
4CD838
4CD839
C43039
C4303F
80601F
00C00E
ENDCHAR
STARTCHAR C2752
ENCODING 10066
SWIDTH 400 0
DWIDTH 24 0
BBX 24 24 0 -2
BITMAP
000030
1FFFF8
1C0338
1C03B8
1CC338
1C7638
1C1C38
1C3F38
1C63B8
1CC1B8
1F00B8
1C00F8
181830
001800
001802
FFFFFF
003800
001800
031840
061860
0C181C
38180E
601806
801000
ENDCHAR
STARTCHAR C2753
ENCODING 10067
SWIDTH 400 0
DWIDTH 24 0
BBX 24 24 0 -2
BITMAP
0081C0
20C1C0
118180
190180
1B6180
7FE180
060180
060180
060180
3FC180
0E03C0
0603C0
060340
064340
7FE660
060660
060620
060C30
0C0C18
0C1818
18300C
18600F
30C007
618003
ENDCHAR
STARTCHAR C2754
ENCODING 10068
SWIDTH 400 0
DWIDTH 24 0
BBX 24 24 0 -2
BITMAP
00C000
01C000
018180
03FFC0
060180
0C1300
181E00
300E0C
3FFFFC
0300C0
0300C0
03FFC0
0300C0
0300C0
0300C0
03FFC0
0300C0
0300C2
FFFFFF
0000C0
0000C0
0000C0
0000C0
0000C0
ENDCHAR
STARTCHAR C2755
ENCODING 10069
SWIDTH 400 0
DWIDTH 24 0
BBX 24 24 0 -2
BITMAP
000600
03C300
038180
0300C0
060060
0C003C
18001F
300006
7FFFFC
8300C0
0300C0
0300C0
03FFC0
0300C0
0300C0
03FFC0
0300C0
0300C0
0300C6
FFFFFF
0000C0
0000C0
0000C0
0000C0
ENDCHAR
STARTCHAR C2756
ENCODING 10070
SWIDTH 400 0
DWIDTH 24 0
BBX 24 24 0 -2
BITMAP
020000
67000C
7FBFFE
63018C
63018C
63018C
73018C
7F318C
6F3FFC
633180
633180
637182
637FFF
6F6187
7B0187
730187
630187
630187
6301BF
63018E
E3018C
DF0180
8E0180
840180
ENDCHAR
STARTCHAR C2757
ENCODING 10071
SWIDTH 400 0
DWIDTH 24 0
BBX 24 24 0 -2
BITMAP
02000C
673FFE
7F980C
630C18
630630
630760
7303C0
7F03C0
6F0678
630C3F
63300E
63C870
630FF8
6F0C30
7B0C30
730C30
630C30
630C30
630C30
631831
E31831
DF303F
8E603F
84C00E
ENDCHAR
STARTCHAR C2758
ENCODING 10072
SWIDTH 400 0
DWIDTH 24 0
BBX 24 24 0 -2
BITMAP
0201C0
6701C0
7F81C0
6301C0
6301C0
6309D0
730DCC
7F0DC6
6F19C7
6319C3
6311C1
6331C0
6321CC
6F01CC
7B01CC
730198
630038
630070
6300E0
6301C0
E30300
DF0E00
8E1800
84E000
ENDCHAR
STARTCHAR C2759
ENCODING 10073
SWIDTH 400 0
DWIDTH 24 0
BBX 24 24 0 -2
BITMAP
020300
670300
7F8310
633FF8
63071C
630318
730718
7F0619
6F0E19
630C1B
63181F
63308F
63C1E0
6F01C0
7B01C0
7301C2
637FFF
6301C0
6301C0
6301C0
E301C0
DF01C0
8E01C0
840180
ENDCHAR
STARTCHAR C275a
ENCODING 10074
SWIDTH 400 0
DWIDTH 24 0
BBX 24 24 0 -2
BITMAP
020E00
670E00
7F8E1C
630FFC
630C0C
63180C
73181C
7F1038
6F31F0
636060
63C000
63001C
633FFC
6F0818
7B0C18
730630
630230
630360
6301C0
6303E0
E30778
DF0C1F
8E3007
87C000
ENDCHAR
STARTCHAR C275b
ENCODING 10075
SWIDTH 400 0
DWIDTH 24 0
BBX 24 24 0 -2
BITMAP
020E00
670E00
7F8C00
631806
631FFF
631000
733000
7F6000
6FDC00
631C00
631800
63180C
63187E
6F1FE0
7B1F00
731800
631800
631800
631801
631801
E31803
DF1FFF
8E0FFF
8407FE
ENDCHAR
STARTCHAR C275c
ENCODING 10076
SWIDTH 400 0
DWIDTH 24 0
BBX 24 24 0 -2
BITMAP
020000
673007
7FBFFF
633000
633000
633204
7333FE
7F3306
6F3306
633306
633306
633306
633306
6F3306
7B330E
7333FE
63331C
633308
637300
636301
E36301
DF43FF
8EC3FF
8481FE
ENDCHAR
STARTCHAR C275d
ENCODING 10077
SWIDTH 400 0
DWIDTH 24 0
BBX 24 24 0 -2
BITMAP
02003C
6700FE
7FBFC0
6330C0
6330C0
6330C0
7330C0
7F30C0
6F30C2
633FFF
6330C0
6330C0
633060
6F3060
7B3060
733060
633030
633030
633038
633019
E3361D
DF3C0F
8E3807
843003
ENDCHAR
STARTCHAR C275e
ENCODING 10078
SWIDTH 400 0
DWIDTH 24 0
BBX 24 24 0 -2
BITMAP
021000
671807
7F9FFF
631800
631800
631800
73180C
7F1FFE
6F1A0E
631A0C
631B0C
63190C
63191C
6F1998
7B30B8
7330F0
633060
6370E0
6360F0
636198
E3431E
DFC60F
8FCC07
84B000
ENDCHAR
STARTCHAR C275f
ENCODING 10079
SWIDTH 400 0
DWIDTH 24 0
BBX 24 24 0 -2
BITMAP
0C0000
0C0006
193FFF
7F80C0
6380C0
6380C0
6B80C0
6F80C0
6780C0
6380C0
67C0C0
FF80C0
E380C0
6380C0
6B80C0
6F80C0
6780C0
6380C0
6380C0
6380C0
E380C0
DF8FC0
8F03C0
860180
ENDCHAR
STARTCHAR C2760
ENCODING 10080
SWIDTH 400 0
DWIDTH 24 0
BBX 24 24 0 -2
BITMAP
0700E0
0700E0
0660C2
FFE7FF
0600C0
0600C0
000006
7FFFFE
001800
001800
081808
1C1FFC
1C180C
1C180C
1C180C
1FFFFC
00001C
00000C
00001C
000018
000038
000FF0
0003E0
0001C0
ENDCHAR
STARTCHAR C2761
ENCODING 10081
SWIDTH 400 0
DWIDTH 24 0
BBX 24 24 0 -2
BITMAP
0700E0
0700E0
0660C2
FFE7FF
0600C0
061CC0
001800
003807
FFFFFF
0618C0
0618C0
0618C0
2618C8
3E18FC
30180C
30180C
30180C
30180C
30180C
30180C
30180C
30180C
30180C
201008
ENDCHAR
STARTCHAR C2762
ENCODING 10082
SWIDTH 400 0
DWIDTH 24 0
BBX 24 24 0 -2
BITMAP
0700E0
0700E0
0660C2
FFE7FF
0600C0
0620C0
007A00
007300
0071C0
007084
00700E
7FFFFE
007000
003070
003060
0018C0
0019C0
000F80
000F00
000F02
0079C6
01E0FC
07003E
7C000E
ENDCHAR
STARTCHAR C2763
ENCODING 10083
SWIDTH 400 0
DWIDTH 24 0
BBX 24 24 0 -2
BITMAP
0700E0
0700E0
0660C2
FFE7FF
0600C0
0600C0
000020
0C0070
0FFFF8
0C0030
0C0030
0C0030
0C0030
0C0030
0C0030
0FFFF0
0C0030
0C0030
0C0030
0C0030
0C0030
0C0030
0FFFF0
0C0030
ENDCHAR
STARTCHAR C2764
ENCODING 10084
SWIDTH 400 0
DWIDTH 24 0
BBX 24 24 0 -2
BITMAP
0700E0
0700E0
0600C2
FFE7FF
0700C0
0600C0
0600C0
000000
000000
061860
061860
061860
061860
061860
061866
FFFFFF
061860
061860
0E1860
0C1860
1C1860
181860
301860
601040
ENDCHAR
STARTCHAR C2765
ENCODING 10085
SWIDTH 400 0
DWIDTH 24 0
BBX 24 24 0 -2
BITMAP
00C000
00E000
098020
1FFFF0
1CE630
1CC630
1CC630
1CC630
FFFFFF
000000
000000
000006
FFFFFF
001800
001800
001800
001800
001800
001800
001800
001800
01F800
00F800
007000
ENDCHAR
STARTCHAR C2766
ENCODING 10086
SWIDTH 400 0
DWIDTH 24 0
BBX 24 24 0 -2
BITMAP
300004
18000E
0C1FFF
02001C
070038
7F8060
0300C0
0600C0
0600C0
0C80C0
1DC0C0
1F00C0
3E00C0
3F00C0
5F80C0
9D80C0
1C00C0
1C00C0
1C00C0
1C00C0
1C00C0
1C0FC0
1C03C0
180180
ENDCHAR
STARTCHAR C2767
ENCODING 10087
SWIDTH 400 0
DWIDTH 24 0
BBX 24 24 0 -2
BITMAP
007000
007000
00E000
00C000
058060
07FFF0
060060
060060
07FFE0
060060
060060
07FFE0
060060
060060
060060
07FFE0
04C360
00C300
01C301
038303
070302
0E03FE
1C03FE
7001FC
ENDCHAR
STARTCHAR C2768
ENCODING 10088
SWIDTH 400 0
DWIDTH 24 0
BBX 24 24 0 -2
BITMAP
000000
000038
30FFF8
180E38
0C0E38
000E38
000E38
0C7FF8
FE0E38
1E0E38
180E38
380EB8
367FF8
7F0E38
660E1B
060E1A
0C0E0E
0C0E0E
180E0F
380406
7F0000
E7FFFF
007FFC
001FF8
ENDCHAR
STARTCHAR C2769
ENCODING 10089
SWIDTH 400 0
DWIDTH 24 0
BBX 24 24 0 -2
BITMAP
000000
00000C
307FFC
180C30
0C0C30
000C30
000C30
0C0C30
FE0C36
1EFFFE
180C30
381C30
361830
7F1830
661030
063030
0C6030
0CC030
198030
380000
7F0000
E7FFFF
007FFC
001FF8
ENDCHAR
STARTCHAR C276a
ENCODING 10090
SWIDTH 400 0
DWIDTH 24 0
BBX 24 24 0 -2
BITMAP
000300
000300
300300
180300
0C0738
007FFC
000318
0C0318
FE0318
1E0318
18071B
387FFF
360660
7F0C30
660C18
06180C
0C180E
0C3006
186007
398002
7F0000
E7FFFF
007FFC
001FF8
ENDCHAR
STARTCHAR C276b
ENCODING 10091
SWIDTH 400 0
DWIDTH 24 0
BBX 24 24 0 -2
BITMAP
0001C0
0001C0
300180
180186
0CFFFE
000180
000180
0C0188
FE3FFC
1E081C
180C18
380438
360630
7F0360
6601C0
0601C0
0C03E0
0C0E3E
18381E
38C004
7F0000
E7FFFF
007FFC
001FF8
ENDCHAR
STARTCHAR C276c
ENCODING 10092
SWIDTH 400 0
DWIDTH 24 0
BBX 24 24 0 -2
BITMAP
0001C0
0001C0
300180
180180
0C0180
000186
00FFFE
0C0180
FE0180
1E0188
18398E
38318C
36318C
7F318C
66318C
06318C
0C318C
0C318C
183FFC
380008
7F0000
E7FFFF
007FFC
001FF8
ENDCHAR
STARTCHAR C276d
ENCODING 10093
SWIDTH 400 0
DWIDTH 24 0
BBX 24 24 0 -2
BITMAP
0001C0
0001C0
300198
18018C
0C0184
000182
00FFFE
0C0180
FE0380
1E03C0
1803C0
3806C0
3606C0
7F0CC0
661CC1
0638C2
0C70E6
0CE0FF
19C07E
380000
7F0000
E7FFFF
007FFC
001FF8
ENDCHAR
STARTCHAR C276e
ENCODING 10094
SWIDTH 400 0
DWIDTH 24 0
BBX 24 24 0 -2
BITMAP
000000
000006
307FFE
180300
0C0300
000310
00061C
0C0E18
FE1C30
1E1830
180E60
3803C0
360180
7F0300
660610
060C18
0C183C
0C3FE6
183C06
381800
7F0000
E7FFFF
007FFC
001FF8
ENDCHAR
STARTCHAR C276f
ENCODING 10095
SWIDTH 400 0
DWIDTH 24 0
BBX 24 24 0 -2
BITMAP
000000
000000
30301C
183FFC
0C300C
00300C
00300C
0C300C
FE300C
1E3FFC
18301C
38300C
36300C
7F300C
66300C
06300C
0C3FFC
0C300C
183008
380000
7F0000
E7FFFF
007FFC
001FF8
ENDCHAR
STARTCHAR C2770
ENCODING 10096
SWIDTH 400 0
DWIDTH 24 0
BBX 24 24 0 -2
BITMAP
000000
001800
301C00
181800
0C1804
001FFE
003366
0C3366
FE6366
1E4666
180666
380E66
360CC6
7F18C6
661986
063186
0C630C
0C86FC
181838
380010
7F0000
E7FFFF
007FFC
001FF8
ENDCHAR
STARTCHAR C2771
ENCODING 10097
SWIDTH 400 0
DWIDTH 24 0
BBX 24 24 0 -2
BITMAP
000000
000040
300C60
180C20
0C1830
001830
001818
0C1018
FE338C
1E638F
184307
38C603
368600
7F0C00
660C30
061818
0C101C
0C3FFC
183C0C
381804
7F0000
E7FFFF
007FFC
001FF8
ENDCHAR
STARTCHAR C2772
ENCODING 10098
SWIDTH 400 0
DWIDTH 24 0
BBX 24 24 0 -2
BITMAP
038104
03818E
0301FF
03018C
03118C
7FF998
030190
0301B0
0301B0
030198
03198C
7FF984
070186
078186
0F4187
1B6187
1B3187
3339FE
33199E
23018C
430180
830180
030180
030180
ENDCHAR
STARTCHAR C2773
ENCODING 10099
SWIDTH 400 0
DWIDTH 24 0
BBX 24 24 0 -2
BITMAP
000104
30718E
3FF1FF
30718C
30718C
307198
3FF190
3061B0
0001B0
000998
FFFD8C
180184
180186
306186
3FF187
307187
007187
0071FE
00719E
00618C
006180
0FE180
03C180
018180
ENDCHAR
STARTCHAR C2774
ENCODING 10100
SWIDTH 400 0
DWIDTH 24 0
BBX 24 24 0 -2
BITMAP
020104
03018E
0701FF
06018C
04318C
3FF998
303990
3031B0
3031B0
303198
30318C
303184
303186
3FF186
303187
303187
303187
3031FE
30319E
30318C
303180
3FF180
303180
200180
ENDCHAR
STARTCHAR C2775
ENCODING 10101
SWIDTH 400 0
DWIDTH 24 0
BBX 24 24 0 -2
BITMAP
000600
E60300
FF0180
E60180
E60086
E4FFFE
EC0380
E80300
E80600
EC0C38
E61878
E63070
E738E0
E30FC0
E30780
E30300
E70700
FF0610
E60C18
E0181C
E031FE
E07F8E
E07006
C01000
ENDCHAR
STARTCHAR C2776
ENCODING 10102
SWIDTH 400 0
DWIDTH 24 0
BBX 24 24 0 -2
BITMAP
000000
E67006
FF7FFE
E67000
E67000
E47000
EC7218
E873FC
E87318
EC7318
E67318
E67318
E77318
E37318
E373F8
E37318
E77300
FF7200
E67000
E07000
E07000
E03FFF
E01FFF
C00000
ENDCHAR
STARTCHAR C2777
ENCODING 10103
SWIDTH 400 0
DWIDTH 24 0
BBX 24 24 0 -2
BITMAP
0001C0
E601C0
FF01C0
E611CC
E61FFE
E419CE
EC19CC
E819CC
E819CC
EC1FFC
E619CC
E619CC
E719CC
E319CC
E319CC
E3FFFF
E7180C
FF180C
E6180C
E0180C
E0180C
E0187C
E0181C
C01018
ENDCHAR
STARTCHAR C2778
ENCODING 10104
SWIDTH 400 0
DWIDTH 24 0
BBX 24 24 0 -2
BITMAP
000000
E60E40
FF0E60
E60C60
E60C20
E40C30
EC1818
E81818
E8180C
EC300F
E63007
E66003
E74000
E3B038
E33FFC
E33018
E73018
FF3018
E63018
E03018
E03018
E03FF8
E03018
C03000
ENDCHAR
STARTCHAR C2779
ENCODING 10105
SWIDTH 400 0
DWIDTH 24 0
BBX 24 24 0 -2
BITMAP
00001C
E630FE
FF3FF8
E63338
E63338
E43338
EC3338
E83338
E83338
EC3338
E63338
E63338
E73318
E33318
E33318
E33318
E7720C
FF760C
E6644C
E06C26
E0D9F6
E0DF3F
E09C12
C10800
ENDCHAR
STARTCHAR C277a
ENCODING 10106
SWIDTH 400 0
DWIDTH 24 0
BBX 24 24 0 -2
BITMAP
001800
003800
006400
00D300
019DC0
0318F8
0E183F
18180F
E01802
001800
001800
071870
071070
0D80F8
1EE1FC
37737F
663E67
860860
060060
060060
060060
060060
060060
060060
ENDCHAR
STARTCHAR C277b
ENCODING 10107
SWIDTH 400 0
DWIDTH 24 0
BBX 24 24 0 -2
BITMAP
000030
1FFFF8
000000
000000
000006
FFFFFF
000000
000000
39000E
31FFFE
318300
318300
318318
31FFFC
31800C
31800C
31800C
31FFFC
318308
318300
318300
318302
31FFFF
200000
ENDCHAR
STARTCHAR C277c
ENCODING 10108
SWIDTH 400 0
DWIDTH 24 0
BBX 24 24 0 -2
BITMAP
070300
070180
064186
067FFF
0CC006
0CC1E4
1C99C0
1C19C0
3C19CC
7C3FFE
7C31C0
DC61C0
1C41C0
1C01C0
1C01C2
1CFFFF
1C01C0
1C01C0
1C01C0
1C01C0
1C01C0
1C01C0
1C01C0
180180
ENDCHAR
STARTCHAR C277d
ENCODING 10109
SWIDTH 400 0
DWIDTH 24 0
BBX 24 24 0 -2
BITMAP
0C81C0
0CC1C0
0C6180
1C2180
180180
180302
3213FF
33931C
71930C
70B70C
F0350C
B06198
306098
304098
30C0F8
30C070
31C060
338070
3180F0
30C1D8
30C39C
30C70F
30CE07
303803
ENDCHAR
STARTCHAR C277e
ENCODING 10110
SWIDTH 400 0
DWIDTH 24 0
BBX 24 24 0 -2
BITMAP
0E0060
0E006C
0C0066
1C0063
180060
180062
33FFFF
300060
700060
700060
F01860
B01860
300860
30E060
30C330
32C1B0
36C1B0
36C2F8
36E439
30FC19
307C1F
30000F
300007
300003
ENDCHAR
STARTCHAR C2821
ENCODING 10273
SWIDTH 400 0
DWIDTH 24 0
BBX 24 24 0 -2
BITMAP
0701C0
0701C0
060182
06FFFF
0C0180
0C0180
1C6186
1C7FFE
3C6186
7C6186
7C6186
DC6186
1C7FFE
1C6186
1C4384
1C07C0
1C0FE0
1C1DB0
1C399C
1C718F
1CE187
1F8182
1C0180
180180
ENDCHAR
STARTCHAR C2822
ENCODING 10274
SWIDTH 400 0
DWIDTH 24 0
BBX 24 24 0 -2
BITMAP
074060
077060
066060
066060
0C6367
0C7F7F
1C6060
1C6061
3C6361
7C7C7F
7C787F
DC603E
1C01C0
1C01C0
1C0180
1C0184
1C7FFE
1C0180
1C0180
1C0180
1C0180
1C0182
1CFFFF
180000
ENDCHAR
STARTCHAR C2823
ENCODING 10275
SWIDTH 400 0
DWIDTH 24 0
BBX 24 24 0 -2
BITMAP
071800
071840
061830
061830
0C1802
0DFFFF
1C1800
1C181C
3C1838
7C1830
7C1E68
DC369C
1C3618
1C3630
1C7666
1C768E
1C660C
1C6618
1CC631
1CC6C1
1C8603
1D87FF
1F03FF
1E01FE
ENDCHAR
STARTCHAR C2824
ENCODING 10276
SWIDTH 400 0
DWIDTH 24 0
BBX 24 24 0 -2
BITMAP
0E0000
0E8007
0CFFFF
1CC007
18C107
18C1C7
30C187
30C18F
70FD9F
70CDE7
F0CDC7
B0CDC7
30C9E7
30D9B7
30D9BF
30F19F
30E187
30DF87
30C307
30C207
30C007
30FFFF
30C006
308000
ENDCHAR
STARTCHAR C2825
ENCODING 10277
SWIDTH 400 0
DWIDTH 24 0
BBX 24 24 0 -2
BITMAP
007000
003800
003C00
006700
00D1C0
019CF0
07187F
0C181F
301807
C01800
001800
081880
061860
078070
0DC0DC
1EE1FF
367367
E61C63
060060
060060
060060
060060
060060
060060
ENDCHAR
STARTCHAR C2826
ENCODING 10278
SWIDTH 400 0
DWIDTH 24 0
BBX 24 24 0 -2
BITMAP
00E000
003000
003C00
006600
00C300
0181E0
0300F8
0601BF
1C7FCF
F7E002
060000
060070
07FFF0
060180
060180
060180
060184
7FFFFE
020000
0700C0
0E0070
180018
30000C
E00004
ENDCHAR
STARTCHAR C2827
ENCODING 10279
SWIDTH 400 0
DWIDTH 24 0
BBX 24 24 0 -2
BITMAP
000600
03C180
0700E0
0E0078
1C001F
77FFEF
C06062
00C060
0180C0
071FC0
0C0780
700300
000018
3FFFFC
30C318
30C318
30C318
3FFFF8
30C318
30C318
30C318
30C378
30C338
308230
ENDCHAR
STARTCHAR C2828
ENCODING 10280
SWIDTH 400 0
DWIDTH 24 0
BBX 24 24 0 -2
BITMAP
0001C0
0001C0
600182
30FFFF
380180
180180
02018C
027FFE
06700E
06700C
04700C
0C700C
18700C
187FFC
306660
F00660
F00660
600C60
300C60
301861
303061
30607F
30C07F
07003E
ENDCHAR
STARTCHAR C2829
ENCODING 10281
SWIDTH 400 0
DWIDTH 24 0
BBX 24 24 0 -2
BITMAP
0001C0
0001C8
600186
300186
380180
18FFFF
020180
020180
064184
063186
04198C
0C1998
1809A0
180180
300380
F00DC0
F019B0
60719C
31E18F
30C187
300180
301F80
300F00
000200
ENDCHAR
STARTCHAR C282a
ENCODING 10282
SWIDTH 400 0
DWIDTH 24 0
BBX 24 24 0 -2
BITMAP
000000
000007
607FFF
300300
380200
18240E
027FFF
027006
067006
067006
047006
0C7FFE
187006
187006
307006
F07006
F07FFE
607006
307006
307006
307006
307FFE
307006
006004
ENDCHAR
STARTCHAR C282b
ENCODING 10283
SWIDTH 400 0
DWIDTH 24 0
BBX 24 24 0 -2
BITMAP
000700
000700
600606
30FFFF
380C00
180C00
021808
023004
06607E
06FFE3
04E003
0C41C1
180180
180182
30FFFF
F00180
F02180
60718C
306186
306187
30C183
318183
310180
000180
ENDCHAR
STARTCHAR C282c
ENCODING 10284
SWIDTH 400 0
DWIDTH 24 0
BBX 24 24 0 -2
BITMAP
000004
00000E
607FFF
300306
384306
183306
023606
020606
060E06
060C0E
04180C
0C31F8
18E030
180000
300180
F010C0
F01CC0
609844
309806
30980B
31981B
331FF1
301FF0
000FE0
ENDCHAR
STARTCHAR C282d
ENCODING 10285
SWIDTH 400 0
DWIDTH 24 0
BBX 24 24 0 -2
BITMAP
00C007
0E6007
1C3806
181DC6
300DC6
6011C6
FFF9C6
3039C6
3019C6
3019C6
3019C6
3019C6
3FF9C6
2CF1C6
0CC1C6
0CC1C6
0CC1C6
1CC186
18C006
18CC06
30D806
30F07E
60603C
C00008
ENDCHAR
STARTCHAR C282e
ENCODING 10286
SWIDTH 400 0
DWIDTH 24 0
BBX 24 24 0 -2
BITMAP
000018
3FFFFC
00C018
01C018
038018
070038
0E07F0
1801E0
600048
3FFFFC
30381C
30180C
3018CC
37FFEC
30180C
30198C
33FF8C
33818C
33818C
33FF8C
33010C
3001FC
300078
200030
ENDCHAR
STARTCHAR C282f
ENCODING 10287
SWIDTH 400 0
DWIDTH 24 0
BBX 24 24 0 -2
BITMAP
3331C0
3331C0
6661C0
CC41C0
C441C0
6661C2
3337FF
3311C7
0001C7
FFF1C7
1801C7
1801C7
1861C7
3FF187
307187
386187
6EC307
C6C307
038307
030607
060606
1C0CFE
30183C
E03018
ENDCHAR
STARTCHAR C2830
ENCODING 10288
SWIDTH 400 0
DWIDTH 24 0
BBX 24 24 0 -2
BITMAP
0601C0
0601C0
0C41C0
FFE1C4
E061CE
E06FFF
E061C6
FFE1C6
E061C6
E061C6
E061C6
FFE186
1B8186
1B8306
1B8306
1B870E
1B8E0C
3B9DF8
33B830
338001
238001
63FFFF
C1FFFF
80FFFE
ENDCHAR
STARTCHAR C2831
ENCODING 10289
SWIDTH 400 0
DWIDTH 24 0
BBX 24 24 0 -2
BITMAP
030000
03000C
3BFBFE
33231C
3FF118
3071B0
6C60E0
C6C0E0
8381B8
07031F
0C0E0F
303803
C00000
007800
007008
3FFFFC
00601C
00E00C
01C00C
03800C
070018
0E03F8
1800F0
E00060
ENDCHAR
STARTCHAR C2832
ENCODING 10290
SWIDTH 400 0
DWIDTH 24 0
BBX 24 24 0 -2
BITMAP
000004
60000E
7FFFFE
603000
603000
626070
63FFF8
630030
630030
63FFF0
630030
630030
630030
63FFF0
628020
61C040
618020
630030
620018
640018
600008
600006
7FFFFF
000000
ENDCHAR
STARTCHAR C2833
ENCODING 10291
SWIDTH 400 0
DWIDTH 24 0
BBX 24 24 0 -2
BITMAP
000004
60000E
7FFFFE
600C00
601E00
603300
6061C0
60E0F0
619F3E
67008C
6CFFC0
6001C0
600180
600360
61FFF0
618070
618060
618060
618060
61FFE0
618060
600006
7FFFFF
000000
ENDCHAR
STARTCHAR C2834
ENCODING 10292
SWIDTH 400 0
DWIDTH 24 0
BBX 24 24 0 -2
BITMAP
000004
00000E
FFFFFE
601800
600C04
6FFFFE
600000
600010
63FFF8
600000
600010
63FFF8
600000
600018
63FFFC
63001C
630018
630018
63FFF8
620018
700000
3FFFFF
1FFFFF
000000
ENDCHAR
STARTCHAR C2835
ENCODING 10293
SWIDTH 400 0
DWIDTH 24 0
BBX 24 24 0 -2
BITMAP
038700
038700
330604
33F7FE
330600
330601
330601
337703
37C7FF
FE03FE
E00000
000FF0
1FFFF0
001800
001800
001806
FFFFFF
001800
001800
001800
001800
001800
001800
001000
ENDCHAR
STARTCHAR C2836
ENCODING 10294
SWIDTH 400 0
DWIDTH 24 0
BBX 24 24 0 -2
BITMAP
060000
060004
0627FE
07F206
060206
46E30E
FFF30C
E6610C
E6610C
E6611C
EE6198
FFE198
E660F0
E660F0
E660E0
FFE060
EE60E0
E660F0
E661B8
E6631C
E6630E
E6660F
E7EC07
C0F800
ENDCHAR
STARTCHAR C2837
ENCODING 10295
SWIDTH 400 0
DWIDTH 24 0
BBX 24 24 0 -2
BITMAP
001800
001800
00181C
001FFC
001800
1FFFF8
1C0038
1C0038
1FFFF8
1C0038
1C0038
1FFFF8
038000
338020
1BFFF0
070070
0F80E0
18E1C0
303F00
001E00
003FC0
01E0FF
07003F
FC000F
ENDCHAR
STARTCHAR C2838
ENCODING 10296
SWIDTH 400 0
DWIDTH 24 0
BBX 24 24 0 -2
BITMAP
203800
3870C7
07C0FF
03C0C7
0670C7
3C1CC7
F70CC7
0700C7
0604C7
FFFEC7
0DC0C7
1980C7
198CC7
3FFCC7
318CC7
718CC7
F18CC7
B18CFF
318CCE
318CCC
31BCC0
3198C0
0180C0
0180C0
ENDCHAR
STARTCHAR C2839
ENCODING 10297
SWIDTH 400 0
DWIDTH 24 0
BBX 24 24 0 -2
BITMAP
200000
300007
3FFFFF
300000
320F00
318E00
318E00
300E07
384FFF
364DC6
36D9CC
32B1C0
3081C0
3081C0
3181C0
3301C0
230320
6E0320
6E0610
660C18
471C0C
C7380F
827007
00C003
ENDCHAR
STARTCHAR C283a
ENCODING 10298
SWIDTH 400 0
DWIDTH 24 0
BBX 24 24 0 -2
BITMAP
003000
001800
00181C
3FFFFC
000040
0600E0
0300C0
018180
018302
FFFFFF
003C00
001C00
001800
001800
101830
1FFFF8
180038
180038
180038
180038
180038
1FFFF8
180030
180000
ENDCHAR
STARTCHAR C283b
ENCODING 10299
SWIDTH 400 0
DWIDTH 24 0
BBX 24 24 0 -2
BITMAP
003000
001800
001806
FFFFFF
000000
070060
0E0018
1C000C
301C06
E01802
001800
00180E
7FFFFE
001800
001800
001830
1FFFF0
1C0030
1C0030
1C0030
1C0030
1FFFF0
1C0030
180020
ENDCHAR
STARTCHAR C283c
ENCODING 10300
SWIDTH 400 0
DWIDTH 24 0
BBX 24 24 0 -2
BITMAP
000300
000180
0021C2
C63FFF
FF6007
E7E006
E6C038
E60038
E60030
E60032
E6FFFF
E60030
E61030
E61830
E60C30
E60C30
E60430
FE0030
E60030
400030
000030
0003F0
0001E0
000040
ENDCHAR
STARTCHAR C283d
ENCODING 10301
SWIDTH 400 0
DWIDTH 24 0
BBX 24 24 0 -2
BITMAP
004000
007006
0031FE
0C1030
FE0030
E60030
E78830
E6C830
E64830
E61BFF
E61830
E61030
E63030
E63030
E63030
E66030
EEE030
FFC030
E4C030
406030
006030
007030
006030
000030
ENDCHAR
STARTCHAR C283e
ENCODING 10302
SWIDTH 400 0
DWIDTH 24 0
BBX 24 24 0 -2
BITMAP
00007E
0023FE
007F00
C67006
FF7FFF
E77007
E67007
E67007
E67FFF
E67000
E67004
E67FFE
E67E06
E67E06
E67E06
E67E06
E66E0E
FE6E7E
E66E0C
40CE01
00CE01
018FFF
0307FF
0203FE
ENDCHAR
STARTCHAR C283f
ENCODING 10303
SWIDTH 400 0
DWIDTH 24 0
BBX 24 24 0 -2
BITMAP
001018
001818
000C30
C60622
FFFFFF
E70180
E60180
E6798E
E6718E
E6718C
E6718C
E6718C
E6718C
E6718C
E67FFC
E6030C
E60300
FE0300
E60600
400E00
001C00
003800
007000
01C000
ENDCHAR
STARTCHAR C2840
ENCODING 10304
SWIDTH 400 0
DWIDTH 24 0
BBX 24 24 0 -2
BITMAP
000000
00000C
003FFE
C6000C
FF000C
E7000C
E63FFC
E6000C
E6000C
E6000C
E6FFFF
E60000
E60000
E6000C
E63FFE
E6000C
E6000C
FE000C
E63FFC
40000C
00000C
00000C
00FFFF
000000
ENDCHAR
STARTCHAR C2841
ENCODING 10305
SWIDTH 400 0
DWIDTH 24 0
BBX 24 24 0 -2
BITMAP
000004
00000E
007FFF
C60006
FF0006
E72006
E63FFE
E63000
E63000
E67006
E67FFF
E60407
E60707
E60607
E67FE7
E60607
E60607
FE0607
E67FF7
400006
00000E
000FFC
0001F8
000070
ENDCHAR
STARTCHAR C2842
ENCODING 10306
SWIDTH 400 0
DWIDTH 24 0
BBX 24 24 0 -2
BITMAP
000000
000E07
00FF7F
0C0607
FE0607
E60607
E64607
E67E7E
E66060
E66060
E6C060
E6C666
E6FFFF
E60607
E60607
E60607
EE0607
FE0607
E40607
400607
000E06
00FCFE
00783C
001018
ENDCHAR
STARTCHAR C2843
ENCODING 10307
SWIDTH 400 0
DWIDTH 24 0
BBX 24 24 0 -2
BITMAP
0001C0
0001C0
0001C2
C67FFF
FF01C0
E701C0
E631C6
E63FFE
E631C6
E631C6
E631C6
E631C6
E631C6
E631DE
E631CC
E603C0
E603E0
FE07F0
E60DDC
4019CF
0031C7
00C1C2
0001C0
000180
ENDCHAR
STARTCHAR C2844
ENCODING 10308
SWIDTH 400 0
DWIDTH 24 0
BBX 24 24 0 -2
BITMAP
000060
00006C
000066
C60063
FF4060
E77FFF
E66060
E66060
E66060
E66067
E66067
E67866
E66C66
E6666C
E6666C
E6607C
E66078
FEE038
E6C078
40C079
0080CD
01818F
030307
061C03
ENDCHAR
STARTCHAR C2845
ENCODING 10309
SWIDTH 400 0
DWIDTH 24 0
BBX 24 24 0 -2
BITMAP
000E00
000E00
000E02
0CFFFF
FE0E00
E60C00
E60C04
E6180E
E61BFF
E6380C
E63008
E67010
E67030
E6F030
E7B032
E737FF
EE3030
FE3030
E43030
403030
003030
0031F0
0030E0
003040
ENDCHAR
STARTCHAR C2846
ENCODING 10310
SWIDTH 400 0
DWIDTH 24 0
BBX 24 24 0 -2
BITMAP
100000
180038
1FFFF8
180038
180038
180038
1FFFF8
187030
107000
006006
7FFFFE
018180
0300C0
060070
0C003F
18003F
6FFFF2
8C0030
0C0030
0C0030
0C0030
0FFFF0
0C0030
0C0020
ENDCHAR
STARTCHAR C2847
ENCODING 10311
SWIDTH 400 0
DWIDTH 24 0
BBX 24 24 0 -2
BITMAP
00180C
00180C
007F7F
C6180C
FF1808
E70004
E63FFE
E6000E
E6001C
E60030
E60060
E600C0
E600C0
E600C0
E600C0
E600C0
E600C0
FE00C0
E600C0
4000C0
0000C0
000FC0
0003C0
000180
ENDCHAR
STARTCHAR C2848
ENCODING 10312
SWIDTH 400 0
DWIDTH 24 0
BBX 24 24 0 -2
BITMAP
000000
000000
C66666
FF7F7F
E66667
E66667
E66667
E66667
E66667
E66667
E66667
E66667
E66667
E66667
E66667
E66667
E66667
E66667
E66667
FE7E7F
E66666
C06060
000000
000000
ENDCHAR
STARTCHAR C2849
ENCODING 10313
SWIDTH 400 0
DWIDTH 24 0
BBX 24 24 0 -2
BITMAP
000000
00200C
007FFE
C6766C
FF766C
E7766C
E6766C
E676EE
E6FFFF
E6766C
E6766C
E6766C
E6766C
E6766C
E6FFFF
E6766C
E6766C
FE766C
E6766C
40766C
00766C
00766C
00767C
006008
ENDCHAR
STARTCHAR C284a
ENCODING 10314
SWIDTH 400 0
DWIDTH 24 0
BBX 24 24 0 -2
BITMAP
000300
000300
000310
C63FF8
FF071C
E70618
E60619
E60C19
E61C1B
E6381F
E6708F
E641C0
E601C0
E601C2
E67FFF
E601C0
E611C0
FE19CC
E639C6
4031C7
0061C3
0041C3
0081C0
000180
ENDCHAR
STARTCHAR C284b
ENCODING 10315
SWIDTH 400 0
DWIDTH 24 0
BBX 24 24 0 -2
BITMAP
000300
000700
000608
C60C0C
FF1806
E7307F
E67FE3
E67001
E60004
E61FFE
E61806
E61806
E61806
E61FFE
E61806
E61806
E61806
FE1FFE
E63806
403006
003006
0060FE
00C03C
018008
ENDCHAR
STARTCHAR C284c
ENCODING 10316
SWIDTH 400 0
DWIDTH 24 0
BBX 24 24 0 -2
BITMAP
0001C0
0001C0
0001FC
C60FFC
FF3980
E70180
E60180
E6018C
E67FFC
E60180
E60180
E60182
E6FFFF
E60380
E607C0
E60FE0
E60DB0
FE199C
E6318F
406187
00C183
010180
000180
000180
ENDCHAR
STARTCHAR C284d
ENCODING 10317
SWIDTH 400 0
DWIDTH 24 0
BBX 24 24 0 -2
BITMAP
001C00
001C00
001818
C61FFC
FF1838
E73030
E66062
E6FFFF
E67000
E6700C
E677FE
E6760E
E6760C
E6760C
E6760C
E6760C
E666FC
FE6638
E66610
40C601
00C601
0187FF
0303FF
0601FE
ENDCHAR
STARTCHAR C284e
ENCODING 10318
SWIDTH 400 0
DWIDTH 24 0
BBX 24 24 0 -2
BITMAP
003800
003800
00300C
C63FFE
FF3000
E73000
E63000
E63000
E63FFE
E61FFF
E60080
E601E0
E601C0
E601C2
E67FFF
E601C0
E611C0
FE19CC
E639C6
4031C7
0061C3
0041C3
0081C0
000180
ENDCHAR
STARTCHAR C284f
ENCODING 10319
SWIDTH 400 0
DWIDTH 24 0
BBX 24 24 0 -2
BITMAP
000000
000038
3FFFFC
018018
030018
060038
0C07F0
1801E0
700048
FFFFFC
31C71C
30C30C
31830C
3303FC
3601FC
3C010C
3BFF8C
33818C
33818C
33818C
33FF8C
31001C
3000F8
200030
ENDCHAR
STARTCHAR C2850
ENCODING 10320
SWIDTH 400 0
DWIDTH 24 0
BBX 24 24 0 -2
BITMAP
100030
1FFFF8
180038
180038
180038
1FFFF0
11C000
030040
060020
1FFFF0
1FC018
0C0018
000060
07FFF0
060070
067860
060E60
060260
060FE0
05F860
0DC060
18C7E0
3001E0
6000C0
ENDCHAR
STARTCHAR C2851
ENCODING 10321
SWIDTH 400 0
DWIDTH 24 0
BBX 24 24 0 -2
BITMAP
000840
000C20
000C30
C61818
FF180E
E73387
E66303
E6C600
E68410
E60878
E63FCC
E63E04
E61800
E60820
E60E38
E60C30
E60C30
FE1C30
E61830
401831
003031
00603F
00C03F
01800E
ENDCHAR
STARTCHAR C2852
ENCODING 10322
SWIDTH 400 0
DWIDTH 24 0
BBX 24 24 0 -2
BITMAP
001800
0E1800
0C1810
0FFFF8
0C3800
181800
301800
20380C
7FFFFC
007E00
00DB00
0199E0
07187E
0C183E
30186E
CFFFF0
1C0070
1C0060
1C0060
1C0060
1C0060
1FFFE0
1C0060
180000
ENDCHAR
STARTCHAR C2853
ENCODING 10323
SWIDTH 400 0
DWIDTH 24 0
BBX 24 24 0 -2
BITMAP
000000
00000C
007FFE
C6070C
FF070C
E7264C
E6766C
E6766C
E6766C
E67FEC
E6664C
E6060C
E6064C
E6766C
E6766C
E6766C
E676EC
FE7FCC
E60607
400607
000607
000603
000601
000000
ENDCHAR
STARTCHAR C2854
ENCODING 10324
SWIDTH 400 0
DWIDTH 24 0
BBX 24 24 0 -2
BITMAP
000000
60000C
7FFFFE
60000C
60100C
6618EC
6318CC
61198C
619B0C
60184C
6FFFEC
60180C
63990C
63998C
6318CC
63186C
66186C
6C182C
68180C
60100C
60000C
7FFFFC
60000C
600000
ENDCHAR
STARTCHAR C2855
ENCODING 10325
SWIDTH 400 0
DWIDTH 24 0
BBX 24 24 0 -2
BITMAP
000000
60000C
7FFFFE
60000C
6600CC
67FFCC
66180C
66180C
66198C
67FFCC
6601CC
6601CC
6601CC
67FF8C
66180C
66180C
66180C
66186C
67FFEC
60000C
60000C
7FFFFC
60000C
600000
ENDCHAR
STARTCHAR C2856
ENCODING 10326
SWIDTH 400 0
DWIDTH 24 0
BBX 24 24 0 -2
BITMAP
000000
60000C
7FFFFE
60000C
60006C
67FFEC
60C00C
60810C
61008C
67FFCC
67F86C
62180C
60180C
6039CC
63FFCC
60180C
60180C
60186C
6FFFFC
60000C
60000C
7FFFFC
60000C
600000
ENDCHAR
STARTCHAR C2857
ENCODING 10327
SWIDTH 400 0
DWIDTH 24 0
BBX 24 24 0 -2
BITMAP
100060
1C0066
180067
180062
180060
18FFFF
FF0060
180060
181C60
181C67
181867
181867
187F66
181C66
18186C
18183C
181838
1E1038
383038
F0607D
E0C0CD
40830F
000E07
001803
ENDCHAR
STARTCHAR C2858
ENCODING 10328
SWIDTH 400 0
DWIDTH 24 0
BBX 24 24 0 -2
BITMAP
100007
1C0187
18FF87
181877
181877
183067
FF3667
183F67
187367
186367
186367
18E367
18F767
199E67
180E67
180E67
180C67
1E1C67
381867
F01007
E03007
40603F
00C00E
01800C
ENDCHAR
STARTCHAR C2859
ENCODING 10329
SWIDTH 400 0
DWIDTH 24 0
BBX 24 24 0 -2
BITMAP
100000
1C0007
187FFF
180200
180700
185F66
FF707F
186767
186667
186667
186667
186667
186667
186667
186667
187E67
187667
1E6667
382E7E
F00C64
E01C60
403860
007060
00C060
ENDCHAR
STARTCHAR C285a
ENCODING 10330
SWIDTH 400 0
DWIDTH 24 0
BBX 24 24 0 -2
BITMAP
10000C
1C007E
183FFE
1801C0
1801C0
1801C0
FF01C0
1801C7
187FFF
1801C0
1801C0
1801C0
1839C0
1839C4
1831FE
1831C0
1831C0
1E31C0
3831C0
F031C0
E031C0
4031C2
01FFFF
000000
ENDCHAR
STARTCHAR C285b
ENCODING 10331
SWIDTH 400 0
DWIDTH 24 0
BBX 24 24 0 -2
BITMAP
100000
1C0E00
185E86
1870FF
1860C7
1860C7
FF60C7
1860C7
1860C7
187EC7
1860C7
1860C7
1860C7
1860C7
1860C7
1860C7
1860C7
1E6EC7
38F8FE
F1E0CC
E0C0C0
4000C0
0000C0
0000C0
ENDCHAR
STARTCHAR C285c
ENCODING 10332
SWIDTH 400 0
DWIDTH 24 0
BBX 24 24 0 -2
BITMAP
001800
001808
001FFC
001800
20380C
3FFFFC
33FF0C
31818C
30C30C
303C0C
303E0C
30E3EC
3700CC
30005C
301078
201C10
001808
3FFFFC
001800
001800
001800
001806
FFFFFF
000000
ENDCHAR
STARTCHAR C285d
ENCODING 10333
SWIDTH 400 0
DWIDTH 24 0
BBX 24 24 0 -2
BITMAP
0003F8
007FFC
3FF800
000038
0C1838
060C30
030C60
2300C0
200006
7FFFFF
E00006
C01C0C
801808
001800
001810
1FFFF8
003800
001800
001800
001800
001800
001806
FFFFFF
000000
ENDCHAR
STARTCHAR C285e
ENCODING 10334
SWIDTH 400 0
DWIDTH 24 0
BBX 24 24 0 -2
BITMAP
1C01C0
1C01C0
380180
360180
660187
CCFFFF
0C0180
1C0180
3C0180
5C0180
9C0184
1CFFFE
1C0000
081000
001C00
001800
003838
1FFFF8
001800
001800
001800
001806
FFFFFF
000000
ENDCHAR
STARTCHAR C285f
ENCODING 10335
SWIDTH 400 0
DWIDTH 24 0
BBX 24 24 0 -2
BITMAP
1C0700
1C0700
39C600
3FC600
20C607
618FFF
BB0C07
1E0807
0C1807
181007
3C0207
670107
CE6187
0FE0C7
1860C7
306007
3CC007
4F8007
870006
060006
0C000E
1801FC
300078
E00030
ENDCHAR
STARTCHAR C2860
ENCODING 10336
SWIDTH 400 0
DWIDTH 24 0
BBX 24 24 0 -2
BITMAP
003000
003000
00600E
7FFFFE
018100
0300C0
060078
0C003F
38200F
E03002
001808
7FFFFC
000000
000030
1FFFF8
180038
180038
180038
1FFFF8
180038
180038
1FFFF8
180030
180000
ENDCHAR
STARTCHAR C2861
ENCODING 10337
SWIDTH 400 0
DWIDTH 24 0
BBX 24 24 0 -2
BITMAP
003000
003000
00600E
7FFFFE
018100
0300C0
060278
0C0F3F
383F0F
E0F002
03B018
3C3838
00BC60
03F6C0
073700
1C3380
3031C0
C1B0E0
03F070
06303C
0C338F
303E07
C03800
001800
ENDCHAR
STARTCHAR C2862
ENCODING 10338
SWIDTH 400 0
DWIDTH 24 0
BBX 24 24 0 -2
BITMAP
003000
003000
00600E
7FFFFE
018100
0300C0
060078
0C003F
38000F
FC000A
1CCFFC
1CE018
FFC020
7CC0C0
3CC0C0
18C0C6
19BFFE
3180C0
7B80C0
0700C0
0780C0
0DC7C0
18C1C0
604180
ENDCHAR
STARTCHAR C2863
ENCODING 10339
SWIDTH 400 0
DWIDTH 24 0
BBX 24 24 0 -2
BITMAP
000300
380180
3800C2
307FFF
321800
331800
FF9800
FB1800
331800
331FFE
330FFE
330000
730008
661DCE
6619CC
E619CC
3C19CC
1E19CC
1F19CC
3319CC
2191CC
4031CE
80618F
00C007
ENDCHAR
STARTCHAR C2864
ENCODING 10340
SWIDTH 400 0
DWIDTH 24 0
BBX 24 24 0 -2
BITMAP
000000
383007
383FFF
3031C7
3231C7
3331C7
FFB1E7
FB3337
33361F
333C1F
333087
3331C7
7331C7
6631C7
6633A7
E63337
3C361F
1E3C1F
1F3007
333007
21B007
40307F
80301E
00300C
ENDCHAR
STARTCHAR C2865
ENCODING 10341
SWIDTH 400 0
DWIDTH 24 0
BBX 24 24 0 -2
BITMAP
000180
380380
380308
30060C
320C06
333FFF
FFBE03
FB1001
330004
331FFE
331806
331B06
7318C6
661866
661806
E63FFF
3C3806
1E1806
1F1806
331806
219806
40183E
80181C
001008
ENDCHAR
STARTCHAR C2866
ENCODING 10342
SWIDTH 400 0
DWIDTH 24 0
BBX 24 24 0 -2
BITMAP
000300
380300
380310
303FF8
32071C
330618
FF8619
FB0C19
331C1B
33381F
33708F
3341C0
7301C0
6601C2
667FFF
E601C0
3C11C0
1E19CC
1F39C6
3331C7
21E1C3
4041C3
8081C0
000180
ENDCHAR
STARTCHAR C2867
ENCODING 10343
SWIDTH 400 0
DWIDTH 24 0
BBX 24 24 0 -2
BITMAP
201C70
381C70
301860
301860
361860
363060
FF37FF
FE7070
767060
367060
66F070
66F0F0
6770F8
CC71FC
CC71EC
EC7366
3C7267
1C7663
1E7C62
367060
227060
407060
807060
006060
ENDCHAR
STARTCHAR C2868
ENCODING 10344
SWIDTH 400 0
DWIDTH 24 0
BBX 24 24 0 -2
BITMAP
201804
381C0E
301FFF
3018C6
3618C6
3630C6
FF3FFF
FE70C6
7670C6
3670C6
66F0C6
66F7FE
6770C6
CC70C0
CC70C0
EC71C0
3C7180
1C7180
1E7180
367300
227300
407600
807C00
007800
ENDCHAR
STARTCHAR C2869
ENCODING 10345
SWIDTH 400 0
DWIDTH 24 0
BBX 24 24 0 -2
BITMAP
0001C0
3801C0
380184
301FFE
311C06
339806
FFD806
FB9806
339806
339806
339FFE
339804
731800
631C07
671FFF
E61807
3E1807
0E1807
1F1807
139807
21D807
40DFFF
801C06
001800
ENDCHAR
STARTCHAR C286a
ENCODING 10346
SWIDTH 400 0
DWIDTH 24 0
BBX 24 24 0 -2
BITMAP
000180
380180
380302
303FFF
323007
333007
FFB03F
FB303F
33343F
333237
333137
3331E7
7330E7
6630E7
6631F7
E6313F
3C321F
1E341F
1F3807
333007
21B007
403FFF
803006
003000
ENDCHAR
STARTCHAR C286b
ENCODING 10347
SWIDTH 400 0
DWIDTH 24 0
BBX 24 24 0 -2
BITMAP
0018C6
3818C6
38118C
302118
323108
33198C
FF98C6
FB0846
330002
333FFF
330E00
330E0C
730FFE
660C0E
66180C
E6180C
3C1818
1E3FF0
1F0060
3300C0
218180
400700
800C00
00F000
ENDCHAR
STARTCHAR C286c
ENCODING 10348
SWIDTH 400 0
DWIDTH 24 0
BBX 24 24 0 -2
BITMAP
003000
201800
200806
7FFFFF
E00006
C01C0C
801808
001820
1FFFF0
001800
001800
00180C
3FFFFE
001000
001C00
001800
001810
3FFFF8
001800
001800
001800
001806
FFFFFF
000000
ENDCHAR
STARTCHAR C286d
ENCODING 10349
SWIDTH 400 0
DWIDTH 24 0
BBX 24 24 0 -2
BITMAP
003000
201800
200806
7FFFFF
E00006
C9C07C
9C79E8
1C1F80
1C1FC0
1C78F0
1D8030
1C0000
0FFFF8
07FFFC
000000
0E1870
0E1870
0C1860
0C1860
0C1860
1C1860
18187E
30183F
E0101F
ENDCHAR
STARTCHAR C286e
ENCODING 10350
SWIDTH 400 0
DWIDTH 24 0
BBX 24 24 0 -2
BITMAP
003000
201800
200806
7FFFFF
E01006
C0380C
803C08
006600
00C300
018180
0300C0
0600F8
1DFFBF
30000F
E00002
0400C0
07FFE0
060060
060060
060060
060060
060060
07FFE0
040040
ENDCHAR
STARTCHAR C286f
ENCODING 10351
SWIDTH 400 0
DWIDTH 24 0
BBX 24 24 0 -2
BITMAP
07000C
07000C
06000C
06000C
07E00C
0607FF
06000C
06100C
FFF80C
06020C
06030C
26018C
36C1CC
36608C
26300C
66300C
66180C
C6180C
86000C
06000C
06000C
7E01FC
1E0078
0C0030
ENDCHAR
STARTCHAR C2870
ENCODING 10352
SWIDTH 400 0
DWIDTH 24 0
BBX 24 24 0 -2
BITMAP
100018
1FFFFC
181800
181810
1FFFF8
181800
181810
1FFFF8
181800
181806
1FFFFF
100007
003807
003807
08303E
1C30C4
183060
183030
303018
20301C
40300C
83F00C
00F000
006000
ENDCHAR
STARTCHAR C2871
ENCODING 10353
SWIDTH 400 0
DWIDTH 24 0
BBX 24 24 0 -2
BITMAP
1C0008
1C007C
1C0FFC
1C0060
1C0060
1C0062
FFCFFF
1F80E0
1F8060
1F8060
1F8064
1F8FFE
1F8E06
1B8E06
1B8E06
1B8E06
338E06
338FFE
338404
338001
638001
63FFFF
C1FFFF
80FFFE
ENDCHAR
STARTCHAR C2872
ENCODING 10354
SWIDTH 400 0
DWIDTH 24 0
BBX 24 24 0 -2
BITMAP
1C0000
1C0638
1C07FC
1C0618
1C0618
1C4618
FFEC1F
1F98CF
1FB0E0
1F80C0
1F80C7
1F9FFF
1F88C0
1B8CC8
1B8CC4
1B98C6
3390C3
33A0C0
3380C0
338001
638001
63FFFF
C1FFFF
80FFFE
ENDCHAR
STARTCHAR C2873
ENCODING 10355
SWIDTH 400 0
DWIDTH 24 0
BBX 24 24 0 -2
BITMAP
1C0000
1C080C
1C0FFE
1C0C0C
1C0C0C
1C4FFC
FFEC0C
1F8C0C
1F8FFC
1F880C
1F8C00
1F8C0C
1F8FFE
1B8C00
1B8C00
1B8C00
338FFE
3387FF
338000
338001
638001
63FFFF
C1FFFF
80FFFE
ENDCHAR
STARTCHAR C2874
ENCODING 10356
SWIDTH 400 0
DWIDTH 24 0
BBX 24 24 0 -2
BITMAP
200000
30000C
3FFFFE
30000C
30000C
3FFFFC
300000
300004
3FFFFE
318038
318038
318038
31FFF8
318038
318038
71FFF8
618038
618038
618038
4FFFFF
C00038
C00038
800038
000030
ENDCHAR
STARTCHAR C2875
ENCODING 10357
SWIDTH 400 0
DWIDTH 24 0
BBX 24 24 0 -2
BITMAP
200000
30000C
3FFFFE
30000C
30000C
3FFFFC
30300C
307000
30C070
3301F8
37FF8C
37F006
330002
31FFF8
338018
73FFF8
638018
638018
63FFF8
430018
C30018
C601F8
840078
080030
ENDCHAR
STARTCHAR C2876
ENCODING 10358
SWIDTH 400 0
DWIDTH 24 0
BBX 24 24 0 -2
BITMAP
001800
38181C
381818
301818
3FFFF8
003000
00E000
038007
FFFFFF
003800
007E00
00E380
0180E0
0700FC
0CFF9F
300026
C00070
0FFFF8
003030
003030
003070
0033F0
003060
003040
ENDCHAR
STARTCHAR C2877
ENCODING 10359
SWIDTH 400 0
DWIDTH 24 0
BBX 24 24 0 -2
BITMAP
101800
1C183C
181838
183838
183038
1FFFF8
006810
00CC00
019820
03FFF0
070030
1F0030
330030
C30030
03FFE0
030000
030038
03FFFC
030018
030018
030018
030018
03FFF8
030018
ENDCHAR
STARTCHAR C2878
ENCODING 10360
SWIDTH 400 0
DWIDTH 24 0
BBX 24 24 0 -2
BITMAP
100007
1C0187
187F87
183337
183337
993337
9B3337
9B3337
9B3337
9B3337
9BFFF7
9B3337
9B3337
9B3337
9B3337
9B3337
9B7337
9B7337
FF6327
016307
00C307
00C33F
00830E
01020C
ENDCHAR
STARTCHAR C2879
ENCODING 10361
SWIDTH 400 0
DWIDTH 24 0
BBX 24 24 0 -2
BITMAP
100300
1C0300
180202
183FFF
183007
993007
DBB03F
9BB03F
9BB437
9BB237
9BB167
9BB1E7
9BB0E7
9BB0E7
9BB1F7
9BB13F
9BB21F
9BB41F
FFB807
013007
003007
003FFF
003002
000000
ENDCHAR
STARTCHAR C287a
ENCODING 10362
SWIDTH 400 0
DWIDTH 24 0
BBX 24 24 0 -2
BITMAP
10100C
1C1C1C
180738
1801E0
1801F0
99033C
DB8C0E
9BB006
9B8380
9B8300
9B8302
9BFFFF
9B8600
9B8640
9B8E60
9B8CC0
9B88C0
9B9980
FFB908
01330C
006606
00CFFF
019F83
000C03
ENDCHAR
STARTCHAR C287b
ENCODING 10363
SWIDTH 400 0
DWIDTH 24 0
BBX 24 24 0 -2
BITMAP
001800
301818
38181C
301818
383818
3FFFF8
003800
007004
7FFFFE
01C300
038180
0700E0
0E007F
1BC1DF
7381C7
C381C0
0381C4
3FFFFC
0301C0
0601C0
0601C0
0C01C0
1801C0
700180
ENDCHAR
STARTCHAR C287c
ENCODING 10364
SWIDTH 400 0
DWIDTH 24 0
BBX 24 24 0 -2
BITMAP
1C0738
1C0738
1C0638
1C0638
5F8638
FFC638
DD9FFE
DD8638
DD8638
DD8638
DD8638
DD8638
DD8638
DD8638
DDBFFF
DD8000
DD8600
DF8618
5D0E0C
1C0C06
1C1807
1C3003
1C6003
18C001
ENDCHAR
STARTCHAR C287d
ENCODING 10365
SWIDTH 400 0
DWIDTH 24 0
BBX 24 24 0 -2
BITMAP
1C00E0
1C00E0
1C00C2
1C1FFF
5F80C0
FFC0C4
DD9FFE
DD80C6
DD80C6
DD80C6
DD9FFE
DD98C4
DD98C0
DD98C7
DDBFFF
DD81C7
DD81C7
DF83FF
5D0336
1C0638
1C0C1C
1C180F
1C3007
18C003
ENDCHAR
STARTCHAR C287e
ENCODING 10366
SWIDTH 400 0
DWIDTH 24 0
BBX 24 24 0 -2
BITMAP
1C0380
1C0380
18030C
187FFE
9B030E
FF830C
9B060C
9B0E0C
9B1C0C
9B39FC
9B7078
9BC030
9B7020
9B7030
9B7636
9BFFFF
9B7637
9F7637
9A6637
186667
18C667
18DEC7
198D9E
1B0B0C
ENDCHAR
STARTCHAR C2921
ENCODING 10529
SWIDTH 400 0
DWIDTH 24 0
BBX 24 24 0 -2
BITMAP
1C01C0
1C01C0
1C01C0
1C01C6
5FBFFE
FFF1C6
DDB1C6
DDB1C6
DDBFFE
DDB1C6
DDB1C6
DDB1C6
DDBFFE
DDB1C4
DD81CC
DD80CE
DD80D8
DF80F0
5D00E0
1C01F1
1C0319
1C0E0F
1C1807
186003
ENDCHAR
STARTCHAR C2922
ENCODING 10530
SWIDTH 400 0
DWIDTH 24 0
BBX 24 24 0 -2
BITMAP
1C0000
1C3007
1C3FFF
1C3007
5FB007
FFF017
DDB7FF
DDB007
DDB007
DDB237
DDB3F7
DDB337
DDB337
DDB337
DDB337
DDB3F7
DDB337
DFB227
5D3007
1C3007
1C3007
1C307F
1C301E
18300C
ENDCHAR
STARTCHAR C2923
ENCODING 10531
SWIDTH 400 0
DWIDTH 24 0
BBX 24 24 0 -2
BITMAP
1C0700
1C0700
1C061C
1C07FC
5F8C18
FFCC30
DD9822
DDBFFF
DD9800
DD9906
DD99FE
DD9986
DD9986
DD9986
DD9986
DD9986
DD99FE
DF998C
5D1988
1C3181
1C3181
1C61FF
1C41FF
18807E
ENDCHAR
STARTCHAR C2924
ENCODING 10532
SWIDTH 400 0
DWIDTH 24 0
BBX 24 24 0 -2
BITMAP
1C0300
1C0180
1C01C0
1C0340
5F8320
FFC630
DD8C18
DD880E
DD9007
DDA003
DDE006
DD9FFC
DD81C0
DD81C0
DD81C0
DD81C8
DD9FFC
DF81C0
5D01C0
1C01C0
1C01C0
1C01C2
1C7FFF
180000
ENDCHAR
STARTCHAR C2925
ENCODING 10533
SWIDTH 400 0
DWIDTH 24 0
BBX 24 24 0 -2
BITMAP
01C006
6FE7FE
7C0606
600606
604606
7FE606
600606
600606
60E60E
FF86FE
F8061C
601608
001800
001818
3FFFFC
30181C
301818
301818
301818
301818
301818
3018F8
301810
001000
ENDCHAR
STARTCHAR C2926
ENCODING 10534
SWIDTH 400 0
DWIDTH 24 0
BBX 24 24 0 -2
BITMAP
001800
000C00
300C06
3FFFFF
300600
300700
300606
37FFFE
300600
32060C
33FFFE
33060E
33060C
33060C
33060C
33067C
320F08
601E80
603660
606630
61C61C
C3060F
8C0607
100600
ENDCHAR
STARTCHAR C2927
ENCODING 10535
SWIDTH 400 0
DWIDTH 24 0
BBX 24 24 0 -2
BITMAP
001800
000C00
300C06
3FFFFF
300700
300600
300618
33FFFC
33860C
33860C
33861C
33FFFC
33860C
33860C
33FFFC
330600
30030E
600378
6003E0
6003C1
601EF1
C0787F
81C01F
1E0007
ENDCHAR
STARTCHAR C2928
ENCODING 10536
SWIDTH 400 0
DWIDTH 24 0
BBX 24 24 0 -2
BITMAP
001800
000C00
300C06
3FFFFF
300000
310700
31C700
318608
31FFFC
338600
330600
360600
3C0600
300606
37FFFE
3019C0
3031C0
6031C0
6061C0
60C1C1
6181C3
C301FE
8600FE
3C007C
ENDCHAR
STARTCHAR C2929
ENCODING 10537
SWIDTH 400 0
DWIDTH 24 0
BBX 24 24 0 -2
BITMAP
001800
000C00
300C06
3FFFFF
303000
303000
306030
30C018
31800C
37FFFE
37F006
330006
30FFF8
318018
31B818
318718
318198
618098
6383F8
637E18
637818
C221F8
840078
080030
ENDCHAR
STARTCHAR C292a
ENCODING 10538
SWIDTH 400 0
DWIDTH 24 0
BBX 24 24 0 -2
BITMAP
001800
000C00
300C06
3FFFFF
300400
300E00
300E00
301900
3030C0
306060
30C03C
31807F
37FFEF
3C0000
300010
31FFF8
318038
618038
618038
618038
618038
C1FFF8
818030
018000
ENDCHAR
STARTCHAR C292b
ENCODING 10539
SWIDTH 400 0
DWIDTH 24 0
BBX 24 24 0 -2
BITMAP
02080C
070C0C
FF8618
030310
030337
031FFF
0300C0
7F00C0
6200C0
6000C4
601FFE
E300C0
FF80C0
0380C0
0380C2
039FFF
0380C0
0380C0
0380C0
0300C0
0700C0
FE00C0
3C00C0
1800C0
ENDCHAR
STARTCHAR C292c
ENCODING 10540
SWIDTH 400 0
DWIDTH 24 0
BBX 24 24 0 -2
BITMAP
020000
073007
FFBFFF
033007
033007
033017
0337FF
7F3007
623007
603237
6033F7
E33337
FFB337
03B337
03B337
03B3F7
03B337
03B227
03B007
033007
073007
FE307F
3C301E
18300C
ENDCHAR
STARTCHAR C292d
ENCODING 10541
SWIDTH 400 0
DWIDTH 24 0
BBX 24 24 0 -2
BITMAP
060070
060470
040E60
0C0E60
180E60
300E60
630E60
474E60
066E62
0E6E7F
1C6FF0
1C6E60
3C6E60
3C6E60
5C6E60
9C6E60
1C6E60
1C6E60
1C6E60
1C6E61
1C6FE1
1CFE7F
1DF03F
18C01E
ENDCHAR
STARTCHAR C292e
ENCODING 10542
SWIDTH 400 0
DWIDTH 24 0
BBX 24 24 0 -2
BITMAP
060004
063807
0431E6
0C31C6
1831C6
3031C6
6331C6
4731C6
0631C6
0E31C6
1DF7FE
1C31C6
3C31C6
3C31C6
5C31C6
9C31C6
1C31C6
1C31C6
1C71C6
1C61C6
1C61C6
1C41C6
1CC086
198006
ENDCHAR
STARTCHAR C292f
ENCODING 10543
SWIDTH 400 0
DWIDTH 24 0
BBX 24 24 0 -2
BITMAP
060060
060066
0C0067
0C0062
180060
30FFFF
638060
438060
071C60
061C67
0C1867
1C1867
1C7F66
3C1C66
6C186C
CC183C
0C1838
0C1038
0C3038
0C607D
0CC0CD
0C830F
0C0E07
0C1803
ENDCHAR
STARTCHAR C2930
ENCODING 10544
SWIDTH 400 0
DWIDTH 24 0
BBX 24 24 0 -2
BITMAP
060000
06000C
0C3FFE
0C001C
180030
3000C0
6380C0
4380C6
070CCF
06FEDC
0C0EF0
1C0EE0
1C0CD0
3C0CD8
6C18CC
CC18CE
0C30C7
0C60C7
0C47C2
0C81C0
0C0180
0C0002
0CFFFF
0C0000
ENDCHAR
STARTCHAR C2931
ENCODING 10545
SWIDTH 400 0
DWIDTH 24 0
BBX 24 24 0 -2
BITMAP
0601C0
0601C0
0C01C2
0C7FFF
1801C0
3001C0
6381C6
43BFFE
0731C6
0631C6
0C31C6
1C31C6
1C31C6
3C31DE
6C31CC
CC03C0
0C03E0
0C07F0
0C0DDC
0C19CF
0C31C7
0CC1C2
0C01C0
0C0180
ENDCHAR
STARTCHAR C2932
ENCODING 10546
SWIDTH 400 0
DWIDTH 24 0
BBX 24 24 0 -2
BITMAP
060380
060380
0C0302
0C7FFF
180670
300E30
638C1C
43980F
073FF7
06E002
0C0000
1C0006
1C7FFE
3C0C00
6C1C0C
CC1FFE
0C180E
0C000C
0C000C
0C000C
0C000C
0C07FC
0C01F8
0C0070
ENDCHAR
STARTCHAR C2933
ENCODING 10547
SWIDTH 400 0
DWIDTH 24 0
BBX 24 24 0 -2
BITMAP
060040
060E20
0C0E30
0C0C18
18180E
301387
632303
434600
060410
060878
0C3FCC
1C3E04
1C1800
3C0820
6C0E38
CC0C30
0C0C30
0C0C30
0C0C30
0C1831
0C1831
0C303F
0C603F
0DC00E
ENDCHAR
STARTCHAR C2934
ENCODING 10548
SWIDTH 400 0
DWIDTH 24 0
BBX 24 24 0 -2
BITMAP
1C0600
1C0300
1C0180
1C0186
1CFFFF
1C0300
3E0300
7F0300
7F8700
DD0F8E
DC0C8C
9C1CD8
1C18D0
1C3860
1C3860
1C7860
1CD820
1D9830
1D1818
1C180C
1C198F
1C1F07
1C1C02
180800
ENDCHAR
STARTCHAR C2935
ENCODING 10549
SWIDTH 400 0
DWIDTH 24 0
BBX 24 24 0 -2
BITMAP
1C0700
1C0700
1C0600
1C0602
1CFFFF
1C0E00
3E0C00
7F0C0C
7F9FFE
DD1C0E
DC3C0C
9C3C0C
1C6FFC
1CCC0C
1D8C0C
1C0C0C
1C0C0C
1C1FFC
1C180C
1C180C
1C100C
1C30FC
1C603C
18C018
ENDCHAR
STARTCHAR C2936
ENCODING 10550
SWIDTH 400 0
DWIDTH 24 0
BBX 24 24 0 -2
BITMAP
1C01C0
1C01C0
180180
186186
187FFE
186186
5C6186
5E6186
DB7FFE
D96186
D86186
986186
187FFE
186184
18418C
18018E
1800D8
1800F0
1800E0
1801E1
180331
180C1F
18700F
18C007
ENDCHAR
STARTCHAR C2937
ENCODING 10551
SWIDTH 400 0
DWIDTH 24 0
BBX 24 24 0 -2
BITMAP
1C0E00
1C0E00
1C0E1C
1C0FFC
1C0C18
1C1E30
3E33E0
7F61C0
7FC3F0
DD073F
DC0C8F
9C31C7
1CC1C0
1C31CC
1C3FFC
1C31C0
1C31C0
1C31C0
1C3FFE
1C31C0
1C01C0
1C01C0
1C01C0
180180
ENDCHAR
STARTCHAR C2938
ENCODING 10552
SWIDTH 400 0
DWIDTH 24 0
BBX 24 24 0 -2
BITMAP
0003F8
20FFFC
3FE000
300006
3FFFFE
300006
300006
300006
3FFFFE
3000E0
3200E0
3300C0
3040C0
3CC0C7
369FFF
3780C0
2100C0
6300C0
6300C0
6E00C0
C600C0
C700C0
8700C0
0300C0
ENDCHAR
STARTCHAR C2939
ENCODING 10553
SWIDTH 400 0
DWIDTH 24 0
BBX 24 24 0 -2
BITMAP
0007F8
20FFFC
3FC000
300006
3FFFFE
300006
300006
3FFFFE
301000
30F906
3781FE
361186
361986
361986
361986
361986
263986
67F986
6731BE
62319C
C06188
C0C180
818180
070180
ENDCHAR
STARTCHAR C293a
ENCODING 10554
SWIDTH 400 0
DWIDTH 24 0
BBX 24 24 0 -2
BITMAP
1C0000
1C660C
1FF7FE
18760C
38E60C
3CC67C
47860D
830601
0607FF
1C03FF
3000C0
E00FE0
07FFF0
001800
00180C
3FFFFC
001800
001802
FFFFFF
001800
001800
01F800
007800
003000
ENDCHAR
STARTCHAR C293b
ENCODING 10555
SWIDTH 400 0
DWIDTH 24 0
BBX 24 24 0 -2
BITMAP
1C0300
1C0180
1C01C0
1C3FFE
1C01C0
1D01C0
FF31C6
1C19CE
1C1DCC
1C0DD8
1C0DD0
1F01C2
1C7FFF
FC01C0
FC01C0
5C01C0
1C01C0
1C01C0
1C01C0
1C01C0
1C01C0
FC01C0
3801C0
300180
ENDCHAR
STARTCHAR C293c
ENCODING 10556
SWIDTH 400 0
DWIDTH 24 0
BBX 24 24 0 -2
BITMAP
1C3800
1C3800
183006
1833FE
183030
183430
FEFE30
183030
183030
183030
183030
1C3C30
387830
F9F030
F9F030
58F030
183030
183030
183030
183030
183032
F8F3FF
387000
306000
ENDCHAR
STARTCHAR C293d
ENCODING 10557
SWIDTH 400 0
DWIDTH 24 0
BBX 24 24 0 -2
BITMAP
1C0000
1C4007
1C7FFF
1C6600
1C6600
1D6606
FF67FE
1C6C60
1C7860
1C6060
1C6060
1F6062
1C6FFF
FC60E0
FC6060
5C6060
1C6060
1C6060
1CC060
1CC060
1CC060
FD8060
3B0060
320040
ENDCHAR
STARTCHAR C293e
ENCODING 10558
SWIDTH 400 0
DWIDTH 24 0
BBX 24 24 0 -2
BITMAP
1C0000
1C4007
1C7FFF
1C60E0
1C60E0
1D60E0
FF61B0
1C6118
1C621C
1C640F
1C6807
1F7FFF
1C6000
FC6000
FC600E
5C6FFF
1C600E
1C600C
1CC01C
1CC018
1CC030
FD8020
3B0040
320080
ENDCHAR
ENDFONT
